<svg width="208" height="99" viewBox="0 0 208 99" fill="none" xmlns="http://www.w3.org/2000/svg">
<rect x="0.331362" y="0.331362" width="206.756" height="97.6728" rx="5.11186" fill="white"/>
<rect x="0.331362" y="0.331362" width="206.756" height="97.6728" rx="5.11186" stroke="#E3E3E3" stroke-width="0.662724"/>
<path d="M33.6745 21.3175C34.7718 21.3175 35.7015 20.746 35.7015 19.6715C35.7015 19.0085 35.3281 18.5361 34.688 18.3074C35.1757 18.0941 35.4958 17.7207 35.4958 17.1644C35.4958 16.2651 34.6499 15.7165 33.6745 15.7165C32.7296 15.7165 31.8456 16.2575 31.8456 17.1796C31.8456 17.7207 32.1504 18.1169 32.6533 18.3151C32.0437 18.5284 31.6322 19.0085 31.6322 19.702C31.6322 20.7689 32.5924 21.3175 33.6745 21.3175ZM33.6745 20.5555C33.1258 20.5555 32.6533 20.2278 32.6533 19.6182C32.6533 19.0085 33.1258 18.6808 33.6821 18.6808C34.246 18.6808 34.688 19.0085 34.688 19.6105C34.688 20.2202 34.2537 20.5555 33.6745 20.5555ZM33.6897 18.0179C33.2173 18.0179 32.8134 17.7283 32.8134 17.2329C32.8134 16.7452 33.1944 16.448 33.6745 16.448C34.1622 16.448 34.5356 16.7605 34.5356 17.2253C34.5356 17.7207 34.1851 18.0179 33.6897 18.0179ZM37.0079 21.2947C37.3508 21.2947 37.6175 21.0356 37.6175 20.7003C37.6175 20.365 37.3508 20.0983 37.0079 20.0983C36.6726 20.0983 36.4058 20.365 36.4058 20.7003C36.4058 21.0356 36.6726 21.2947 37.0079 21.2947ZM40.2193 21.3175C41.3928 21.3175 42.2235 20.5936 42.2235 19.4429C42.2235 18.2998 41.53 17.614 40.5469 17.614C39.9678 17.614 39.5868 17.8273 39.3734 18.0712L39.381 16.5928H41.911V15.7927H38.6037L38.558 18.8256H39.0762C39.32 18.5437 39.6553 18.3532 40.2116 18.3532C40.8137 18.3532 41.1947 18.7723 41.1947 19.4277C41.1947 20.0983 40.8365 20.5326 40.2116 20.5326C39.5106 20.5326 39.3048 20.1821 39.221 19.6791H38.276C38.337 20.6165 38.939 21.3175 40.2193 21.3175ZM42.6779 21.2413H46.6177V20.4564H44.3011L45.5127 19.2752C46.1605 18.6504 46.5796 18.0331 46.5796 17.3244C46.5796 16.3642 45.909 15.7165 44.7811 15.7165C43.6304 15.7165 42.9141 16.4023 42.8455 17.5911H43.7752C43.8667 16.8214 44.2096 16.509 44.7507 16.509C45.2765 16.509 45.5661 16.8291 45.5661 17.3396C45.5661 17.8578 45.2536 18.3379 44.7354 18.8866L42.6779 21.0584V21.2413ZM49.3248 21.3175C50.4222 21.3175 51.3519 20.746 51.3519 19.6715C51.3519 19.0085 50.9785 18.5361 50.3383 18.3074C50.8261 18.0941 51.1461 17.7207 51.1461 17.1644C51.1461 16.2651 50.3002 15.7165 49.3248 15.7165C48.3799 15.7165 47.4959 16.2575 47.4959 17.1796C47.4959 17.7207 47.8007 18.1169 48.3037 18.3151C47.694 18.5284 47.2825 19.0085 47.2825 19.702C47.2825 20.7689 48.2427 21.3175 49.3248 21.3175ZM49.3248 20.5555C48.7761 20.5555 48.3037 20.2278 48.3037 19.6182C48.3037 19.0085 48.7761 18.6808 49.3324 18.6808C49.8963 18.6808 50.3383 19.0085 50.3383 19.6105C50.3383 20.2202 49.904 20.5555 49.3248 20.5555ZM49.3401 18.0179C48.8676 18.0179 48.4637 17.7283 48.4637 17.2329C48.4637 16.7452 48.8447 16.448 49.3248 16.448C49.8125 16.448 50.1859 16.7605 50.1859 17.2253C50.1859 17.7207 49.8354 18.0179 49.3401 18.0179ZM54.0281 21.3175C55.1254 21.3175 56.0551 20.746 56.0551 19.6715C56.0551 19.0085 55.6817 18.5361 55.0416 18.3074C55.5293 18.0941 55.8494 17.7207 55.8494 17.1644C55.8494 16.2651 55.0035 15.7165 54.0281 15.7165C53.0832 15.7165 52.1992 16.2575 52.1992 17.1796C52.1992 17.7207 52.504 18.1169 53.0069 18.3151C52.3973 18.5284 51.9858 19.0085 51.9858 19.702C51.9858 20.7689 52.946 21.3175 54.0281 21.3175ZM54.0281 20.5555C53.4794 20.5555 53.0069 20.2278 53.0069 19.6182C53.0069 19.0085 53.4794 18.6808 54.0357 18.6808C54.5996 18.6808 55.0416 19.0085 55.0416 19.6105C55.0416 20.2202 54.6073 20.5555 54.0281 20.5555ZM54.0433 18.0179C53.5709 18.0179 53.167 17.7283 53.167 17.2329C53.167 16.7452 53.548 16.448 54.0281 16.448C54.5158 16.448 54.8892 16.7605 54.8892 17.2253C54.8892 17.7207 54.5387 18.0179 54.0433 18.0179ZM58.6399 21.3099C60.0421 21.3099 60.8346 20.3116 60.8346 18.5208V18.2389C60.8346 16.669 60.1335 15.7088 58.7085 15.7088C57.4664 15.7088 56.6891 16.4633 56.6891 17.5759C56.6891 18.6504 57.4435 19.3438 58.4951 19.3438C59.1429 19.3438 59.5849 19.0695 59.8363 18.658C59.8211 19.9001 59.402 20.525 58.6247 20.525C58.0379 20.525 57.7864 20.2507 57.6874 19.8239H56.7348C56.8644 20.7612 57.5273 21.3099 58.6399 21.3099ZM58.7085 18.6351C58.0836 18.6351 57.6874 18.2008 57.6874 17.5454C57.6874 16.8976 58.0913 16.4633 58.7009 16.4633C59.3258 16.4633 59.7601 16.89 59.7601 17.6216C59.7601 18.2236 59.3258 18.6351 58.7085 18.6351ZM63.4548 21.3099C64.857 21.3099 65.6495 20.3116 65.6495 18.5208V18.2389C65.6495 16.669 64.9485 15.7088 63.5234 15.7088C62.2813 15.7088 61.504 16.4633 61.504 17.5759C61.504 18.6504 62.2584 19.3438 63.31 19.3438C63.9578 19.3438 64.3998 19.0695 64.6513 18.658C64.636 19.9001 64.2169 20.525 63.4396 20.525C62.8528 20.525 62.6013 20.2507 62.5023 19.8239H61.5497C61.6793 20.7612 62.3422 21.3099 63.4548 21.3099ZM63.5234 18.6351C62.8985 18.6351 62.5023 18.2008 62.5023 17.5454C62.5023 16.8976 62.9062 16.4633 63.5158 16.4633C64.1407 16.4633 64.5751 16.89 64.5751 17.6216C64.5751 18.2236 64.1407 18.6351 63.5234 18.6351ZM68.2697 21.3099C69.6719 21.3099 70.4645 20.3116 70.4645 18.5208V18.2389C70.4645 16.669 69.7634 15.7088 68.3383 15.7088C67.0962 15.7088 66.3189 16.4633 66.3189 17.5759C66.3189 18.6504 67.0733 19.3438 68.125 19.3438C68.7727 19.3438 69.2147 19.0695 69.4662 18.658C69.4509 19.9001 69.0318 20.525 68.2545 20.525C67.6677 20.525 67.4162 20.2507 67.3172 19.8239H66.3646C66.4942 20.7612 67.1572 21.3099 68.2697 21.3099ZM68.3383 18.6351C67.7134 18.6351 67.3172 18.2008 67.3172 17.5454C67.3172 16.8976 67.7211 16.4633 68.3307 16.4633C68.9556 16.4633 69.39 16.89 69.39 17.6216C69.39 18.2236 68.9556 18.6351 68.3383 18.6351ZM71.6329 21.2413H72.6769L74.6582 15.9146V15.7927H70.848V16.6157H73.3856L71.6329 21.2413ZM77.2203 21.2413H78.1347V17.1263L79.7884 21.2413H80.1161L81.7392 17.1263V21.2413H82.7528V15.7927H81.4116L80.0094 19.5115L78.5767 15.7927H77.2203V21.2413ZM83.5807 21.2413H84.5333L84.96 19.8925H87.0404L87.4748 21.2413H88.5264L86.728 15.7927H85.402L83.5807 21.2413ZM86.004 16.6233L86.8042 19.1533H85.1963L86.004 16.6233ZM89.9119 21.2413H90.9331V16.5928H92.4496V15.7927H88.3954V16.5928H89.9119V21.2413ZM93.2955 21.2413H94.3166V15.7927H93.2955V21.2413ZM97.987 21.3175C99.2825 21.3175 100.212 20.6546 100.372 19.3438H99.3815C99.2748 20.1135 98.7414 20.4945 97.987 20.4945C96.9811 20.4945 96.3943 19.7706 96.3943 18.5437V18.4827C96.3943 17.2634 97.0192 16.5166 97.9794 16.5166C98.7643 16.5166 99.1682 16.89 99.2825 17.614H100.311C100.189 16.3337 99.2215 15.7088 97.9717 15.7088C96.4553 15.7088 95.3274 16.8519 95.3274 18.4903V18.5513C95.3274 20.2278 96.28 21.3175 97.987 21.3175Z" fill="#707070"/>
<path d="M31.3427 39.4803H32.4368V37.4227C34.8372 37.2594 36.2579 35.7408 36.2579 33.8302C36.2579 31.6257 34.8535 30.8092 32.4368 30.4173V27.0697C33.4329 27.233 33.9391 27.8046 34.1187 28.8007H36.0456C35.8497 26.7758 34.5433 25.6817 32.4368 25.4857V23.9997H31.3427V25.4694C29.1218 25.6164 27.6685 26.9717 27.6685 28.7843C27.6685 30.8582 28.9259 31.74 31.3427 32.1482V35.8224C29.7914 35.6265 29.4321 34.7283 29.3015 33.6669H27.2766C27.4399 35.6428 28.5503 37.2268 31.3427 37.4227V39.4803ZM34.2493 34.0262C34.2493 34.9896 33.5308 35.6755 32.4368 35.8224V32.3279C33.8574 32.6381 34.2493 33.0954 34.2493 34.0262ZM29.5954 28.6047C29.5954 27.7882 30.2159 27.1514 31.3427 27.0207V30.2377C29.9057 29.9437 29.5954 29.4538 29.5954 28.6047ZM39.7541 37.2758H41.9422V25.6001H39.999L37.2883 27.527V29.4375L39.7541 27.7556V37.2758ZM48.299 37.4391C50.9771 37.4391 52.6754 36.1 52.6754 33.9445C52.6754 32.3932 51.7772 31.4297 50.4219 31.1195C51.5486 30.6949 52.3161 29.8948 52.3161 28.572C52.3161 26.8411 50.8954 25.4368 48.4623 25.4368C45.9639 25.4368 44.4452 26.9881 44.3309 29.0129H46.2578C46.3885 27.8372 47.1886 27.086 48.4297 27.086C49.6381 27.086 50.2423 27.7882 50.2423 28.7353C50.2423 29.8294 49.6381 30.45 48.299 30.45H47.4662V32.0013H48.3643C49.785 32.0013 50.4709 32.6381 50.4709 33.9118C50.4709 35.0713 49.7687 35.8061 48.25 35.8061C46.6824 35.8061 45.9965 34.8916 45.8822 33.6669H43.9063C44.0043 35.9041 45.523 37.4391 48.299 37.4391ZM55.2693 37.3901C56.0042 37.3901 56.5757 36.8349 56.5757 36.1164C56.5757 35.3978 56.0042 34.8263 55.2693 34.8263C54.5508 34.8263 53.9793 35.3978 53.9793 36.1164C53.9793 36.8349 54.5508 37.3901 55.2693 37.3901ZM62.1746 37.4391C64.526 37.4391 66.5182 36.2143 66.5182 33.9118C66.5182 32.4912 65.7181 31.4787 64.3464 30.9888C65.3915 30.5316 66.0773 29.7315 66.0773 28.5394C66.0773 26.6125 64.2648 25.4368 62.1746 25.4368C60.1497 25.4368 58.2554 26.5962 58.2554 28.572C58.2554 29.7315 58.9086 30.5806 59.9864 31.0052C58.68 31.4624 57.7982 32.4912 57.7982 33.9772C57.7982 36.2633 59.8557 37.4391 62.1746 37.4391ZM62.1746 35.8061C60.9988 35.8061 59.9864 35.1039 59.9864 33.7975C59.9864 32.4912 60.9988 31.789 62.1909 31.789C63.3993 31.789 64.3464 32.4912 64.3464 33.7812C64.3464 35.0876 63.4156 35.8061 62.1746 35.8061ZM62.2072 30.3683C61.1948 30.3683 60.3293 29.7478 60.3293 28.6864C60.3293 27.6413 61.1458 27.0044 62.1746 27.0044C63.2197 27.0044 64.0198 27.6739 64.0198 28.67C64.0198 29.7315 63.2686 30.3683 62.2072 30.3683ZM71.977 37.4391C74.6551 37.4391 76.3534 36.1 76.3534 33.9445C76.3534 32.3932 75.4552 31.4297 74.0999 31.1195C75.2266 30.6949 75.9941 29.8948 75.9941 28.572C75.9941 26.8411 74.5734 25.4368 72.1403 25.4368C69.6419 25.4368 68.1232 26.9881 68.0089 29.0129H69.9358C70.0665 27.8372 70.8666 27.086 72.1077 27.086C73.3161 27.086 73.9203 27.7882 73.9203 28.7353C73.9203 29.8294 73.3161 30.45 71.977 30.45H71.1442V32.0013H72.0423C73.463 32.0013 74.1489 32.6381 74.1489 33.9118C74.1489 35.0713 73.4467 35.8061 71.928 35.8061C70.3604 35.8061 69.6745 34.8916 69.5602 33.6669H67.5843C67.6823 35.9041 69.201 37.4391 71.977 37.4391Z" fill="#111111"/>
<circle cx="152.426" cy="26.8506" r="11.7029" stroke="#CFCFCF" stroke-width="0.544322"/>
<path d="M150.248 23.8567H149.16V24.9454H150.248V23.8567ZM147.527 23.5846C147.527 23.2237 147.67 22.8775 147.925 22.6223C148.18 22.3671 148.527 22.2238 148.887 22.2238H150.52C150.881 22.2238 151.227 22.3671 151.483 22.6223C151.738 22.8775 151.881 23.2237 151.881 23.5846V25.2175C151.881 25.5784 151.738 25.9246 151.483 26.1798C151.227 26.435 150.881 26.5783 150.52 26.5783H148.887C148.527 26.5783 148.18 26.435 147.925 26.1798C147.67 25.9246 147.527 25.5784 147.527 25.2175V23.5846ZM148.887 23.3124C148.815 23.3124 148.746 23.3411 148.695 23.3921C148.644 23.4432 148.615 23.5124 148.615 23.5846V25.2175C148.615 25.2897 148.644 25.3589 148.695 25.41C148.746 25.461 148.815 25.4897 148.887 25.4897H150.52C150.593 25.4897 150.662 25.461 150.713 25.41C150.764 25.3589 150.793 25.2897 150.793 25.2175V23.5846C150.793 23.5124 150.764 23.4432 150.713 23.3921C150.662 23.3411 150.593 23.3124 150.52 23.3124H148.887ZM149.16 29.2999H150.248V30.3886H149.16V29.2999ZM147.527 29.0278C147.527 28.6669 147.67 28.3207 147.925 28.0655C148.18 27.8103 148.527 27.667 148.887 27.667H150.52C150.881 27.667 151.227 27.8103 151.483 28.0655C151.738 28.3207 151.881 28.6669 151.881 29.0278V30.6607C151.881 31.0217 151.738 31.3678 151.483 31.623C151.227 31.8782 150.881 32.0215 150.52 32.0215H148.887C148.527 32.0215 148.18 31.8782 147.925 31.623C147.67 31.3678 147.527 31.0217 147.527 30.6607V29.0278ZM148.887 28.7556C148.815 28.7556 148.746 28.7843 148.695 28.8353C148.644 28.8864 148.615 28.9556 148.615 29.0278V30.6607C148.615 30.7329 148.644 30.8022 148.695 30.8532C148.746 30.9042 148.815 30.9329 148.887 30.9329H150.52C150.593 30.9329 150.662 30.9042 150.713 30.8532C150.764 30.8022 150.793 30.7329 150.793 30.6607V29.0278C150.793 28.9556 150.764 28.8864 150.713 28.8353C150.662 28.7843 150.593 28.7556 150.52 28.7556H148.887ZM155.691 23.8567H154.603V24.9454H155.691V23.8567ZM154.331 22.2238C153.97 22.2238 153.624 22.3671 153.368 22.6223C153.113 22.8775 152.97 23.2237 152.97 23.5846V25.2175C152.97 25.5784 153.113 25.9246 153.368 26.1798C153.624 26.435 153.97 26.5783 154.331 26.5783H155.964C156.325 26.5783 156.671 26.435 156.926 26.1798C157.181 25.9246 157.324 25.5784 157.324 25.2175V23.5846C157.324 23.2237 157.181 22.8775 156.926 22.6223C156.671 22.3671 156.325 22.2238 155.964 22.2238H154.331ZM154.058 23.5846C154.058 23.5124 154.087 23.4432 154.138 23.3921C154.189 23.3411 154.258 23.3124 154.331 23.3124H155.964C156.036 23.3124 156.105 23.3411 156.156 23.3921C156.207 23.4432 156.236 23.5124 156.236 23.5846V25.2175C156.236 25.2897 156.207 25.3589 156.156 25.41C156.105 25.461 156.036 25.4897 155.964 25.4897H154.331C154.258 25.4897 154.189 25.461 154.138 25.41C154.087 25.3589 154.058 25.2897 154.058 25.2175V23.5846ZM152.97 27.667H154.467V29.1639H152.97V27.667ZM155.828 29.1639H154.467V30.5247H152.97V32.0215H154.467V30.5247H155.828V32.0215H157.324V30.5247H155.828V29.1639ZM155.828 29.1639V27.667H157.324V29.1639H155.828Z" fill="black"/>
<circle cx="180.731" cy="26.8506" r="11.7029" stroke="#CFCFCF" stroke-width="0.544322"/>
<path d="M177.202 21.7385L186.933 26.5807C187.032 26.6295 187.115 26.7064 187.173 26.8023C187.231 26.8982 187.262 27.0093 187.262 27.1227C187.262 27.2361 187.231 27.3472 187.173 27.4431C187.115 27.539 187.032 27.6159 186.933 27.6647L177.202 32.5069C177.103 32.5567 176.991 32.5755 176.881 32.5613C176.772 32.547 176.668 32.5002 176.583 32.4265C176.498 32.3528 176.435 32.2553 176.402 32.1455C176.369 32.0357 176.367 31.9183 176.396 31.8073L177.37 28.0938C177.381 28.0483 177.406 28.0075 177.44 27.9764C177.474 27.9453 177.516 27.9253 177.561 27.9189L182.277 27.2524C182.296 27.2495 182.315 27.2414 182.331 27.2287C182.347 27.2161 182.359 27.1994 182.367 27.1804L182.375 27.1506C182.379 27.1237 182.373 27.0964 182.36 27.073C182.347 27.0497 182.327 27.0316 182.302 27.0218L182.277 27.0146L177.566 26.3481C177.521 26.3416 177.479 26.3216 177.445 26.2905C177.411 26.2594 177.387 26.2186 177.375 26.1732L176.396 22.4386C176.367 22.3275 176.369 22.21 176.402 22.1002C176.435 21.9903 176.498 21.8927 176.583 21.8189C176.668 21.7451 176.771 21.6983 176.881 21.6841C176.991 21.6698 177.103 21.6887 177.202 21.7385V21.7385Z" fill="black"/>
<rect x="14.7126" y="53.5234" width="177.993" height="31.5707" rx="4.35458" fill="#2752E7"/>
<path d="M99.5593 72.0559H100.726V66.7433H102.459V65.8289H97.8262V66.7433H99.5593V72.0559ZM102.998 72.0559H104.052V69.687C104.052 68.7203 104.609 68.4242 105.533 68.4155V67.4313C104.766 67.4401 104.339 67.7797 104.052 68.3545V67.501H102.998V72.0559ZM107.568 72.143C108.265 72.143 108.665 71.8904 108.961 71.4985V72.0559H109.998V69.0687C109.998 67.8233 109.196 67.4052 108.177 67.4052C107.158 67.4052 106.314 67.8494 106.227 68.9119H107.246C107.298 68.459 107.568 68.1978 108.116 68.1978C108.735 68.1978 108.944 68.5026 108.944 69.1122V69.3474H108.378C107.071 69.3474 106.044 69.7306 106.044 70.7931C106.044 71.7424 106.732 72.143 107.568 72.143ZM107.82 71.3853C107.298 71.3853 107.089 71.1327 107.089 70.7495C107.089 70.1921 107.603 70.0093 108.404 70.0093H108.944V70.4621C108.944 71.0456 108.465 71.3853 107.82 71.3853ZM112.913 72.143C113.583 72.143 114.167 71.7424 114.41 71.2895V72.0559H115.464V65.3934H114.41V68.1978C114.158 67.7449 113.696 67.4052 112.956 67.4052C111.772 67.4052 110.909 68.3284 110.909 69.7828V69.8525C110.909 71.333 111.772 72.143 112.913 72.143ZM113.174 71.3069C112.494 71.3069 111.989 70.8279 111.989 69.8264V69.7567C111.989 68.7726 112.442 68.2326 113.217 68.2326C113.984 68.2326 114.445 68.729 114.445 69.7306V69.8002C114.445 70.8192 113.905 71.3069 113.174 71.3069ZM118.72 72.143C119.887 72.143 120.662 71.6205 120.81 70.6624H119.791C119.713 71.1066 119.382 71.3592 118.746 71.3592C117.962 71.3592 117.527 70.8715 117.492 70.0093H120.827V69.7044C120.827 68.0758 119.809 67.4052 118.676 67.4052C117.379 67.4052 116.412 68.3458 116.412 69.7567V69.8264C116.412 71.2634 117.379 72.143 118.72 72.143ZM117.509 69.3038C117.614 68.5984 118.041 68.1716 118.676 68.1716C119.33 68.1716 119.73 68.52 119.782 69.3038H117.509Z" fill="white"/>
</svg>
