<svg width="121" height="122" viewBox="0 0 121 122" fill="none" xmlns="http://www.w3.org/2000/svg">
<rect x="0.226262" y="0.226262" width="119.618" height="120.857" rx="2.94744" fill="white"/>
<rect x="0.226262" y="0.226262" width="119.618" height="120.857" rx="2.94744" stroke="#F3F3F3" stroke-width="0.452524"/>
<path d="M9.98879 14.616H11.064L12.7537 9.62373H11.881L10.5753 13.6734L9.27662 9.62373H8.3061L9.98879 14.616ZM14.246 14.6858C15.1816 14.6858 15.8031 14.2669 15.9218 13.4988H15.1048C15.042 13.8549 14.7767 14.0574 14.267 14.0574C13.6386 14.0574 13.2895 13.6664 13.2616 12.9752H15.9357V12.7308C15.9357 11.4251 15.1188 10.8875 14.2111 10.8875C13.1708 10.8875 12.3958 11.6416 12.3958 12.7727V12.8285C12.3958 13.9806 13.1708 14.6858 14.246 14.6858ZM13.2755 12.4096C13.3593 11.8441 13.7014 11.5019 14.2111 11.5019C14.7348 11.5019 15.056 11.7812 15.0979 12.4096H13.2755ZM16.373 14.616H17.2178V12.7168C17.2178 11.9418 17.6647 11.7044 18.4048 11.6974V10.9084C17.7903 10.9154 17.4482 11.1877 17.2178 11.6486V10.9643H16.373V14.616ZM18.8517 14.616H19.6965V10.9643H18.8517V14.616ZM19.2636 10.3638C19.5429 10.3638 19.7663 10.1544 19.7663 9.88207C19.7663 9.60279 19.5429 9.39332 19.2636 9.39332C18.9843 9.39332 18.7609 9.60279 18.7609 9.88207C18.7609 10.1544 18.9843 10.3638 19.2636 10.3638ZM20.5555 14.616H21.4004V11.5997H22.2312V10.9643H21.4004V10.4406C21.4004 10.1264 21.54 9.90302 21.8821 9.90302C22.0357 9.90302 22.1684 9.93095 22.2661 9.96586V9.30954C22.1125 9.26066 21.9869 9.23972 21.7844 9.23972C21.0024 9.23972 20.5555 9.67261 20.5555 10.4756V10.9643H20.0598V11.5997H20.5555V14.616ZM23.0943 15.8658H23.9252L25.9151 10.9643H25.0912L24.1975 13.3173L23.227 10.9643H22.3123L23.7576 14.2459L23.0943 15.8658ZM27.9826 15.8658H28.8135L30.8034 10.9643H29.9795L29.0858 13.3173L28.1152 10.9643H27.2006L28.6459 14.2459L27.9826 15.8658ZM32.617 14.0295C31.9746 14.0295 31.6046 13.5617 31.6046 12.8146V12.7587C31.6046 12.0046 31.9886 11.5508 32.617 11.5508C33.2454 11.5508 33.6224 12.0116 33.6224 12.7657V12.8146C33.6224 13.5617 33.2454 14.0295 32.617 14.0295ZM32.61 14.6858C33.6852 14.6858 34.4882 13.9457 34.4882 12.8076V12.7517C34.4882 11.6346 33.6852 10.8875 32.617 10.8875C31.5417 10.8875 30.7388 11.6416 30.7388 12.7727V12.8285C30.7388 13.9387 31.5347 14.6858 32.61 14.6858ZM36.156 14.6858C36.7495 14.6858 37.1335 14.3995 37.3151 14.0434V14.616H38.1599V10.9643H37.3151V13.1358C37.3151 13.7153 36.9171 14.0085 36.4633 14.0085C35.9745 14.0085 35.7441 13.7572 35.7441 13.2056V10.9643H34.8993V13.3033C34.8993 14.2738 35.4369 14.6858 36.156 14.6858ZM38.8443 14.616H39.6891V12.7168C39.6891 11.9418 40.136 11.7044 40.8761 11.6974V10.9084C40.2616 10.9154 39.9195 11.1877 39.6891 11.6486V10.9643H38.8443V14.616ZM42.6693 14.616H43.5141V10.9643H42.6693V14.616ZM43.0813 10.3638C43.3605 10.3638 43.584 10.1544 43.584 9.88207C43.584 9.60279 43.3605 9.39332 43.0813 9.39332C42.802 9.39332 42.5785 9.60279 42.5785 9.88207C42.5785 10.1544 42.802 10.3638 43.0813 10.3638ZM45.595 14.6858C46.1327 14.6858 46.6005 14.3646 46.796 14.0015V14.616H47.6408V9.27463H46.796V11.5229C46.5935 11.1598 46.2234 10.8875 45.6299 10.8875C44.6804 10.8875 43.9891 11.6276 43.9891 12.7936V12.8495C43.9891 14.0364 44.6804 14.6858 45.595 14.6858ZM45.8045 14.0155C45.2599 14.0155 44.8549 13.6315 44.8549 12.8285V12.7727C44.8549 11.9837 45.218 11.5508 45.8394 11.5508C46.4538 11.5508 46.8239 11.9488 46.8239 12.7517V12.8076C46.8239 13.6245 46.391 14.0155 45.8045 14.0155ZM49.9334 14.6858C50.8691 14.6858 51.4905 14.2669 51.6092 13.4988H50.7923C50.7294 13.8549 50.4641 14.0574 49.9544 14.0574C49.326 14.0574 48.9769 13.6664 48.949 12.9752H51.6231V12.7308C51.6231 11.4251 50.8062 10.8875 49.8985 10.8875C48.8582 10.8875 48.0832 11.6416 48.0832 12.7727V12.8285C48.0832 13.9806 48.8582 14.6858 49.9334 14.6858ZM48.9629 12.4096C49.0467 11.8441 49.3888 11.5019 49.8985 11.5019C50.4222 11.5019 50.7434 11.7812 50.7853 12.4096H48.9629ZM52.0604 14.616H52.9052V12.4655C52.9052 11.8859 53.2892 11.5927 53.764 11.5927C54.2667 11.5927 54.4902 11.8441 54.4902 12.3956V14.616H55.335V12.3188C55.335 11.3134 54.8183 10.8875 54.0852 10.8875C53.4847 10.8875 53.0798 11.1877 52.9052 11.5438V10.9643H52.0604V14.616ZM57.2337 14.6788C57.4921 14.6788 57.6736 14.6369 57.8063 14.588V13.9178C57.6876 13.9666 57.5619 13.9876 57.3943 13.9876C57.129 13.9876 56.9754 13.8409 56.9754 13.5198V11.5997H57.7784V10.9643H56.9754V10.1614H56.1306V10.9643H55.6418V11.5997H56.1306V13.5966C56.1306 14.2878 56.5076 14.6788 57.2337 14.6788ZM58.2719 14.616H59.1167V10.9643H58.2719V14.616ZM58.6838 10.3638C58.9631 10.3638 59.1866 10.1544 59.1866 9.88207C59.1866 9.60279 58.9631 9.39332 58.6838 9.39332C58.4046 9.39332 58.1811 9.60279 58.1811 9.88207C58.1811 10.1544 58.4046 10.3638 58.6838 10.3638ZM61.0719 14.6788C61.3303 14.6788 61.5118 14.6369 61.6445 14.588V13.9178C61.5258 13.9666 61.4001 13.9876 61.2325 13.9876C60.9672 13.9876 60.8136 13.8409 60.8136 13.5198V11.5997H61.6165V10.9643H60.8136V10.1614H59.9688V10.9643H59.48V11.5997H59.9688V13.5966C59.9688 14.2878 60.3458 14.6788 61.0719 14.6788ZM62.4941 15.8658H63.325L65.3149 10.9643H64.491L63.5973 13.3173L62.6268 10.9643H61.7121L63.1574 14.2459L62.4941 15.8658Z" fill="#111111"/>
<path d="M9.34898 26.38H9.79075V23.1098H10.847V22.7493H8.29277V23.1098H9.34898V26.38ZM12.2071 26.0753C11.6688 26.0753 11.3388 25.6793 11.3388 25.075V25.0344C11.3388 24.425 11.6739 24.0289 12.2071 24.0289C12.7352 24.0289 13.0754 24.425 13.0754 25.0394V25.075C13.0754 25.6742 12.7403 26.0753 12.2071 26.0753ZM12.202 26.4257C12.9586 26.4257 13.5121 25.8722 13.5121 25.0699V25.0293C13.5121 24.232 12.9586 23.6785 12.2071 23.6785C11.4556 23.6785 10.9021 24.2371 10.9021 25.0344V25.075C10.9021 25.8519 11.4454 26.4257 12.202 26.4257ZM15.6355 26.38H16.057V24.7703C16.057 24.293 16.4074 24.0442 16.7984 24.0442C17.2249 24.0442 17.423 24.2524 17.423 24.7195V26.38H17.8444V24.75C17.8444 23.9781 17.4585 23.6785 16.9101 23.6785C16.4734 23.6785 16.1789 23.8969 16.057 24.1457V22.4548H15.6355V26.38ZM19.8205 26.4257C20.4197 26.4257 20.8615 26.1464 20.9529 25.6132H20.5314C20.4756 25.923 20.2369 26.0753 19.8256 26.0753C19.2823 26.0753 18.9928 25.7402 18.9725 25.1359H20.9732V24.9988C20.9732 24.0492 20.3943 23.6785 19.7799 23.6785C19.0487 23.6785 18.5358 24.2371 18.5358 25.0394V25.0801C18.5358 25.8976 19.069 26.4257 19.8205 26.4257ZM18.9877 24.7957C19.0588 24.3234 19.3483 24.0289 19.7799 24.0289C20.2166 24.0289 20.501 24.2473 20.5416 24.7957H18.9877ZM21.6936 26.38H22.1201V22.4548H21.6936V26.38ZM23.0461 27.3042H23.4676V25.9433C23.6199 26.2074 23.9297 26.4257 24.3664 26.4257C25.0976 26.4257 25.5749 25.8671 25.5749 25.0547V25.014C25.5749 24.1863 25.0621 23.6785 24.3664 23.6785C23.9805 23.6785 23.6199 23.9121 23.4676 24.1711V23.7243H23.0461V27.3042ZM24.3258 26.0753C23.8078 26.0753 23.4524 25.7554 23.4524 25.075V25.0344C23.4524 24.3539 23.8281 24.0289 24.3207 24.0289C24.7675 24.0289 25.1382 24.3641 25.1382 25.0344V25.075C25.1382 25.7199 24.8539 26.0753 24.3258 26.0753ZM27.7006 27.3042H28.122V25.9433C28.2744 26.2074 28.5841 26.4257 29.0208 26.4257C29.752 26.4257 30.2294 25.8671 30.2294 25.0547V25.014C30.2294 24.1863 29.7165 23.6785 29.0208 23.6785C28.6349 23.6785 28.2744 23.9121 28.122 24.1711V23.7243H27.7006V27.3042ZM28.9802 26.0753C28.4622 26.0753 28.1068 25.7554 28.1068 25.075V25.0344C28.1068 24.3539 28.4826 24.0289 28.9751 24.0289C29.422 24.0289 29.7927 24.3641 29.7927 25.0344V25.075C29.7927 25.7199 29.5083 26.0753 28.9802 26.0753ZM30.9476 26.38H31.3691V24.9226C31.3691 24.2676 31.7093 24.1 32.2425 24.0746V23.6785C31.7652 23.6938 31.5367 23.902 31.3691 24.2016V23.7243H30.9476V26.38ZM33.9529 26.0753C33.4146 26.0753 33.0846 25.6793 33.0846 25.075V25.0344C33.0846 24.425 33.4197 24.0289 33.9529 24.0289C34.481 24.0289 34.8212 24.425 34.8212 25.0394V25.075C34.8212 25.6742 34.4861 26.0753 33.9529 26.0753ZM33.9478 26.4257C34.7044 26.4257 35.2579 25.8722 35.2579 25.0699V25.0293C35.2579 24.232 34.7044 23.6785 33.9529 23.6785C33.2014 23.6785 32.6479 24.2371 32.6479 25.0344V25.075C32.6479 25.8519 33.1912 26.4257 33.9478 26.4257ZM36.7814 26.4156C36.954 26.4156 37.0556 26.3902 37.1419 26.3597V26.0042C37.0505 26.0398 36.949 26.0601 36.8169 26.0601C36.6037 26.0601 36.4869 25.9331 36.4869 25.6742V24.0797H37.1064V23.7243H36.4869V23.12H36.0654V23.7243H35.6846V24.0797H36.0654V25.7148C36.0654 26.1312 36.299 26.4156 36.7814 26.4156ZM38.9292 26.4257C39.5284 26.4257 39.9702 26.1464 40.0616 25.6132H39.6401C39.5842 25.923 39.3456 26.0753 38.9343 26.0753C38.3909 26.0753 38.1015 25.7402 38.0812 25.1359H40.0819V24.9988C40.0819 24.0492 39.503 23.6785 38.8886 23.6785C38.1573 23.6785 37.6445 24.2371 37.6445 25.0394V25.0801C37.6445 25.8976 38.1777 26.4257 38.9292 26.4257ZM38.0964 24.7957C38.1675 24.3234 38.4569 24.0289 38.8886 24.0289C39.3253 24.0289 39.6096 24.2473 39.6503 24.7957H38.0964ZM41.894 26.4257C42.5338 26.4257 42.9959 25.9992 43.0517 25.4254H42.6607C42.615 25.857 42.2748 26.0753 41.8991 26.0753C41.3862 26.0753 41.0307 25.73 41.0307 25.0801V25.0394C41.0307 24.4148 41.4014 24.0289 41.8838 24.0289C42.2494 24.0289 42.5541 24.1863 42.6201 24.6078H43.0365C42.9553 23.9324 42.4373 23.6785 41.8838 23.6785C41.1729 23.6785 40.594 24.227 40.594 25.0394V25.0801C40.594 25.9027 41.1526 26.4257 41.894 26.4257ZM44.5589 26.4156C44.7316 26.4156 44.8331 26.3902 44.9195 26.3597V26.0042C44.8281 26.0398 44.7265 26.0601 44.5945 26.0601C44.3812 26.0601 44.2644 25.9331 44.2644 25.6742V24.0797H44.8839V23.7243H44.2644V23.12H43.8429V23.7243H43.4621V24.0797H43.8429V25.7148C43.8429 26.1312 44.0765 26.4156 44.5589 26.4156ZM47.2661 27.3042H47.6926L49.1601 23.7243H48.7285L47.9922 25.6285L47.1797 23.7243H46.7278L47.7688 26.1058L47.2661 27.3042ZM50.8112 26.0753C50.2729 26.0753 49.9429 25.6793 49.9429 25.075V25.0344C49.9429 24.425 50.278 24.0289 50.8112 24.0289C51.3393 24.0289 51.6795 24.425 51.6795 25.0394V25.075C51.6795 25.6742 51.3444 26.0753 50.8112 26.0753ZM50.8061 26.4257C51.5627 26.4257 52.1162 25.8722 52.1162 25.0699V25.0293C52.1162 24.232 51.5627 23.6785 50.8112 23.6785C50.0597 23.6785 49.5062 24.2371 49.5062 25.0344V25.075C49.5062 25.8519 50.0495 26.4257 50.8061 26.4257ZM53.7311 26.4257C54.1576 26.4257 54.4522 26.2074 54.574 25.9585V26.38H54.9955V23.7243H54.574V25.334C54.574 25.8113 54.2186 26.0601 53.8428 26.0601C53.4264 26.0601 53.2284 25.8519 53.2284 25.3847V23.7243H52.8069V25.405C52.8069 26.1363 53.203 26.4257 53.7311 26.4257ZM57.4095 26.38H57.831V24.0797H58.481V23.7243H57.831V23.2469C57.831 22.9778 57.9427 22.7899 58.2169 22.7899C58.3337 22.7899 58.4404 22.8153 58.5165 22.8458V22.4903C58.4099 22.4548 58.3388 22.4395 58.2017 22.4395C57.6736 22.4395 57.4095 22.7544 57.4095 23.2926V23.7243H57.0287V24.0797H57.4095V26.38ZM59.1371 26.38H59.5585V24.9226C59.5585 24.2676 59.8987 24.1 60.4319 24.0746V23.6785C59.9546 23.6938 59.7261 23.902 59.5585 24.2016V23.7243H59.1371V26.38ZM62.1423 26.0753C61.6041 26.0753 61.274 25.6793 61.274 25.075V25.0344C61.274 24.425 61.6091 24.0289 62.1423 24.0289C62.6704 24.0289 63.0106 24.425 63.0106 25.0394V25.075C63.0106 25.6742 62.6755 26.0753 62.1423 26.0753ZM62.1372 26.4257C62.8938 26.4257 63.4473 25.8722 63.4473 25.0699V25.0293C63.4473 24.232 62.8938 23.6785 62.1423 23.6785C61.3908 23.6785 60.8373 24.2371 60.8373 25.0344V25.075C60.8373 25.8519 61.3806 26.4257 62.1372 26.4257ZM64.1634 26.38H64.5849V24.7551C64.5849 24.2777 64.9403 24.0442 65.2856 24.0442C65.6512 24.0442 65.8493 24.2371 65.8493 24.7043V26.38H66.2707V24.7551C66.2707 24.2777 66.6262 24.0442 66.9715 24.0442C67.3371 24.0442 67.5352 24.2371 67.5352 24.7043V26.38H67.9566V24.7348C67.9566 23.9629 67.5402 23.6785 67.0629 23.6785C66.7328 23.6785 66.3368 23.8309 66.154 24.1762C66.0169 23.8207 65.7173 23.6785 65.377 23.6785C64.9962 23.6785 64.7067 23.8817 64.5849 24.1305V23.7243H64.1634V26.38ZM70.3473 26.38H70.7688V24.0797H71.4188V23.7243H70.7688V23.2469C70.7688 22.9778 70.8805 22.7899 71.1547 22.7899C71.2715 22.7899 71.3781 22.8153 71.4543 22.8458V22.4903C71.3477 22.4548 71.2766 22.4395 71.1395 22.4395C70.6114 22.4395 70.3473 22.7544 70.3473 23.2926V23.7243H69.9665V24.0797H70.3473V26.38ZM72.0749 26.38H72.4963V24.9226C72.4963 24.2676 72.8365 24.1 73.3697 24.0746V23.6785C72.8924 23.6938 72.6639 23.902 72.4963 24.2016V23.7243H72.0749V26.38ZM74.6879 26.4257C75.0789 26.4257 75.3176 26.2937 75.5156 26.0449V26.38H75.9371V24.6281C75.9371 23.8867 75.475 23.6785 74.9672 23.6785C74.4543 23.6785 73.9719 23.902 73.9161 24.5063H74.3375C74.3782 24.1813 74.5813 24.0289 74.9469 24.0289C75.3531 24.0289 75.5156 24.2067 75.5156 24.6281V24.8211H75.1348C74.4543 24.8211 73.8044 25.0293 73.8044 25.6437C73.8044 26.187 74.1954 26.4257 74.6879 26.4257ZM74.7285 26.0906C74.3578 26.0906 74.2258 25.9179 74.2258 25.6437C74.2258 25.2527 74.6168 25.1207 75.15 25.1207H75.5156V25.4507C75.5156 25.8621 75.1754 26.0906 74.7285 26.0906ZM77.7273 26.4257C78.1538 26.4257 78.4483 26.2074 78.5702 25.9585V26.38H78.9917V23.7243H78.5702V25.334C78.5702 25.8113 78.2147 26.0601 77.839 26.0601C77.4226 26.0601 77.2245 25.8519 77.2245 25.3847V23.7243H76.8031V25.405C76.8031 26.1363 77.1992 26.4257 77.7273 26.4257ZM80.9073 26.4257C81.2932 26.4257 81.6639 26.182 81.8163 25.923V26.38H82.2377V22.4548H81.8163V24.1508C81.6639 23.8918 81.3897 23.6785 80.9479 23.6785C80.2167 23.6785 79.7089 24.2524 79.7089 25.0648V25.1054C79.7089 25.9331 80.2116 26.4257 80.9073 26.4257ZM80.953 26.0753C80.5062 26.0753 80.1456 25.7554 80.1456 25.0851V25.0445C80.1456 24.3996 80.4605 24.0289 80.9886 24.0289C81.5065 24.0289 81.8315 24.3488 81.8315 25.0293V25.0699C81.8315 25.7503 81.4456 26.0753 80.953 26.0753ZM85.2266 26.4257C85.6176 26.4257 85.8563 26.2937 86.0543 26.0449V26.38H86.4758V24.6281C86.4758 23.8867 86.0137 23.6785 85.5059 23.6785C84.993 23.6785 84.5106 23.902 84.4548 24.5063H84.8762C84.9168 24.1813 85.12 24.0289 85.4856 24.0289C85.8918 24.0289 86.0543 24.2067 86.0543 24.6281V24.8211H85.6735C84.993 24.8211 84.343 25.0293 84.343 25.6437C84.343 26.187 84.734 26.4257 85.2266 26.4257ZM85.2672 26.0906C84.8965 26.0906 84.7645 25.9179 84.7645 25.6437C84.7645 25.2527 85.1555 25.1207 85.6887 25.1207H86.0543V25.4507C86.0543 25.8621 85.7141 26.0906 85.2672 26.0906ZM87.3671 26.38H87.7886V24.7703C87.7886 24.293 88.139 24.0442 88.53 24.0442C88.9565 24.0442 89.1546 24.2524 89.1546 24.7195V26.38H89.576V24.75C89.576 23.9781 89.1901 23.6785 88.6417 23.6785C88.205 23.6785 87.9105 23.8969 87.7886 24.1457V23.7243H87.3671V26.38ZM91.4658 26.4257C91.8517 26.4257 92.2224 26.182 92.3748 25.923V26.38H92.7962V22.4548H92.3748V24.1508C92.2224 23.8918 91.9482 23.6785 91.5064 23.6785C90.7752 23.6785 90.2674 24.2524 90.2674 25.0648V25.1054C90.2674 25.9331 90.7701 26.4257 91.4658 26.4257ZM91.5115 26.0753C91.0647 26.0753 90.7041 25.7554 90.7041 25.0851V25.0445C90.7041 24.3996 91.019 24.0289 91.5471 24.0289C92.065 24.0289 92.39 24.3488 92.39 25.0293V25.0699C92.39 25.7503 92.0041 26.0753 91.5115 26.0753ZM8.58221 33.38H9.00368V30.7243H8.58221V33.38ZM8.78533 30.1708C8.93766 30.1708 9.06461 30.0438 9.06461 29.8915C9.06461 29.7391 8.93766 29.6122 8.78533 29.6122C8.63299 29.6122 8.50604 29.7391 8.50604 29.8915C8.50604 30.0438 8.63299 30.1708 8.78533 30.1708ZM10.9302 33.4257C11.3161 33.4257 11.6868 33.182 11.8391 32.923V33.38H12.2606V29.4548H11.8391V31.1508C11.6868 30.8918 11.4126 30.6785 10.9708 30.6785C10.2396 30.6785 9.73176 31.2524 9.73176 32.0648V32.1054C9.73176 32.9331 10.2345 33.4257 10.9302 33.4257ZM10.9759 33.0753C10.529 33.0753 10.1685 32.7554 10.1685 32.0851V32.0445C10.1685 31.3996 10.4833 31.0289 11.0114 31.0289C11.5293 31.0289 11.8543 31.3488 11.8543 32.0293V32.0699C11.8543 32.7503 11.4684 33.0753 10.9759 33.0753ZM14.2636 33.4257C14.8628 33.4257 15.3045 33.1464 15.3959 32.6132H14.9745C14.9186 32.923 14.68 33.0753 14.2687 33.0753C13.7253 33.0753 13.4359 32.7402 13.4156 32.1359H15.4163V31.9988C15.4163 31.0492 14.8374 30.6785 14.2229 30.6785C13.4917 30.6785 12.9789 31.2371 12.9789 32.0394V32.0801C12.9789 32.8976 13.512 33.4257 14.2636 33.4257ZM13.4308 31.7957C13.5019 31.3234 13.7913 31.0289 14.2229 31.0289C14.6597 31.0289 14.944 31.2473 14.9846 31.7957H13.4308ZM16.1265 33.38H16.5479V31.7703C16.5479 31.293 16.8983 31.0442 17.2893 31.0442C17.7158 31.0442 17.9139 31.2524 17.9139 31.7195V33.38H18.3354V31.75C18.3354 30.9781 17.9494 30.6785 17.401 30.6785C16.9643 30.6785 16.6698 30.8969 16.5479 31.1457V30.7243H16.1265V33.38ZM20.0322 33.4156C20.2048 33.4156 20.3064 33.3902 20.3927 33.3597V33.0042C20.3013 33.0398 20.1997 33.0601 20.0677 33.0601C19.8544 33.0601 19.7377 32.9331 19.7377 32.6742V31.0797H20.3572V30.7243H19.7377V30.12H19.3162V30.7243H18.9353V31.0797H19.3162V32.7148C19.3162 33.1312 19.5498 33.4156 20.0322 33.4156ZM21.1035 33.38H21.5249V30.7243H21.1035V33.38ZM21.3066 30.1708C21.4589 30.1708 21.5859 30.0438 21.5859 29.8915C21.5859 29.7391 21.4589 29.6122 21.3066 29.6122C21.1542 29.6122 21.0273 29.7391 21.0273 29.8915C21.0273 30.0438 21.1542 30.1708 21.3066 30.1708ZM23.2584 33.4156C23.4311 33.4156 23.5326 33.3902 23.619 33.3597V33.0042C23.5276 33.0398 23.426 33.0601 23.294 33.0601C23.0807 33.0601 22.9639 32.9331 22.9639 32.6742V31.0797H23.5834V30.7243H22.9639V30.12H22.5425V30.7243H22.1616V31.0797H22.5425V32.7148C22.5425 33.1312 22.776 33.4156 23.2584 33.4156ZM24.5582 34.3042H24.9848L26.4523 30.7243H26.0207L25.2844 32.6285L24.4719 30.7243H24.02L25.0609 33.1058L24.5582 34.3042ZM29.2855 33.4156C29.4581 33.4156 29.5597 33.3902 29.646 33.3597V33.0042C29.5546 33.0398 29.4531 33.0601 29.321 33.0601C29.1078 33.0601 28.991 32.9331 28.991 32.6742V31.0797H29.6105V30.7243H28.991V30.12H28.5695V30.7243H28.1887V31.0797H28.5695V32.7148C28.5695 33.1312 28.8031 33.4156 29.2855 33.4156ZM30.3466 33.38H30.7681V31.7703C30.7681 31.293 31.1185 31.0442 31.5095 31.0442C31.936 31.0442 32.1341 31.2524 32.1341 31.7195V33.38H32.5555V31.75C32.5555 30.9781 32.1696 30.6785 31.6212 30.6785C31.1845 30.6785 30.89 30.8969 30.7681 31.1457V29.4548H30.3466V33.38ZM34.5316 33.4257C35.1308 33.4257 35.5726 33.1464 35.664 32.6132H35.2425C35.1867 32.923 34.948 33.0753 34.5367 33.0753C33.9934 33.0753 33.7039 32.7402 33.6836 32.1359H35.6843V31.9988C35.6843 31.0492 35.1054 30.6785 34.491 30.6785C33.7598 30.6785 33.2469 31.2371 33.2469 32.0394V32.0801C33.2469 32.8976 33.7801 33.4257 34.5316 33.4257ZM33.6988 31.7957C33.7699 31.3234 34.0594 31.0289 34.491 31.0289C34.9277 31.0289 35.2121 31.2473 35.2527 31.7957H33.6988ZM36.4859 33.38H36.9074V31.0797H37.5574V30.7243H36.9074V30.2469C36.9074 29.9778 37.0191 29.7899 37.2933 29.7899C37.4101 29.7899 37.5167 29.8153 37.5929 29.8458V29.4903C37.4863 29.4548 37.4152 29.4395 37.2781 29.4395C36.75 29.4395 36.4859 29.7544 36.4859 30.2926V30.7243H36.1051V31.0797H36.4859V33.38ZM39.0456 33.4156C39.2183 33.4156 39.3198 33.3902 39.4062 33.3597V33.0042C39.3148 33.0398 39.2132 33.0601 39.0812 33.0601C38.8679 33.0601 38.7511 32.9331 38.7511 32.6742V31.0797H39.3706V30.7243H38.7511V30.12H38.3296V30.7243H37.9488V31.0797H38.3296V32.7148C38.3296 33.1312 38.5632 33.4156 39.0456 33.4156ZM40.1372 34.0046L40.7618 32.9433L40.3505 32.7503L39.863 33.8624L40.1372 34.0046ZM43.6759 33.4257C44.0669 33.4257 44.3056 33.2937 44.5036 33.0449V33.38H44.9251V31.6281C44.9251 30.8867 44.463 30.6785 43.9552 30.6785C43.4423 30.6785 42.9599 30.902 42.904 31.5063H43.3255C43.3661 31.1813 43.5693 31.0289 43.9349 31.0289C44.3411 31.0289 44.5036 31.2067 44.5036 31.6281V31.8211H44.1227C43.4423 31.8211 42.7923 32.0293 42.7923 32.6437C42.7923 33.187 43.1833 33.4257 43.6759 33.4257ZM43.7165 33.0906C43.3458 33.0906 43.2138 32.9179 43.2138 32.6437C43.2138 32.2527 43.6048 32.1207 44.138 32.1207H44.5036V32.4507C44.5036 32.8621 44.1634 33.0906 43.7165 33.0906ZM45.8164 33.38H46.2379V31.7703C46.2379 31.293 46.5883 31.0442 46.9793 31.0442C47.4058 31.0442 47.6039 31.2524 47.6039 31.7195V33.38H48.0253V31.75C48.0253 30.9781 47.6394 30.6785 47.091 30.6785C46.6543 30.6785 46.3598 30.8969 46.2379 31.1457V30.7243H45.8164V33.38ZM49.9151 33.4257C50.301 33.4257 50.6717 33.182 50.8241 32.923V33.38H51.2455V29.4548H50.8241V31.1508C50.6717 30.8918 50.3975 30.6785 49.9557 30.6785C49.2245 30.6785 48.7167 31.2524 48.7167 32.0648V32.1054C48.7167 32.9331 49.2194 33.4257 49.9151 33.4257ZM49.9608 33.0753C49.514 33.0753 49.1534 32.7554 49.1534 32.0851V32.0445C49.1534 31.3996 49.4683 31.0289 49.9964 31.0289C50.5143 31.0289 50.8393 31.3488 50.8393 32.0293V32.0699C50.8393 32.7503 50.4534 33.0753 49.9608 33.0753ZM54.3766 33.4156C54.5492 33.4156 54.6508 33.3902 54.7371 33.3597V33.0042C54.6457 33.0398 54.5442 33.0601 54.4121 33.0601C54.1989 33.0601 54.0821 32.9331 54.0821 32.6742V31.0797H54.7016V30.7243H54.0821V30.12H53.6606V30.7243H53.2798V31.0797H53.6606V32.7148C53.6606 33.1312 53.8942 33.4156 54.3766 33.4156ZM56.5447 33.0753C56.0064 33.0753 55.6764 32.6793 55.6764 32.075V32.0344C55.6764 31.425 56.0115 31.0289 56.5447 31.0289C57.0728 31.0289 57.413 31.425 57.413 32.0394V32.075C57.413 32.6742 57.0779 33.0753 56.5447 33.0753ZM56.5396 33.4257C57.2962 33.4257 57.8497 32.8722 57.8497 32.0699V32.0293C57.8497 31.232 57.2962 30.6785 56.5447 30.6785C55.7932 30.6785 55.2397 31.2371 55.2397 32.0344V32.075C55.2397 32.8519 55.783 33.4257 56.5396 33.4257ZM61.075 33.4257C61.7149 33.4257 62.1769 32.9992 62.2328 32.4254H61.8418C61.7961 32.857 61.4559 33.0753 61.0801 33.0753C60.5672 33.0753 60.2118 32.73 60.2118 32.0801V32.0394C60.2118 31.4148 60.5825 31.0289 61.0649 31.0289C61.4305 31.0289 61.7352 31.1863 61.8012 31.6078H62.2176C62.1363 30.9324 61.6184 30.6785 61.0649 30.6785C60.354 30.6785 59.7751 31.227 59.7751 32.0394V32.0801C59.7751 32.9027 60.3337 33.4257 61.075 33.4257ZM64.0396 33.0753C63.5013 33.0753 63.1713 32.6793 63.1713 32.075V32.0344C63.1713 31.425 63.5064 31.0289 64.0396 31.0289C64.5677 31.0289 64.9079 31.425 64.9079 32.0394V32.075C64.9079 32.6742 64.5728 33.0753 64.0396 33.0753ZM64.0345 33.4257C64.7911 33.4257 65.3446 32.8722 65.3446 32.0699V32.0293C65.3446 31.232 64.7911 30.6785 64.0396 30.6785C63.2881 30.6785 62.7346 31.2371 62.7346 32.0344V32.075C62.7346 32.8519 63.2779 33.4257 64.0345 33.4257ZM66.0607 33.38H66.4822V31.7551C66.4822 31.2777 66.8376 31.0442 67.1829 31.0442C67.5485 31.0442 67.7466 31.2371 67.7466 31.7043V33.38H68.168V31.7551C68.168 31.2777 68.5235 31.0442 68.8688 31.0442C69.2344 31.0442 69.4324 31.2371 69.4324 31.7043V33.38H69.8539V31.7348C69.8539 30.9629 69.4375 30.6785 68.9602 30.6785C68.6301 30.6785 68.234 30.8309 68.0512 31.1762C67.9141 30.8207 67.6145 30.6785 67.2743 30.6785C66.8935 30.6785 66.604 30.8817 66.4822 31.1305V30.7243H66.0607V33.38ZM70.7459 34.3042H71.1673V32.9433C71.3197 33.2074 71.6294 33.4257 72.0661 33.4257C72.7973 33.4257 73.2747 32.8671 73.2747 32.0547V32.014C73.2747 31.1863 72.7618 30.6785 72.0661 30.6785C71.6802 30.6785 71.3197 30.9121 71.1673 31.1711V30.7243H70.7459V34.3042ZM72.0255 33.0753C71.5076 33.0753 71.1521 32.7554 71.1521 32.075V32.0344C71.1521 31.3539 71.5279 31.0289 72.0204 31.0289C72.4673 31.0289 72.838 31.3641 72.838 32.0344V32.075C72.838 32.7199 72.5536 33.0753 72.0255 33.0753ZM74.0031 33.38H74.4297V29.4548H74.0031V33.38ZM75.5943 34.3042H76.0209L77.4884 30.7243H77.0568L76.3205 32.6285L75.508 30.7243H75.0561L76.097 33.1058L75.5943 34.3042ZM80.0474 33.38H80.5095L81.129 31.3895L81.6825 33.38H82.1496L82.9774 30.7243H82.5457L81.9211 32.8621L81.3169 30.7243H80.9513L80.3064 32.8621L79.6869 30.7243H79.2298L80.0474 33.38ZM83.6194 33.38H84.0409V30.7243H83.6194V33.38ZM83.8225 30.1708C83.9749 30.1708 84.1018 30.0438 84.1018 29.8915C84.1018 29.7391 83.9749 29.6122 83.8225 29.6122C83.6702 29.6122 83.5433 29.7391 83.5433 29.8915C83.5433 30.0438 83.6702 30.1708 83.8225 30.1708ZM85.7744 33.4156C85.9471 33.4156 86.0486 33.3902 86.135 33.3597V33.0042C86.0436 33.0398 85.942 33.0601 85.81 33.0601C85.5967 33.0601 85.4799 32.9331 85.4799 32.6742V31.0797H86.0994V30.7243H85.4799V30.12H85.0584V30.7243H84.6776V31.0797H85.0584V32.7148C85.0584 33.1312 85.292 33.4156 85.7744 33.4156ZM86.8355 33.38H87.257V31.7703C87.257 31.293 87.6074 31.0442 87.9984 31.0442C88.4249 31.0442 88.623 31.2524 88.623 31.7195V33.38H89.0444V31.75C89.0444 30.9781 88.6585 30.6785 88.1101 30.6785C87.6734 30.6785 87.3789 30.8969 87.257 31.1457V29.4548H86.8355V33.38ZM91.4326 33.38H91.8541V31.0797H92.5041V30.7243H91.8541V30.2469C91.8541 29.9778 91.9658 29.7899 92.24 29.7899C92.3568 29.7899 92.4634 29.8153 92.5396 29.8458V29.4903C92.433 29.4548 92.3619 29.4395 92.2248 29.4395C91.6967 29.4395 91.4326 29.7544 91.4326 30.2926V30.7243H91.0518V31.0797H91.4326V33.38ZM94.1179 33.4257C94.7171 33.4257 95.1589 33.1464 95.2503 32.6132H94.8288C94.7729 32.923 94.5343 33.0753 94.123 33.0753C93.5796 33.0753 93.2902 32.7402 93.2699 32.1359H95.2706V31.9988C95.2706 31.0492 94.6917 30.6785 94.0773 30.6785C93.346 30.6785 92.8332 31.2371 92.8332 32.0394V32.0801C92.8332 32.8976 93.3663 33.4257 94.1179 33.4257ZM93.2851 31.7957C93.3562 31.3234 93.6456 31.0289 94.0773 31.0289C94.514 31.0289 94.7983 31.2473 94.8389 31.7957H93.2851ZM96.9811 33.4257C97.367 33.4257 97.7377 33.182 97.8901 32.923V33.38H98.3115V29.4548H97.8901V31.1508C97.7377 30.8918 97.4635 30.6785 97.0217 30.6785C96.2905 30.6785 95.7827 31.2524 95.7827 32.0648V32.1054C95.7827 32.9331 96.2854 33.4257 96.9811 33.4257ZM97.0268 33.0753C96.58 33.0753 96.2194 32.7554 96.2194 32.0851V32.0445C96.2194 31.3996 96.5343 31.0289 97.0624 31.0289C97.5803 31.0289 97.9053 31.3488 97.9053 32.0293V32.0699C97.9053 32.7503 97.5194 33.0753 97.0268 33.0753ZM100.315 33.4257C100.914 33.4257 101.356 33.1464 101.447 32.6132H101.025C100.97 32.923 100.731 33.0753 100.32 33.0753C99.7763 33.0753 99.4868 32.7402 99.4665 32.1359H101.467V31.9988C101.467 31.0492 100.888 30.6785 100.274 30.6785C99.5427 30.6785 99.0298 31.2371 99.0298 32.0394V32.0801C99.0298 32.8976 99.563 33.4257 100.315 33.4257ZM99.4818 31.7957C99.5528 31.3234 99.8423 31.0289 100.274 31.0289C100.711 31.0289 100.995 31.2473 101.036 31.7957H99.4818ZM102.177 33.38H102.599V31.9226C102.599 31.2676 102.939 31.1 103.472 31.0746V30.6785C102.995 30.6938 102.766 30.902 102.599 31.2016V30.7243H102.177V33.38ZM104.79 33.4257C105.181 33.4257 105.42 33.2937 105.618 33.0449V33.38H106.04V31.6281C106.04 30.8867 105.578 30.6785 105.07 30.6785C104.557 30.6785 104.074 30.902 104.019 31.5063H104.44C104.481 31.1813 104.684 31.0289 105.049 31.0289C105.456 31.0289 105.618 31.2067 105.618 31.6281V31.8211H105.237C104.557 31.8211 103.907 32.0293 103.907 32.6437C103.907 33.187 104.298 33.4257 104.79 33.4257ZM104.831 33.0906C104.46 33.0906 104.328 32.9179 104.328 32.6437C104.328 32.2527 104.719 32.1207 105.253 32.1207H105.618V32.4507C105.618 32.8621 105.278 33.0906 104.831 33.0906ZM106.941 33.38H107.368V29.4548H106.941V33.38ZM8.57205 41.38H8.99352V39.9226C8.99352 39.2676 9.33374 39.1 9.86692 39.0746V38.6785C9.3896 38.6938 9.16109 38.902 8.99352 39.2016V38.7243H8.57205V41.38ZM11.557 41.4257C12.1562 41.4257 12.598 41.1464 12.6894 40.6132H12.2679C12.2121 40.923 11.9734 41.0753 11.5621 41.0753C11.0187 41.0753 10.7293 40.7402 10.709 40.1359H12.7097V39.9988C12.7097 39.0492 12.1308 38.6785 11.5164 38.6785C10.7852 38.6785 10.2723 39.2371 10.2723 40.0394V40.0801C10.2723 40.8976 10.8055 41.4257 11.557 41.4257ZM10.7242 39.7957C10.7953 39.3234 11.0848 39.0289 11.5164 39.0289C11.9531 39.0289 12.2374 39.2473 12.2781 39.7957H10.7242ZM14.4812 42.3499C15.2225 42.3499 15.7456 41.9741 15.7506 41.2023V38.7243H15.3292V39.1508C15.1768 38.8918 14.9026 38.6785 14.4609 38.6785C13.7296 38.6785 13.2218 39.2777 13.2218 39.9988V40.0344C13.2218 40.7656 13.7347 41.2937 14.4304 41.2937C14.8163 41.2937 15.1768 41.0499 15.3292 40.791V41.1769C15.3292 41.7456 14.9991 41.9944 14.4761 41.9944C14.0242 41.9944 13.7703 41.837 13.7093 41.5323H13.2777C13.3488 41.9792 13.6941 42.3499 14.4812 42.3499ZM14.4761 40.9433C14.0292 40.9433 13.6585 40.598 13.6585 40.0191V39.9785C13.6585 39.4199 13.9734 39.0289 14.5015 39.0289C15.0194 39.0289 15.3444 39.3742 15.3444 39.9683V40.0039C15.3444 40.598 14.9686 40.9433 14.4761 40.9433ZM17.5658 41.4257C17.9923 41.4257 18.2868 41.2074 18.4087 40.9585V41.38H18.8302V38.7243H18.4087V40.334C18.4087 40.8113 18.0533 41.0601 17.6775 41.0601C17.2611 41.0601 17.0631 40.8519 17.0631 40.3847V38.7243H16.6416V40.405C16.6416 41.1363 17.0377 41.4257 17.5658 41.4257ZM19.7556 41.38H20.1822V37.4548H19.7556V41.38ZM21.7734 41.4257C22.1644 41.4257 22.403 41.2937 22.6011 41.0449V41.38H23.0226V39.6281C23.0226 38.8867 22.5605 38.6785 22.0527 38.6785C21.5398 38.6785 21.0574 38.902 21.0015 39.5063H21.423C21.4636 39.1813 21.6667 39.0289 22.0324 39.0289C22.4386 39.0289 22.6011 39.2067 22.6011 39.6281V39.8211H22.2202C21.5398 39.8211 20.8898 40.0293 20.8898 40.6437C20.8898 41.187 21.2808 41.4257 21.7734 41.4257ZM21.814 41.0906C21.4433 41.0906 21.3113 40.9179 21.3113 40.6437C21.3113 40.2527 21.7023 40.1207 22.2355 40.1207H22.6011V40.4507C22.6011 40.8621 22.2609 41.0906 21.814 41.0906ZM24.7213 41.4156C24.894 41.4156 24.9955 41.3902 25.0818 41.3597V41.0042C24.9904 41.0398 24.8889 41.0601 24.7569 41.0601C24.5436 41.0601 24.4268 40.9331 24.4268 40.6742V39.0797H25.0463V38.7243H24.4268V38.12H24.0053V38.7243H23.6245V39.0797H24.0053V40.7148C24.0053 41.1312 24.2389 41.4156 24.7213 41.4156ZM25.7926 41.38H26.2141V38.7243H25.7926V41.38ZM25.9957 38.1708C26.1481 38.1708 26.275 38.0438 26.275 37.8915C26.275 37.7391 26.1481 37.6122 25.9957 37.6122C25.8434 37.6122 25.7164 37.7391 25.7164 37.8915C25.7164 38.0438 25.8434 38.1708 25.9957 38.1708ZM28.2472 41.0753C27.7089 41.0753 27.3789 40.6793 27.3789 40.075V40.0344C27.3789 39.425 27.714 39.0289 28.2472 39.0289C28.7753 39.0289 29.1155 39.425 29.1155 40.0394V40.075C29.1155 40.6742 28.7804 41.0753 28.2472 41.0753ZM28.2421 41.4257C28.9987 41.4257 29.5522 40.8722 29.5522 40.0699V40.0293C29.5522 39.232 28.9987 38.6785 28.2472 38.6785C27.4956 38.6785 26.9422 39.2371 26.9422 40.0344V40.075C26.9422 40.8519 27.4855 41.4257 28.2421 41.4257ZM30.2683 41.38H30.6897V39.7703C30.6897 39.293 31.0401 39.0442 31.4311 39.0442C31.8577 39.0442 32.0557 39.2524 32.0557 39.7195V41.38H32.4772V39.75C32.4772 38.9781 32.0912 38.6785 31.5428 38.6785C31.1061 38.6785 30.8116 38.8969 30.6897 39.1457V38.7243H30.2683V41.38ZM34.1892 41.4257C34.8341 41.4257 35.1642 41.1007 35.1642 40.6183C35.1642 40.0547 34.7783 39.9328 34.2298 39.8312C33.7424 39.7449 33.6103 39.6484 33.6103 39.4098C33.6103 39.1813 33.8084 39.0289 34.1131 39.0289C34.4482 39.0289 34.6107 39.1559 34.6716 39.4453H35.0779C35.0068 38.8715 34.5955 38.6785 34.1181 38.6785C33.7017 38.6785 33.2193 38.9324 33.2193 39.425C33.2193 39.8871 33.4529 40.0801 34.1435 40.207C34.5548 40.2832 34.763 40.3746 34.763 40.6539C34.763 40.9382 34.5853 41.0753 34.1841 41.0753C33.7576 41.0753 33.59 40.8773 33.5596 40.5625H33.1482C33.1736 41.1058 33.5545 41.4257 34.1892 41.4257ZM35.9003 42.0046L36.5249 40.9433L36.1136 40.7503L35.6261 41.8624L35.9003 42.0046ZM39.307 41.38H39.7691L40.3886 39.3895L40.9421 41.38H41.4092L42.2369 38.7243H41.8053L41.1807 40.8621L40.5765 38.7243H40.2108L39.5659 40.8621L38.9464 38.7243H38.4894L39.307 41.38ZM43.9059 41.4257C44.5051 41.4257 44.9469 41.1464 45.0383 40.6132H44.6169C44.561 40.923 44.3223 41.0753 43.911 41.0753C43.3677 41.0753 43.0782 40.7402 43.0579 40.1359H45.0586V39.9988C45.0586 39.0492 44.4798 38.6785 43.8653 38.6785C43.1341 38.6785 42.6212 39.2371 42.6212 40.0394V40.0801C42.6212 40.8976 43.1544 41.4257 43.9059 41.4257ZM43.0732 39.7957C43.1443 39.3234 43.4337 39.0289 43.8653 39.0289C44.302 39.0289 44.5864 39.2473 44.627 39.7957H43.0732ZM47.1762 41.38H47.5976V39.7703C47.5976 39.293 47.948 39.0442 48.339 39.0442C48.7656 39.0442 48.9636 39.2524 48.9636 39.7195V41.38H49.3851V39.75C49.3851 38.9781 48.9991 38.6785 48.4507 38.6785C48.014 38.6785 47.7195 38.8969 47.5976 39.1457V38.7243H47.1762V41.38ZM51.3612 41.4257C51.9604 41.4257 52.4021 41.1464 52.4936 40.6132H52.0721C52.0162 40.923 51.7776 41.0753 51.3663 41.0753C50.8229 41.0753 50.5335 40.7402 50.5132 40.1359H52.5139V39.9988C52.5139 39.0492 51.935 38.6785 51.3206 38.6785C50.5893 38.6785 50.0765 39.2371 50.0765 40.0394V40.0801C50.0765 40.8976 50.6096 41.4257 51.3612 41.4257ZM50.5284 39.7957C50.5995 39.3234 50.8889 39.0289 51.3206 39.0289C51.7573 39.0289 52.0416 39.2473 52.0822 39.7957H50.5284ZM54.3107 41.4257C54.9099 41.4257 55.3517 41.1464 55.4431 40.6132H55.0216C54.9658 40.923 54.7271 41.0753 54.3158 41.0753C53.7725 41.0753 53.483 40.7402 53.4627 40.1359H55.4634V39.9988C55.4634 39.0492 54.8845 38.6785 54.2701 38.6785C53.5389 38.6785 53.026 39.2371 53.026 40.0394V40.0801C53.026 40.8976 53.5592 41.4257 54.3107 41.4257ZM53.478 39.7957C53.549 39.3234 53.8385 39.0289 54.2701 39.0289C54.7068 39.0289 54.9912 39.2473 55.0318 39.7957H53.478ZM57.174 41.4257C57.5599 41.4257 57.9306 41.182 58.0829 40.923V41.38H58.5044V37.4548H58.0829V39.1508C57.9306 38.8918 57.6564 38.6785 57.2146 38.6785C56.4834 38.6785 55.9756 39.2524 55.9756 40.0648V40.1054C55.9756 40.9331 56.4783 41.4257 57.174 41.4257ZM57.2197 41.0753C56.7728 41.0753 56.4123 40.7554 56.4123 40.0851V40.0445C56.4123 39.3996 56.7271 39.0289 57.2552 39.0289C57.7732 39.0289 58.0981 39.3488 58.0981 40.0293V40.0699C58.0981 40.7503 57.7122 41.0753 57.2197 41.0753ZM61.6507 41.4257C62.2956 41.4257 62.6256 41.1007 62.6256 40.6183C62.6256 40.0547 62.2397 39.9328 61.6913 39.8312C61.2038 39.7449 61.0718 39.6484 61.0718 39.4098C61.0718 39.1813 61.2698 39.0289 61.5745 39.0289C61.9096 39.0289 62.0721 39.1559 62.1331 39.4453H62.5393C62.4682 38.8715 62.0569 38.6785 61.5796 38.6785C61.1632 38.6785 60.6808 38.9324 60.6808 39.425C60.6808 39.8871 60.9144 40.0801 61.605 40.207C62.0163 40.2832 62.2245 40.3746 62.2245 40.6539C62.2245 40.9382 62.0468 41.0753 61.6456 41.0753C61.2191 41.0753 61.0515 40.8773 61.021 40.5625H60.6097C60.6351 41.1058 61.0159 41.4257 61.6507 41.4257ZM64.4383 41.0753C63.9 41.0753 63.57 40.6793 63.57 40.075V40.0344C63.57 39.425 63.9051 39.0289 64.4383 39.0289C64.9664 39.0289 65.3066 39.425 65.3066 40.0394V40.075C65.3066 40.6742 64.9715 41.0753 64.4383 41.0753ZM64.4332 41.4257C65.1898 41.4257 65.7433 40.8722 65.7433 40.0699V40.0293C65.7433 39.232 65.1898 38.6785 64.4383 38.6785C63.6868 38.6785 63.1333 39.2371 63.1333 40.0344V40.075C63.1333 40.8519 63.6766 41.4257 64.4332 41.4257ZM66.4594 41.38H66.8809V39.7551C66.8809 39.2777 67.2363 39.0442 67.5816 39.0442C67.9472 39.0442 68.1453 39.2371 68.1453 39.7043V41.38H68.5667V39.7551C68.5667 39.2777 68.9222 39.0442 69.2675 39.0442C69.6331 39.0442 69.8311 39.2371 69.8311 39.7043V41.38H70.2526V39.7348C70.2526 38.9629 69.8362 38.6785 69.3589 38.6785C69.0288 38.6785 68.6327 38.8309 68.4499 39.1762C68.3128 38.8207 68.0132 38.6785 67.673 38.6785C67.2922 38.6785 67.0027 38.8817 66.8809 39.1305V38.7243H66.4594V41.38ZM72.2312 41.4257C72.8304 41.4257 73.2722 41.1464 73.3636 40.6132H72.9422C72.8863 40.923 72.6476 41.0753 72.2363 41.0753C71.693 41.0753 71.4035 40.7402 71.3832 40.1359H73.3839V39.9988C73.3839 39.0492 72.805 38.6785 72.1906 38.6785C71.4594 38.6785 70.9465 39.2371 70.9465 40.0394V40.0801C70.9465 40.8976 71.4797 41.4257 72.2312 41.4257ZM71.3985 39.7957C71.4696 39.3234 71.759 39.0289 72.1906 39.0289C72.6273 39.0289 72.9117 39.2473 72.9523 39.7957H71.3985ZM75.5116 41.38H75.9331V38.7243H75.5116V41.38ZM75.7147 38.1708C75.8671 38.1708 75.994 38.0438 75.994 37.8915C75.994 37.7391 75.8671 37.6122 75.7147 37.6122C75.5624 37.6122 75.4355 37.7391 75.4355 37.8915C75.4355 38.0438 75.5624 38.1708 75.7147 38.1708ZM76.8592 41.38H77.2807V39.7703C77.2807 39.293 77.6311 39.0442 78.0221 39.0442C78.4486 39.0442 78.6466 39.2524 78.6466 39.7195V41.38H79.0681V39.75C79.0681 38.9781 78.6822 38.6785 78.1338 38.6785C77.6971 38.6785 77.4026 38.8969 77.2807 39.1457V38.7243H76.8592V41.38ZM80.0489 41.38H80.4704V39.0797H81.1204V38.7243H80.4704V38.2469C80.4704 37.9778 80.5821 37.7899 80.8563 37.7899C80.9731 37.7899 81.0798 37.8153 81.1559 37.8458V37.4903C81.0493 37.4548 80.9782 37.4395 80.8411 37.4395C80.313 37.4395 80.0489 37.7544 80.0489 38.2926V38.7243H79.6681V39.0797H80.0489V41.38ZM82.7545 41.0753C82.2163 41.0753 81.8862 40.6793 81.8862 40.075V40.0344C81.8862 39.425 82.2213 39.0289 82.7545 39.0289C83.2826 39.0289 83.6228 39.425 83.6228 40.0394V40.075C83.6228 40.6742 83.2877 41.0753 82.7545 41.0753ZM82.7494 41.4257C83.5061 41.4257 84.0595 40.8722 84.0595 40.0699V40.0293C84.0595 39.232 83.5061 38.6785 82.7545 38.6785C82.003 38.6785 81.4495 39.2371 81.4495 40.0344V40.075C81.4495 40.8519 81.9928 41.4257 82.7494 41.4257ZM86.1931 41.38H86.6146V38.7243H86.1931V41.38ZM86.3962 38.1708C86.5486 38.1708 86.6755 38.0438 86.6755 37.8915C86.6755 37.7391 86.5486 37.6122 86.3962 37.6122C86.2439 37.6122 86.1169 37.7391 86.1169 37.8915C86.1169 38.0438 86.2439 38.1708 86.3962 38.1708ZM87.5407 41.38H87.9622V39.7703C87.9622 39.293 88.3125 39.0442 88.7035 39.0442C89.1301 39.0442 89.3281 39.2524 89.3281 39.7195V41.38H89.7496V39.75C89.7496 38.9781 89.3637 38.6785 88.8153 38.6785C88.3786 38.6785 88.084 38.8969 87.9622 39.1457V38.7243H87.5407V41.38ZM91.7409 41.4257C92.3808 41.4257 92.8429 40.9992 92.8987 40.4254H92.5077C92.462 40.857 92.1218 41.0753 91.746 41.0753C91.2331 41.0753 90.8777 40.73 90.8777 40.0801V40.0394C90.8777 39.4148 91.2484 39.0289 91.7308 39.0289C92.0964 39.0289 92.4011 39.1863 92.4671 39.6078H92.8835C92.8022 38.9324 92.2843 38.6785 91.7308 38.6785C91.0199 38.6785 90.441 39.227 90.441 40.0394V40.0801C90.441 40.9027 90.9996 41.4257 91.7409 41.4257ZM93.6087 41.38H94.0352V37.4548H93.6087V41.38ZM95.86 41.4257C96.2866 41.4257 96.5811 41.2074 96.7029 40.9585V41.38H97.1244V38.7243H96.7029V40.334C96.7029 40.8113 96.3475 41.0601 95.9717 41.0601C95.5553 41.0601 95.3573 40.8519 95.3573 40.3847V38.7243H94.9358V40.405C94.9358 41.1363 95.3319 41.4257 95.86 41.4257ZM99.04 41.4257C99.426 41.4257 99.7967 41.182 99.949 40.923V41.38H100.37V37.4548H99.949V39.1508C99.7967 38.8918 99.5225 38.6785 99.0807 38.6785C98.3495 38.6785 97.8417 39.2524 97.8417 40.0648V40.1054C97.8417 40.9331 98.3444 41.4257 99.04 41.4257ZM99.0857 41.0753C98.6389 41.0753 98.2784 40.7554 98.2784 40.0851V40.0445C98.2784 39.3996 98.5932 39.0289 99.1213 39.0289C99.6392 39.0289 99.9642 39.3488 99.9642 40.0293V40.0699C99.9642 40.7503 99.5783 41.0753 99.0857 41.0753ZM101.297 41.38H101.718V38.7243H101.297V41.38ZM101.5 38.1708C101.652 38.1708 101.779 38.0438 101.779 37.8915C101.779 37.7391 101.652 37.6122 101.5 37.6122C101.348 37.6122 101.221 37.7391 101.221 37.8915C101.221 38.0438 101.348 38.1708 101.5 38.1708ZM102.645 41.38H103.066V39.7703C103.066 39.293 103.416 39.0442 103.807 39.0442C104.234 39.0442 104.432 39.2524 104.432 39.7195V41.38H104.853V39.75C104.853 38.9781 104.468 38.6785 103.919 38.6785C103.482 38.6785 103.188 38.8969 103.066 39.1457V38.7243H102.645V41.38ZM106.804 42.3499C107.546 42.3499 108.069 41.9741 108.074 41.2023V38.7243H107.652V39.1508C107.5 38.8918 107.226 38.6785 106.784 38.6785C106.053 38.6785 105.545 39.2777 105.545 39.9988V40.0344C105.545 40.7656 106.058 41.2937 106.753 41.2937C107.139 41.2937 107.5 41.0499 107.652 40.791V41.1769C107.652 41.7456 107.322 41.9944 106.799 41.9944C106.347 41.9944 106.093 41.837 106.032 41.5323H105.601C105.672 41.9792 106.017 42.3499 106.804 42.3499ZM106.799 40.9433C106.352 40.9433 105.982 40.598 105.982 40.0191V39.9785C105.982 39.4199 106.296 39.0289 106.824 39.0289C107.342 39.0289 107.667 39.3742 107.667 39.9683V40.0039C107.667 40.598 107.292 40.9433 106.799 40.9433ZM109.305 41.4054C109.483 41.4054 109.63 41.2632 109.63 41.0804C109.63 40.8976 109.483 40.7554 109.305 40.7554C109.127 40.7554 108.98 40.8976 108.98 41.0804C108.98 41.2632 109.127 41.4054 109.305 41.4054ZM109.305 39.8973C109.483 39.8973 109.63 39.7551 109.63 39.5723C109.63 39.3895 109.483 39.2473 109.305 39.2473C109.127 39.2473 108.98 39.3895 108.98 39.5723C108.98 39.7551 109.127 39.8973 109.305 39.8973Z" fill="#707070"/>
<path d="M14.5957 75.8924C14.8934 75.8924 15.1111 75.6613 15.1111 75.377C15.1111 75.0926 14.8934 74.8615 14.5957 74.8615C14.3025 74.8615 14.0803 75.0926 14.0803 75.377C14.0803 75.6613 14.3025 75.8924 14.5957 75.8924Z" fill="#707070"/>
<path d="M21.2031 76.2842H23.3054V75.9236H21.6449V72.6535H21.2031V76.2842ZM24.9907 76.3299C25.5899 76.3299 26.0317 76.0506 26.1231 75.5174H25.7016C25.6457 75.8272 25.4071 75.9795 24.9958 75.9795C24.4524 75.9795 24.163 75.6444 24.1427 75.0401H26.1434V74.903C26.1434 73.9534 25.5645 73.5827 24.9501 73.5827C24.2188 73.5827 23.706 74.1413 23.706 74.9436V74.9842C23.706 75.8018 24.2391 76.3299 24.9907 76.3299ZM24.1579 74.6999C24.229 74.2276 24.5184 73.9331 24.9501 73.9331C25.3868 73.9331 25.6711 74.1515 25.7117 74.6999H24.1579ZM27.9149 77.2541C28.6562 77.2541 29.1793 76.8783 29.1843 76.1065V73.6284H28.7629V74.055C28.6105 73.796 28.3363 73.5827 27.8945 73.5827C27.1633 73.5827 26.6555 74.1819 26.6555 74.903V74.9385C26.6555 75.6698 27.1684 76.1979 27.8641 76.1979C28.25 76.1979 28.6105 75.9541 28.7629 75.6951V76.0811C28.7629 76.6498 28.4328 76.8986 27.9098 76.8986C27.4578 76.8986 27.2039 76.7412 27.143 76.4365H26.7114C26.7825 76.8834 27.1278 77.2541 27.9149 77.2541ZM27.9098 75.8475C27.4629 75.8475 27.0922 75.5022 27.0922 74.9233V74.8827C27.0922 74.3241 27.4071 73.9331 27.9352 73.9331C28.4531 73.9331 28.7781 74.2784 28.7781 74.8725V74.9081C28.7781 75.5022 28.4023 75.8475 27.9098 75.8475ZM30.7659 76.3299C31.1569 76.3299 31.3955 76.1979 31.5936 75.949V76.2842H32.015V74.5323C32.015 73.7909 31.5529 73.5827 31.0452 73.5827C30.5323 73.5827 30.0499 73.8062 29.994 74.4104H30.4155C30.4561 74.0854 30.6592 73.9331 31.0248 73.9331C31.4311 73.9331 31.5936 74.1108 31.5936 74.5323V74.7253H31.2127C30.5323 74.7253 29.8823 74.9335 29.8823 75.5479C29.8823 76.0912 30.2733 76.3299 30.7659 76.3299ZM30.8065 75.9947C30.4358 75.9947 30.3038 75.8221 30.3038 75.5479C30.3038 75.1569 30.6948 75.0249 31.228 75.0249H31.5936V75.3549C31.5936 75.7662 31.2533 75.9947 30.8065 75.9947ZM32.9166 76.2842H33.3431V72.3589H32.9166V76.2842ZM35.6765 76.2842H36.0979V74.6745C36.0979 74.1972 36.4483 73.9483 36.8393 73.9483C37.2658 73.9483 37.4639 74.1565 37.4639 74.6237V76.2842H37.8854V74.6542C37.8854 73.8823 37.4994 73.5827 36.951 73.5827C36.5143 73.5827 36.2198 73.8011 36.0979 74.0499V73.6284H35.6765V76.2842ZM39.44 76.3299C39.831 76.3299 40.0697 76.1979 40.2677 75.949V76.2842H40.6892V74.5323C40.6892 73.7909 40.2271 73.5827 39.7193 73.5827C39.2064 73.5827 38.724 73.8062 38.6681 74.4104H39.0896C39.1302 74.0854 39.3334 73.9331 39.699 73.9331C40.1052 73.9331 40.2677 74.1108 40.2677 74.5323V74.7253H39.8869C39.2064 74.7253 38.5564 74.9335 38.5564 75.5479C38.5564 76.0912 38.9474 76.3299 39.44 76.3299ZM39.4806 75.9947C39.1099 75.9947 38.9779 75.8221 38.9779 75.5479C38.9779 75.1569 39.3689 75.0249 39.9021 75.0249H40.2677V75.3549C40.2677 75.7662 39.9275 75.9947 39.4806 75.9947ZM41.5805 76.2842H42.002V74.6592C42.002 74.1819 42.3575 73.9483 42.7028 73.9483C43.0684 73.9483 43.2664 74.1413 43.2664 74.6085V76.2842H43.6879V74.6592C43.6879 74.1819 44.0433 73.9483 44.3886 73.9483C44.7542 73.9483 44.9523 74.1413 44.9523 74.6085V76.2842H45.3737V74.6389C45.3737 73.8671 44.9574 73.5827 44.48 73.5827C44.15 73.5827 43.7539 73.7351 43.5711 74.0804C43.434 73.7249 43.1344 73.5827 42.7942 73.5827C42.4133 73.5827 42.1239 73.7858 42.002 74.0347V73.6284H41.5805V76.2842ZM47.3524 76.3299C47.9516 76.3299 48.3934 76.0506 48.4848 75.5174H48.0633C48.0074 75.8272 47.7688 75.9795 47.3575 75.9795C46.8141 75.9795 46.5247 75.6444 46.5044 75.0401H48.5051V74.903C48.5051 73.9534 47.9262 73.5827 47.3118 73.5827C46.5805 73.5827 46.0677 74.1413 46.0677 74.9436V74.9842C46.0677 75.8018 46.6009 76.3299 47.3524 76.3299ZM46.5196 74.6999C46.5907 74.2276 46.8801 73.9331 47.3118 73.9331C47.7485 73.9331 48.0328 74.1515 48.0735 74.6999H46.5196ZM49.2209 76.9088L49.8455 75.8475L49.4342 75.6545L48.9467 76.7666L49.2209 76.9088ZM52.0944 76.2842H52.5159V74.6745C52.5159 74.1972 52.8663 73.9483 53.2573 73.9483C53.6838 73.9483 53.8818 74.1565 53.8818 74.6237V76.2842H54.3033V74.6542C54.3033 73.8823 53.9174 73.5827 53.369 73.5827C52.9323 73.5827 52.6378 73.8011 52.5159 74.0499V72.3589H52.0944V76.2842ZM56.2997 75.9795C55.7615 75.9795 55.4314 75.5834 55.4314 74.9792V74.9385C55.4314 74.3292 55.7665 73.9331 56.2997 73.9331C56.8278 73.9331 57.1681 74.3292 57.1681 74.9436V74.9792C57.1681 75.5783 56.8329 75.9795 56.2997 75.9795ZM56.2946 76.3299C57.0513 76.3299 57.6048 75.7764 57.6048 74.9741V74.9335C57.6048 74.1362 57.0513 73.5827 56.2997 73.5827C55.5482 73.5827 54.9947 74.1413 54.9947 74.9385V74.9792C54.9947 75.7561 55.538 76.3299 56.2946 76.3299ZM58.3208 76.2842H58.7423V74.6592C58.7423 74.1819 59.0977 73.9483 59.443 73.9483C59.8087 73.9483 60.0067 74.1413 60.0067 74.6085V76.2842H60.4282V74.6592C60.4282 74.1819 60.7836 73.9483 61.1289 73.9483C61.4945 73.9483 61.6926 74.1413 61.6926 74.6085V76.2842H62.114V74.6389C62.114 73.8671 61.6976 73.5827 61.2203 73.5827C60.8903 73.5827 60.4942 73.7351 60.3114 74.0804C60.1743 73.7249 59.8747 73.5827 59.5344 73.5827C59.1536 73.5827 58.8642 73.7858 58.7423 74.0347V73.6284H58.3208V76.2842ZM64.0927 76.3299C64.6919 76.3299 65.1336 76.0506 65.2251 75.5174H64.8036C64.7477 75.8272 64.5091 75.9795 64.0978 75.9795C63.5544 75.9795 63.265 75.6444 63.2447 75.0401H65.2454V74.903C65.2454 73.9534 64.6665 73.5827 64.0521 73.5827C63.3208 73.5827 62.808 74.1413 62.808 74.9436V74.9842C62.808 75.8018 63.3411 76.3299 64.0927 76.3299ZM63.2599 74.6999C63.331 74.2276 63.6204 73.9331 64.0521 73.9331C64.4888 73.9331 64.7731 74.1515 64.8137 74.6999H63.2599ZM68.0281 76.3299C68.4191 76.3299 68.6578 76.1979 68.8558 75.949V76.2842H69.2773V74.5323C69.2773 73.7909 68.8152 73.5827 68.3074 73.5827C67.7945 73.5827 67.3121 73.8062 67.2563 74.4104H67.6777C67.7184 74.0854 67.9215 73.9331 68.2871 73.9331C68.6933 73.9331 68.8558 74.1108 68.8558 74.5323V74.7253H68.475C67.7945 74.7253 67.1445 74.9335 67.1445 75.5479C67.1445 76.0912 67.5355 76.3299 68.0281 76.3299ZM68.0687 75.9947C67.698 75.9947 67.566 75.8221 67.566 75.5479C67.566 75.1569 67.957 75.0249 68.4902 75.0249H68.8558V75.3549C68.8558 75.7662 68.5156 75.9947 68.0687 75.9947ZM71.169 76.3299C71.5549 76.3299 71.9256 76.0861 72.0779 75.8272V76.2842H72.4994V72.3589H72.0779V74.055C71.9256 73.796 71.6514 73.5827 71.2096 73.5827C70.4784 73.5827 69.9706 74.1565 69.9706 74.969V75.0096C69.9706 75.8373 70.4733 76.3299 71.169 76.3299ZM71.2147 75.9795C70.7678 75.9795 70.4073 75.6596 70.4073 74.9893V74.9487C70.4073 74.3038 70.7221 73.9331 71.2502 73.9331C71.7682 73.9331 72.0932 74.253 72.0932 74.9335V74.9741C72.0932 75.6545 71.7073 75.9795 71.2147 75.9795ZM74.4161 76.3299C74.802 76.3299 75.1727 76.0861 75.325 75.8272V76.2842H75.7465V72.3589H75.325V74.055C75.1727 73.796 74.8985 73.5827 74.4567 73.5827C73.7255 73.5827 73.2177 74.1565 73.2177 74.969V75.0096C73.2177 75.8373 73.7204 76.3299 74.4161 76.3299ZM74.4618 75.9795C74.0149 75.9795 73.6544 75.6596 73.6544 74.9893V74.9487C73.6544 74.3038 73.9692 73.9331 74.4973 73.9331C75.0153 73.9331 75.3403 74.253 75.3403 74.9335V74.9741C75.3403 75.6545 74.9543 75.9795 74.4618 75.9795ZM76.6628 76.2842H77.0843V74.8268C77.0843 74.1718 77.4245 74.0042 77.9577 73.9788V73.5827C77.4804 73.598 77.2519 73.8062 77.0843 74.1058V73.6284H76.6628V76.2842ZM79.6478 76.3299C80.247 76.3299 80.6888 76.0506 80.7802 75.5174H80.3587C80.3028 75.8272 80.0642 75.9795 79.6529 75.9795C79.1095 75.9795 78.8201 75.6444 78.7998 75.0401H80.8005V74.903C80.8005 73.9534 80.2216 73.5827 79.6072 73.5827C78.8759 73.5827 78.3631 74.1413 78.3631 74.9436V74.9842C78.3631 75.8018 78.8962 76.3299 79.6478 76.3299ZM78.815 74.6999C78.8861 74.2276 79.1755 73.9331 79.6072 73.9331C80.0439 73.9331 80.3282 74.1515 80.3688 74.6999H78.815ZM82.3581 76.3299C83.003 76.3299 83.3331 76.0049 83.3331 75.5225C83.3331 74.9588 82.9471 74.837 82.3987 74.7354C81.9112 74.6491 81.7792 74.5526 81.7792 74.3139C81.7792 74.0854 81.9772 73.9331 82.2819 73.9331C82.6171 73.9331 82.7796 74.06 82.8405 74.3495H83.2467C83.1756 73.7757 82.7643 73.5827 82.287 73.5827C81.8706 73.5827 81.3882 73.8366 81.3882 74.3292C81.3882 74.7913 81.6218 74.9842 82.3124 75.1112C82.7237 75.1873 82.9319 75.2788 82.9319 75.558C82.9319 75.8424 82.7542 75.9795 82.353 75.9795C81.9265 75.9795 81.7589 75.7815 81.7284 75.4666H81.3171C81.3425 76.01 81.7233 76.3299 82.3581 76.3299ZM84.8613 76.3299C85.5062 76.3299 85.8363 76.0049 85.8363 75.5225C85.8363 74.9588 85.4504 74.837 84.902 74.7354C84.4145 74.6491 84.2825 74.5526 84.2825 74.3139C84.2825 74.0854 84.4805 73.9331 84.7852 73.9331C85.1203 73.9331 85.2828 74.06 85.3437 74.3495H85.75C85.6789 73.7757 85.2676 73.5827 84.7902 73.5827C84.3739 73.5827 83.8915 73.8366 83.8915 74.3292C83.8915 74.7913 84.125 74.9842 84.8156 75.1112C85.227 75.1873 85.4351 75.2788 85.4351 75.558C85.4351 75.8424 85.2574 75.9795 84.8563 75.9795C84.4297 75.9795 84.2621 75.7815 84.2317 75.4666H83.8204C83.8458 76.01 84.2266 76.3299 84.8613 76.3299ZM86.5724 76.9088L87.197 75.8475L86.7857 75.6545L86.2982 76.7666L86.5724 76.9088ZM90.1111 76.3299C90.5021 76.3299 90.7408 76.1979 90.9388 75.949V76.2842H91.3603V74.5323C91.3603 73.7909 90.8982 73.5827 90.3904 73.5827C89.8775 73.5827 89.3951 73.8062 89.3393 74.4104H89.7607C89.8014 74.0854 90.0045 73.9331 90.3701 73.9331C90.7763 73.9331 90.9388 74.1108 90.9388 74.5323V74.7253H90.558C89.8775 74.7253 89.2276 74.9335 89.2276 75.5479C89.2276 76.0912 89.6186 76.3299 90.1111 76.3299ZM90.1517 75.9947C89.7811 75.9947 89.649 75.8221 89.649 75.5479C89.649 75.1569 90.04 75.0249 90.5732 75.0249H90.9388V75.3549C90.9388 75.7662 90.5986 75.9947 90.1517 75.9947ZM92.2517 76.2842H92.6731V74.6745C92.6731 74.1972 93.0235 73.9483 93.4145 73.9483C93.8411 73.9483 94.0391 74.1565 94.0391 74.6237V76.2842H94.4606V74.6542C94.4606 73.8823 94.0746 73.5827 93.5262 73.5827C93.0895 73.5827 92.795 73.8011 92.6731 74.0499V73.6284H92.2517V76.2842ZM96.3503 76.3299C96.7363 76.3299 97.107 76.0861 97.2593 75.8272V76.2842H97.6808V72.3589H97.2593V74.055C97.107 73.796 96.8327 73.5827 96.391 73.5827C95.6597 73.5827 95.152 74.1565 95.152 74.969V75.0096C95.152 75.8373 95.6547 76.3299 96.3503 76.3299ZM96.396 75.9795C95.9492 75.9795 95.5887 75.6596 95.5887 74.9893V74.9487C95.5887 74.3038 95.9035 73.9331 96.4316 73.9331C96.9495 73.9331 97.2745 74.253 97.2745 74.9335V74.9741C97.2745 75.6545 96.8886 75.9795 96.396 75.9795ZM100.477 75.9236V73.0089H100.969C101.97 73.0089 102.376 73.598 102.376 74.4358V74.4764C102.376 75.3651 101.909 75.9236 100.974 75.9236H100.477ZM100.035 76.2842H100.984C102.254 76.2842 102.833 75.4869 102.833 74.4815V74.4358C102.833 73.4253 102.244 72.6535 100.995 72.6535H100.035V76.2842ZM105.254 75.9643C104.497 75.9643 103.913 75.3651 103.913 74.4866V74.446C103.913 73.5827 104.401 72.9632 105.244 72.9632C106.082 72.9632 106.559 73.6233 106.559 74.4358V74.4764C106.559 75.3549 106.061 75.9643 105.254 75.9643ZM105.254 76.3299C106.31 76.3299 107.016 75.5073 107.016 74.4815V74.4409C107.016 73.4202 106.31 72.6078 105.244 72.6078C104.177 72.6078 103.456 73.4202 103.456 74.451V74.4917C103.456 75.5073 104.182 76.3299 105.254 76.3299ZM107.813 76.2842H109.058C109.784 76.2842 110.251 75.9541 110.251 75.2686V75.2483C110.251 74.776 110.053 74.5069 109.525 74.38C109.941 74.2378 110.073 73.9433 110.073 73.6132V73.5929C110.073 72.8769 109.581 72.6535 108.905 72.6535H107.813V76.2842ZM108.245 75.9389V74.5831H108.986C109.57 74.5831 109.819 74.7963 109.819 75.2432V75.2635C109.819 75.7053 109.575 75.9389 109.047 75.9389H108.245ZM108.245 74.2378V72.9988H108.895C109.403 72.9988 109.641 73.1663 109.641 73.5776V73.598C109.641 74.0448 109.438 74.2378 108.905 74.2378H108.245Z" fill="#707070"/>
<path d="M14.5957 85.037C14.8934 85.037 15.1111 84.806 15.1111 84.5216C15.1111 84.2372 14.8934 84.0062 14.5957 84.0062C14.3025 84.0062 14.0803 84.2372 14.0803 84.5216C14.0803 84.806 14.3025 85.037 14.5957 85.037Z" fill="#707070"/>
<path d="M21.2031 85.4288H21.6449V83.8141H23.5542V85.4288H23.996V81.7981H23.5542V83.4434H21.6449V81.7981H21.2031V85.4288ZM26.0524 85.1242C25.5141 85.1242 25.184 84.7281 25.184 84.1238V84.0832C25.184 83.4738 25.5192 83.0778 26.0524 83.0778C26.5805 83.0778 26.9207 83.4738 26.9207 84.0883V84.1238C26.9207 84.723 26.5855 85.1242 26.0524 85.1242ZM26.0473 85.4745C26.8039 85.4745 27.3574 84.921 27.3574 84.1187V84.0781C27.3574 83.2809 26.8039 82.7274 26.0524 82.7274C25.3008 82.7274 24.7473 83.2859 24.7473 84.0832V84.1238C24.7473 84.9007 25.2907 85.4745 26.0473 85.4745ZM28.5571 85.4288H29.0191L29.6386 83.4383L30.1921 85.4288H30.6593L31.487 82.7731H31.0554L30.4308 84.9109L29.8265 82.7731H29.4609L28.816 84.9109L28.1965 82.7731H27.7395L28.5571 85.4288ZM33.7649 86.353H34.1915L35.659 82.7731H35.2274L34.4911 84.6773L33.6786 82.7731H33.2267L34.2677 85.1546L33.7649 86.353ZM37.3101 85.1242C36.7718 85.1242 36.4418 84.7281 36.4418 84.1238V84.0832C36.4418 83.4738 36.7769 83.0778 37.3101 83.0778C37.8382 83.0778 38.1784 83.4738 38.1784 84.0883V84.1238C38.1784 84.723 37.8433 85.1242 37.3101 85.1242ZM37.305 85.4745C38.0616 85.4745 38.6151 84.921 38.6151 84.1187V84.0781C38.6151 83.2809 38.0616 82.7274 37.3101 82.7274C36.5585 82.7274 36.0051 83.2859 36.0051 84.0832V84.1238C36.0051 84.9007 36.5484 85.4745 37.305 85.4745ZM40.23 85.4745C40.6565 85.4745 40.951 85.2562 41.0729 85.0074V85.4288H41.4944V82.7731H41.0729V84.3828C41.0729 84.8601 40.7174 85.1089 40.3417 85.1089C39.9253 85.1089 39.7273 84.9007 39.7273 84.4336V82.7731H39.3058V84.4539C39.3058 85.1851 39.7019 85.4745 40.23 85.4745ZM42.4808 82.9508L43.0749 81.9251L42.6737 81.7423L42.2218 82.8188L42.4808 82.9508ZM43.7776 85.4288H44.2041V81.5036H43.7776V85.4288ZM45.1403 85.4288H45.5668V81.5036H45.1403V85.4288ZM48.799 85.4745C49.2255 85.4745 49.52 85.2562 49.6419 85.0074V85.4288H50.0634V82.7731H49.6419V84.3828C49.6419 84.8601 49.2864 85.1089 48.9107 85.1089C48.4943 85.1089 48.2962 84.9007 48.2962 84.4336V82.7731H47.8748V84.4539C47.8748 85.1851 48.2709 85.4745 48.799 85.4745ZM51.8013 85.4745C52.4462 85.4745 52.7762 85.1495 52.7762 84.6671C52.7762 84.1035 52.3903 83.9816 51.8419 83.8801C51.3544 83.7937 51.2224 83.6973 51.2224 83.4586C51.2224 83.2301 51.4204 83.0778 51.7251 83.0778C52.0603 83.0778 52.2227 83.2047 52.2837 83.4941H52.6899C52.6188 82.9203 52.2075 82.7274 51.7302 82.7274C51.3138 82.7274 50.8314 82.9813 50.8314 83.4738C50.8314 83.9359 51.065 84.1289 51.7556 84.2558C52.1669 84.332 52.3751 84.4234 52.3751 84.7027C52.3751 84.9871 52.1974 85.1242 51.7962 85.1242C51.3697 85.1242 51.2021 84.9261 51.1716 84.6113H50.7603C50.7857 85.1546 51.1665 85.4745 51.8013 85.4745ZM54.5686 85.4745C55.1678 85.4745 55.6096 85.1952 55.701 84.6621H55.2795C55.2236 84.9718 54.985 85.1242 54.5737 85.1242C54.0303 85.1242 53.7409 84.789 53.7206 84.1847H55.7213V84.0476C55.7213 83.0981 55.1424 82.7274 54.528 82.7274C53.7967 82.7274 53.2839 83.2859 53.2839 84.0883V84.1289C53.2839 84.9464 53.8171 85.4745 54.5686 85.4745ZM53.7358 83.8445C53.8069 83.3723 54.0963 83.0778 54.528 83.0778C54.9647 83.0778 55.249 83.2961 55.2897 83.8445H53.7358ZM59.3876 85.4745C60.2 85.4745 60.7789 85.0632 60.9059 84.2254H60.4946C60.4032 84.8144 59.9919 85.114 59.3977 85.114C58.6157 85.114 58.1486 84.5554 58.1486 83.6312V83.5906C58.1486 82.6766 58.6513 82.0926 59.4028 82.0926C60.0223 82.0926 60.3422 82.377 60.4336 82.9305H60.8703C60.7942 82.1434 60.1543 81.7423 59.3977 81.7423C58.4126 81.7423 57.6916 82.5192 57.6916 83.5957V83.6363C57.6916 84.7535 58.3364 85.4745 59.3876 85.4745ZM62.7185 85.1242C62.1803 85.1242 61.8502 84.7281 61.8502 84.1238V84.0832C61.8502 83.4738 62.1854 83.0778 62.7185 83.0778C63.2466 83.0778 63.5869 83.4738 63.5869 84.0883V84.1238C63.5869 84.723 63.2517 85.1242 62.7185 85.1242ZM62.7135 85.4745C63.4701 85.4745 64.0236 84.921 64.0236 84.1187V84.0781C64.0236 83.2809 63.4701 82.7274 62.7185 82.7274C61.967 82.7274 61.4135 83.2859 61.4135 84.0832V84.1238C61.4135 84.9007 61.9568 85.4745 62.7135 85.4745ZM64.7498 85.4288H65.1713V82.7731H64.7498V85.4288ZM64.9529 82.2196C65.1052 82.2196 65.2322 82.0926 65.2322 81.9403C65.2322 81.788 65.1052 81.661 64.9529 81.661C64.8006 81.661 64.6736 81.788 64.6736 81.9403C64.6736 82.0926 64.8006 82.2196 64.9529 82.2196ZM66.0974 85.4288H66.5189V83.8191C66.5189 83.3418 66.8692 83.093 67.2602 83.093C67.6868 83.093 67.8848 83.3012 67.8848 83.7684V85.4288H68.3063V83.7988C68.3063 83.027 67.9204 82.7274 67.3719 82.7274C66.9352 82.7274 66.6407 82.9457 66.5189 83.1945V82.7731H66.0974V85.4288ZM70.516 85.4745C71.2472 85.4745 71.7245 84.916 71.7245 84.1035V84.0629C71.7245 83.2352 71.2116 82.7274 70.516 82.7274C70.13 82.7274 69.7695 82.961 69.6172 83.2199V81.5036H69.1957V85.4288H69.6172V84.9921C69.7695 85.2562 70.0843 85.4745 70.516 85.4745ZM70.4753 85.1242C69.9574 85.1242 69.6019 84.8042 69.6019 84.1238V84.0832C69.6019 83.4027 69.9777 83.0778 70.4703 83.0778C70.9171 83.0778 71.2878 83.4129 71.2878 84.0832V84.1238C71.2878 84.7687 71.0035 85.1242 70.4753 85.1242ZM73.108 85.4745C73.499 85.4745 73.7377 85.3425 73.9357 85.0937V85.4288H74.3572V83.6769C74.3572 82.9356 73.8951 82.7274 73.3873 82.7274C72.8744 82.7274 72.392 82.9508 72.3362 83.5551H72.7576C72.7983 83.2301 73.0014 83.0778 73.367 83.0778C73.7732 83.0778 73.9357 83.2555 73.9357 83.6769V83.8699H73.5549C72.8744 83.8699 72.2245 84.0781 72.2245 84.6925C72.2245 85.2359 72.6155 85.4745 73.108 85.4745ZM73.1486 85.1394C72.7779 85.1394 72.6459 84.9667 72.6459 84.6925C72.6459 84.3015 73.0369 84.1695 73.5701 84.1695H73.9357V84.4996C73.9357 84.9109 73.5955 85.1394 73.1486 85.1394ZM76.0712 85.4745C76.7161 85.4745 77.0461 85.1495 77.0461 84.6671C77.0461 84.1035 76.6602 83.9816 76.1118 83.8801C75.6243 83.7937 75.4923 83.6973 75.4923 83.4586C75.4923 83.2301 75.6903 83.0778 75.995 83.0778C76.3301 83.0778 76.4926 83.2047 76.5536 83.4941H76.9598C76.8887 82.9203 76.4774 82.7274 76.0001 82.7274C75.5837 82.7274 75.1013 82.9813 75.1013 83.4738C75.1013 83.9359 75.3349 84.1289 76.0255 84.2558C76.4368 84.332 76.645 84.4234 76.645 84.7027C76.645 84.9871 76.4673 85.1242 76.0661 85.1242C75.6396 85.1242 75.472 84.9261 75.4415 84.6113H75.0302C75.0556 85.1546 75.4364 85.4745 76.0712 85.4745ZM78.8385 85.4745C79.4377 85.4745 79.8795 85.1952 79.9709 84.6621H79.5494C79.4935 84.9718 79.2549 85.1242 78.8436 85.1242C78.3002 85.1242 78.0108 84.789 77.9905 84.1847H79.9912V84.0476C79.9912 83.0981 79.4123 82.7274 78.7979 82.7274C78.0666 82.7274 77.5538 83.2859 77.5538 84.0883V84.1289C77.5538 84.9464 78.087 85.4745 78.8385 85.4745ZM78.0057 83.8445C78.0768 83.3723 78.3662 83.0778 78.7979 83.0778C79.2346 83.0778 79.5189 83.2961 79.5596 83.8445H78.0057Z" fill="#707070"/>
<rect x="8.14551" y="95.286" width="103.78" height="18.4075" rx="2.53896" fill="#2752E7"/>
<path d="M55.3596 105.92C56.2229 105.92 56.8424 105.479 56.949 104.605H56.2889C56.2178 105.118 55.8623 105.372 55.3596 105.372C54.6893 105.372 54.2983 104.89 54.2983 104.072V104.031C54.2983 103.219 54.7147 102.721 55.3546 102.721C55.8776 102.721 56.1467 102.97 56.2229 103.453H56.9084C56.8271 102.599 56.1823 102.183 55.3495 102.183C54.339 102.183 53.5874 102.945 53.5874 104.036V104.077C53.5874 105.194 54.2222 105.92 55.3596 105.92ZM58.6715 105.443C58.2043 105.443 57.9352 105.103 57.9352 104.56V104.519C57.9352 103.97 58.2145 103.64 58.6715 103.64C59.1285 103.64 59.4027 103.976 59.4027 104.524V104.56C59.4027 105.103 59.1285 105.443 58.6715 105.443ZM58.6664 105.92C59.4484 105.92 60.0324 105.382 60.0324 104.554V104.514C60.0324 103.701 59.4484 103.158 58.6715 103.158C57.8895 103.158 57.3055 103.706 57.3055 104.529V104.57C57.3055 105.377 57.8844 105.92 58.6664 105.92ZM61.4762 105.92C61.9078 105.92 62.1871 105.712 62.3191 105.453V105.87H62.9336V103.214H62.3191V104.793C62.3191 105.215 62.0297 105.428 61.6996 105.428C61.3442 105.428 61.1766 105.245 61.1766 104.844V103.214H60.5622V104.915C60.5622 105.621 60.9532 105.92 61.4762 105.92ZM63.6621 105.87H64.2765V104.306C64.2765 103.884 64.5558 103.671 64.9011 103.671C65.2667 103.671 65.4292 103.854 65.4292 104.255V105.87H66.0436V104.199C66.0436 103.468 65.6679 103.158 65.1347 103.158C64.698 103.158 64.4035 103.376 64.2765 103.635V103.214H63.6621V105.87ZM67.6553 105.915C67.8432 105.915 67.9753 105.885 68.0717 105.849V105.362C67.9854 105.397 67.894 105.413 67.7721 105.413C67.5792 105.413 67.4675 105.306 67.4675 105.072V103.676H68.0514V103.214H67.4675V102.63H66.853V103.214H66.4976V103.676H66.853V105.128C66.853 105.631 67.1272 105.915 67.6553 105.915ZM68.6412 105.87H69.2556V103.214H68.6412V105.87ZM68.9408 102.777C69.1439 102.777 69.3064 102.625 69.3064 102.427C69.3064 102.224 69.1439 102.071 68.9408 102.071C68.7377 102.071 68.5752 102.224 68.5752 102.427C68.5752 102.625 68.7377 102.777 68.9408 102.777ZM70.0045 105.87H70.6189V104.306C70.6189 103.884 70.8982 103.671 71.2435 103.671C71.6091 103.671 71.7716 103.854 71.7716 104.255V105.87H72.3861V104.199C72.3861 103.468 72.0103 103.158 71.4771 103.158C71.0404 103.158 70.7459 103.376 70.6189 103.635V103.214H70.0045V105.87ZM73.9826 105.92C74.4142 105.92 74.6935 105.712 74.8255 105.453V105.87H75.4399V103.214H74.8255V104.793C74.8255 105.215 74.5361 105.428 74.206 105.428C73.8505 105.428 73.683 105.245 73.683 104.844V103.214H73.0685V104.915C73.0685 105.621 73.4595 105.92 73.9826 105.92ZM77.3364 105.92C78.0168 105.92 78.4687 105.616 78.5551 105.057H77.961C77.9152 105.316 77.7223 105.463 77.3516 105.463C76.8946 105.463 76.6407 105.179 76.6204 104.676H78.5652V104.499C78.5652 103.549 77.9711 103.158 77.311 103.158C76.5544 103.158 75.9907 103.706 75.9907 104.529V104.57C75.9907 105.408 76.5544 105.92 77.3364 105.92ZM76.6305 104.265C76.6915 103.854 76.9403 103.605 77.311 103.605C77.6918 103.605 77.9254 103.808 77.9559 104.265H76.6305Z" fill="white"/>
</svg>
