<svg width="128" height="108" viewBox="0 0 128 108" fill="none" xmlns="http://www.w3.org/2000/svg">
<rect x="0.243678" y="0.243678" width="127.193" height="107.068" rx="1.73586" fill="white"/>
<rect x="0.243678" y="0.243678" width="127.193" height="107.068" rx="1.73586" stroke="#E3E3E3" stroke-width="0.487356"/>
<line x1="63.9427" y1="18.4757" x2="63.9427" y2="5.27877" stroke="#E3E3E3" stroke-width="0.329923"/>
<path d="M93.6264 11.0936C93.6089 10.9299 93.5352 10.8024 93.4052 10.7112C93.2765 10.62 93.109 10.5743 92.9028 10.5743C92.7579 10.5743 92.6335 10.5962 92.5298 10.6399C92.4261 10.6837 92.3467 10.743 92.2917 10.818C92.2368 10.893 92.2086 10.9786 92.2074 11.0748C92.2074 11.1548 92.2255 11.2242 92.2617 11.2829C92.2992 11.3417 92.3499 11.3916 92.4136 11.4329C92.4773 11.4729 92.5479 11.5066 92.6254 11.5341C92.7029 11.5616 92.781 11.5847 92.8597 11.6035L93.2196 11.6935C93.3646 11.7272 93.504 11.7728 93.6377 11.8303C93.7726 11.8878 93.8932 11.9603 93.9995 12.0477C94.1069 12.1352 94.1919 12.2408 94.2544 12.3645C94.3169 12.4883 94.3481 12.6332 94.3481 12.7994C94.3481 13.0244 94.2907 13.2225 94.1757 13.3937C94.0607 13.5636 93.8945 13.6967 93.677 13.793C93.4608 13.8879 93.199 13.9354 92.8916 13.9354C92.5929 13.9354 92.3336 13.8892 92.1137 13.7967C91.895 13.7042 91.7237 13.5693 91.6 13.3918C91.4776 13.2143 91.4113 12.9981 91.4013 12.7432H92.0855C92.0955 12.8769 92.1368 12.9882 92.2093 13.0769C92.2817 13.1656 92.3761 13.2318 92.4923 13.2756C92.6098 13.3193 92.741 13.3412 92.886 13.3412C93.0372 13.3412 93.1697 13.3187 93.2834 13.2737C93.3984 13.2275 93.4883 13.1637 93.5533 13.0825C93.6183 13 93.6514 12.9038 93.6527 12.7938C93.6514 12.6938 93.6221 12.6114 93.5646 12.5464C93.5071 12.4801 93.4265 12.4252 93.3227 12.3814C93.2203 12.3364 93.1003 12.2964 92.9628 12.2614L92.5261 12.149C92.2099 12.0677 91.9599 11.9446 91.7762 11.7797C91.5938 11.6135 91.5025 11.3929 91.5025 11.118C91.5025 10.8918 91.5638 10.6937 91.6863 10.5237C91.81 10.3538 91.9781 10.2219 92.1905 10.1282C92.403 10.0332 92.6435 9.98572 92.9122 9.98572C93.1847 9.98572 93.4234 10.0332 93.6283 10.1282C93.8345 10.2219 93.9963 10.3525 94.1138 10.52C94.2313 10.6862 94.2919 10.8774 94.2956 11.0936H93.6264ZM96.2129 13.9336C95.9242 13.9336 95.6749 13.8736 95.4649 13.7536C95.2562 13.6324 95.0956 13.4612 94.9831 13.24C94.8707 13.0175 94.8144 12.7557 94.8144 12.4545C94.8144 12.1583 94.8707 11.8984 94.9831 11.6747C95.0969 11.4498 95.2556 11.2748 95.4593 11.1498C95.663 11.0236 95.9023 10.9605 96.1772 10.9605C96.3547 10.9605 96.5222 10.9892 96.6796 11.0467C96.8383 11.103 96.9783 11.1904 97.0995 11.3092C97.222 11.4279 97.3182 11.5791 97.3882 11.7628C97.4582 11.9453 97.4932 12.1627 97.4932 12.4152V12.6232H95.1331V12.1658H96.8427C96.8415 12.0359 96.8133 11.9203 96.7584 11.819C96.7034 11.7166 96.6265 11.636 96.5278 11.5772C96.4303 11.5185 96.3166 11.4891 96.1866 11.4891C96.0479 11.4891 95.9261 11.5229 95.8211 11.5904C95.7161 11.6566 95.6342 11.7441 95.5755 11.8528C95.518 11.9603 95.4887 12.0784 95.4874 12.2071V12.6064C95.4874 12.7738 95.518 12.9175 95.5793 13.0375C95.6405 13.1562 95.7261 13.2475 95.8361 13.3112C95.946 13.3737 96.0748 13.4049 96.2222 13.4049C96.321 13.4049 96.4103 13.3912 96.4903 13.3637C96.5703 13.3349 96.6396 13.2931 96.6984 13.2381C96.7571 13.1831 96.8015 13.115 96.8315 13.0338L97.4651 13.105C97.4251 13.2725 97.3488 13.4187 97.2364 13.5436C97.1251 13.6674 96.9827 13.7636 96.809 13.8323C96.6353 13.8998 96.4366 13.9336 96.2129 13.9336ZM98.7459 10.0382V13.8773H98.0673V10.0382H98.7459ZM100.122 10.0382V13.8773H99.4437V10.0382H100.122Z" fill="#A9A9A9"/>
<path d="M47.2471 26.115V22.7558H49.2745V23.1166H47.6539V24.2517H49.1695V24.6125H47.6539V25.7541H49.3007V26.115H47.2471ZM51.0508 23.5956V23.9236H49.7452V23.5956H51.0508ZM50.1257 22.992H50.5128V25.3933C50.5128 25.5026 50.5287 25.5846 50.5604 25.6393C50.5932 25.6929 50.6348 25.729 50.6851 25.7476C50.7365 25.7651 50.7906 25.7738 50.8474 25.7738C50.8901 25.7738 50.9251 25.7716 50.9524 25.7673C50.9798 25.7618 51.0016 25.7574 51.018 25.7541L51.0968 26.1019C51.0705 26.1117 51.0339 26.1216 50.9869 26.1314C50.9398 26.1423 50.8803 26.1478 50.8081 26.1478C50.6987 26.1478 50.5916 26.1243 50.4866 26.0773C50.3827 26.0302 50.2963 25.9586 50.2274 25.8624C50.1596 25.7662 50.1257 25.6448 50.1257 25.4983V22.992ZM52.0744 24.5994V26.115H51.6873V22.7558H52.0744V23.9892H52.1072C52.1662 23.8591 52.2548 23.7558 52.3729 23.6792C52.4921 23.6016 52.6506 23.5628 52.8485 23.5628C53.0202 23.5628 53.1706 23.5972 53.2996 23.6661C53.4286 23.7339 53.5287 23.8383 53.5998 23.9794C53.6719 24.1194 53.708 24.2976 53.708 24.5141V26.115H53.3209V24.5404C53.3209 24.3402 53.269 24.1855 53.1651 24.0762C53.0623 23.9657 52.9196 23.9105 52.737 23.9105C52.6102 23.9105 52.4964 23.9373 52.3958 23.9909C52.2963 24.0445 52.2176 24.1226 52.1596 24.2254C52.1028 24.3282 52.0744 24.4529 52.0744 24.5994ZM55.4725 26.1675C55.2298 26.1675 55.0204 26.1139 54.8443 26.0067C54.6694 25.8985 54.5343 25.7476 54.4392 25.554C54.3451 25.3594 54.2981 25.133 54.2981 24.875C54.2981 24.6169 54.3451 24.3895 54.4392 24.1926C54.5343 23.9947 54.6666 23.8405 54.8361 23.7301C55.0067 23.6185 55.2057 23.5628 55.4332 23.5628C55.5644 23.5628 55.694 23.5846 55.8219 23.6284C55.9498 23.6721 56.0663 23.7432 56.1713 23.8416C56.2762 23.9389 56.3599 24.068 56.4222 24.2287C56.4846 24.3895 56.5157 24.5874 56.5157 24.8225V24.9865H54.5737V24.6519H56.1221C56.1221 24.5097 56.0936 24.3829 56.0368 24.2714C55.981 24.1598 55.9012 24.0718 55.7973 24.0073C55.6945 23.9428 55.5731 23.9105 55.4332 23.9105C55.279 23.9105 55.1456 23.9488 55.0329 24.0253C54.9214 24.1008 54.8356 24.1992 54.7754 24.3206C54.7153 24.4419 54.6852 24.5721 54.6852 24.7109V24.934C54.6852 25.1243 54.718 25.2856 54.7836 25.4179C54.8503 25.5491 54.9427 25.6492 55.0608 25.7181C55.1789 25.7858 55.3162 25.8197 55.4725 25.8197C55.5742 25.8197 55.6661 25.8055 55.7481 25.7771C55.8312 25.7476 55.9028 25.7038 55.963 25.6459C56.0231 25.5868 56.0696 25.5136 56.1024 25.4261L56.4764 25.5311C56.437 25.6579 56.3708 25.7694 56.2779 25.8657C56.1849 25.9608 56.0701 26.0352 55.9334 26.0887C55.7967 26.1412 55.6431 26.1675 55.4725 26.1675ZM57.1046 26.115V23.5956H57.4785V23.9761H57.5048C57.5507 23.8515 57.6338 23.7503 57.7541 23.6727C57.8744 23.595 58.01 23.5562 58.1609 23.5562C58.1893 23.5562 58.2249 23.5568 58.2675 23.5578C58.3101 23.5589 58.3424 23.5606 58.3643 23.5628V23.9564C58.3512 23.9531 58.3211 23.9482 58.2741 23.9417C58.2281 23.934 58.1795 23.9302 58.1281 23.9302C58.0056 23.9302 57.8963 23.9559 57.8 24.0073C57.7049 24.0576 57.6294 24.1276 57.5737 24.2172C57.519 24.3058 57.4917 24.4069 57.4917 24.5207V26.115H57.1046ZM59.8028 26.1675C59.56 26.1675 59.3506 26.1139 59.1746 26.0067C58.9996 25.8985 58.8646 25.7476 58.7694 25.554C58.6754 25.3594 58.6284 25.133 58.6284 24.875C58.6284 24.6169 58.6754 24.3895 58.7694 24.1926C58.8646 23.9947 58.9969 23.8405 59.1664 23.7301C59.3369 23.6185 59.536 23.5628 59.7634 23.5628C59.8946 23.5628 60.0242 23.5846 60.1521 23.6284C60.2801 23.6721 60.3965 23.7432 60.5015 23.8416C60.6065 23.9389 60.6901 24.068 60.7525 24.2287C60.8148 24.3895 60.846 24.5874 60.846 24.8225V24.9865H58.9039V24.6519H60.4523C60.4523 24.5097 60.4239 24.3829 60.367 24.2714C60.3112 24.1598 60.2314 24.0718 60.1275 24.0073C60.0248 23.9428 59.9034 23.9105 59.7634 23.9105C59.6092 23.9105 59.4758 23.9488 59.3632 24.0253C59.2516 24.1008 59.1658 24.1992 59.1057 24.3206C59.0455 24.4419 59.0155 24.5721 59.0155 24.7109V24.934C59.0155 25.1243 59.0483 25.2856 59.1139 25.4179C59.1806 25.5491 59.273 25.6492 59.3911 25.7181C59.5092 25.7858 59.6464 25.8197 59.8028 25.8197C59.9045 25.8197 59.9963 25.8055 60.0783 25.7771C60.1614 25.7476 60.2331 25.7038 60.2932 25.6459C60.3533 25.5868 60.3998 25.5136 60.4326 25.4261L60.8066 25.5311C60.7672 25.6579 60.7011 25.7694 60.6081 25.8657C60.5152 25.9608 60.4004 26.0352 60.2637 26.0887C60.127 26.1412 59.9734 26.1675 59.8028 26.1675ZM63.0226 25.0849V23.5956H63.4097V26.115H63.0226V25.6885H62.9963C62.9373 25.8165 62.8454 25.9253 62.7208 26.0149C62.5961 26.1035 62.4386 26.1478 62.2484 26.1478C62.0909 26.1478 61.9509 26.1133 61.8285 26.0445C61.706 25.9745 61.6098 25.8695 61.5398 25.7295C61.4698 25.5885 61.4348 25.4108 61.4348 25.1965V23.5956H61.8219V25.1702C61.8219 25.3539 61.8733 25.5004 61.9761 25.6098C62.08 25.7191 62.2123 25.7738 62.373 25.7738C62.4693 25.7738 62.5671 25.7492 62.6666 25.7C62.7672 25.6508 62.8514 25.5753 62.9192 25.4737C62.9881 25.372 63.0226 25.2424 63.0226 25.0849ZM64.1187 26.115V23.5956H64.4926V23.9892H64.5254C64.5779 23.8547 64.6627 23.7503 64.7797 23.6759C64.8967 23.6005 65.0372 23.5628 65.2012 23.5628C65.3674 23.5628 65.5058 23.6005 65.6162 23.6759C65.7277 23.7503 65.8147 23.8547 65.877 23.9892H65.9033C65.9678 23.8591 66.0645 23.7558 66.1936 23.6792C66.3226 23.6016 66.4773 23.5628 66.6578 23.5628C66.883 23.5628 67.0673 23.6333 67.2105 23.7744C67.3538 23.9143 67.4254 24.1325 67.4254 24.4288V26.115H67.0383V24.4288C67.0383 24.2429 66.9875 24.1101 66.8858 24.0302C66.7841 23.9504 66.6643 23.9105 66.5265 23.9105C66.3494 23.9105 66.2122 23.9641 66.1148 24.0712C66.0175 24.1773 65.9689 24.3118 65.9689 24.4747V26.115H65.5752V24.3895C65.5752 24.2462 65.5287 24.1308 65.4358 24.0434C65.3428 23.9548 65.2231 23.9105 65.0766 23.9105C64.976 23.9105 64.8819 23.9373 64.7944 23.9909C64.7081 24.0445 64.6381 24.1188 64.5845 24.2139C64.532 24.308 64.5058 24.4168 64.5058 24.5404V26.115H64.1187ZM69.4847 26.115V22.7558H70.6198C70.8833 22.7558 71.0987 22.8033 71.266 22.8985C71.4344 22.9925 71.5591 23.1199 71.64 23.2806C71.7209 23.4414 71.7614 23.6207 71.7614 23.8186C71.7614 24.0166 71.7209 24.1965 71.64 24.3583C71.5602 24.5201 71.4366 24.6492 71.2693 24.7454C71.102 24.8405 70.8877 24.8881 70.6263 24.8881H69.8128V24.5272H70.6132C70.7936 24.5272 70.9385 24.4961 71.0479 24.4337C71.1572 24.3714 71.2365 24.2872 71.2857 24.1811C71.336 24.074 71.3612 23.9531 71.3612 23.8186C71.3612 23.6841 71.336 23.5639 71.2857 23.4578C71.2365 23.3517 71.1567 23.2686 71.0462 23.2085C70.9358 23.1472 70.7893 23.1166 70.6066 23.1166H69.8915V26.115H69.4847ZM72.3642 26.115V23.5956H72.7381V23.9761H72.7644C72.8103 23.8515 72.8934 23.7503 73.0137 23.6727C73.134 23.595 73.2696 23.5562 73.4205 23.5562C73.4489 23.5562 73.4845 23.5568 73.5271 23.5578C73.5698 23.5589 73.602 23.5606 73.6239 23.5628V23.9564C73.6108 23.9531 73.5807 23.9482 73.5337 23.9417C73.4877 23.934 73.4391 23.9302 73.3877 23.9302C73.2652 23.9302 73.1559 23.9559 73.0596 24.0073C72.9645 24.0576 72.889 24.1276 72.8333 24.2172C72.7786 24.3058 72.7513 24.4069 72.7513 24.5207V26.115H72.3642ZM74.0827 26.115V23.5956H74.4698V26.115H74.0827ZM74.2796 23.1757C74.2041 23.1757 74.1391 23.15 74.0844 23.0986C74.0308 23.0472 74.004 22.9854 74.004 22.9132C74.004 22.8411 74.0308 22.7793 74.0844 22.7279C74.1391 22.6765 74.2041 22.6508 74.2796 22.6508C74.355 22.6508 74.4195 22.6765 74.4731 22.7279C74.5278 22.7793 74.5551 22.8411 74.5551 22.9132C74.5551 22.9854 74.5278 23.0472 74.4731 23.0986C74.4195 23.15 74.355 23.1757 74.2796 23.1757ZM76.2023 26.1675C75.9661 26.1675 75.7628 26.1117 75.5922 26.0002C75.4216 25.8886 75.2904 25.735 75.1985 25.5393C75.1067 25.3435 75.0607 25.1199 75.0607 24.8684C75.0607 24.6125 75.1078 24.3867 75.2018 24.191C75.2969 23.9942 75.4292 23.8405 75.5987 23.7301C75.7693 23.6185 75.9683 23.5628 76.1958 23.5628C76.3729 23.5628 76.5326 23.5956 76.6747 23.6612C76.8169 23.7268 76.9333 23.8186 77.0241 23.9367C77.1149 24.0548 77.1712 24.1926 77.193 24.3501H76.806C76.7764 24.2353 76.7108 24.1336 76.6091 24.045C76.5085 23.9553 76.3729 23.9105 76.2023 23.9105C76.0514 23.9105 75.9191 23.9499 75.8054 24.0286C75.6928 24.1062 75.6047 24.2161 75.5413 24.3583C75.479 24.4993 75.4478 24.665 75.4478 24.8553C75.4478 25.0499 75.4784 25.2194 75.5397 25.3638C75.602 25.5081 75.6895 25.6202 75.8021 25.7C75.9158 25.7798 76.0493 25.8197 76.2023 25.8197C76.3029 25.8197 76.3943 25.8023 76.4763 25.7673C76.5583 25.7323 76.6277 25.682 76.6846 25.6164C76.7414 25.5507 76.7819 25.472 76.806 25.3802H77.193C77.1712 25.5289 77.1171 25.6628 77.0307 25.782C76.9454 25.9001 76.8322 25.9942 76.6911 26.0641C76.5512 26.133 76.3882 26.1675 76.2023 26.1675ZM78.8153 26.1675C78.5725 26.1675 78.3631 26.1139 78.187 26.0067C78.0121 25.8985 77.877 25.7476 77.7819 25.554C77.6879 25.3594 77.6408 25.133 77.6408 24.875C77.6408 24.6169 77.6879 24.3895 77.7819 24.1926C77.877 23.9947 78.0093 23.8405 78.1788 23.7301C78.3494 23.6185 78.5484 23.5628 78.7759 23.5628C78.9071 23.5628 79.0367 23.5846 79.1646 23.6284C79.2926 23.6721 79.409 23.7432 79.514 23.8416C79.619 23.9389 79.7026 24.068 79.765 24.2287C79.8273 24.3895 79.8584 24.5874 79.8584 24.8225V24.9865H77.9164V24.6519H79.4648C79.4648 24.5097 79.4364 24.3829 79.3795 24.2714C79.3237 24.1598 79.2439 24.0718 79.14 24.0073C79.0372 23.9428 78.9159 23.9105 78.7759 23.9105C78.6217 23.9105 78.4883 23.9488 78.3757 24.0253C78.2641 24.1008 78.1783 24.1992 78.1181 24.3206C78.058 24.4419 78.0279 24.5721 78.0279 24.7109V24.934C78.0279 25.1243 78.0607 25.2856 78.1263 25.4179C78.1931 25.5491 78.2855 25.6492 78.4036 25.7181C78.5216 25.7858 78.6589 25.8197 78.8153 25.8197C78.9169 25.8197 79.0088 25.8055 79.0908 25.7771C79.1739 25.7476 79.2455 25.7038 79.3057 25.6459C79.3658 25.5868 79.4123 25.5136 79.4451 25.4261L79.8191 25.5311C79.7797 25.6579 79.7136 25.7694 79.6206 25.8657C79.5277 25.9608 79.4128 26.0352 79.2762 26.0887C79.1395 26.1412 78.9858 26.1675 78.8153 26.1675Z" fill="#A9A9A9"/>
<path d="M52.116 36.9746V31.5758H52.4619V36.9746H52.116ZM53.1135 33.303C53.0938 33.1188 53.0109 32.9754 52.8647 32.8728C52.7199 32.7702 52.5315 32.7188 52.2995 32.7188C52.1364 32.7188 51.9965 32.7434 51.8798 32.7926C51.7631 32.8419 51.6739 32.9086 51.612 32.993C51.5501 33.0773 51.5185 33.1737 51.5171 33.2819C51.5171 33.3719 51.5375 33.4499 51.5782 33.516C51.6204 33.5821 51.6774 33.6383 51.7491 33.6847C51.8208 33.7297 51.9002 33.7677 51.9874 33.7986C52.0745 33.8295 52.1624 33.8555 52.251 33.8766L52.6559 33.9778C52.819 34.0158 52.9757 34.0671 53.1262 34.1318C53.278 34.1965 53.4137 34.278 53.5332 34.3764C53.6541 34.4748 53.7497 34.5936 53.82 34.7328C53.8903 34.872 53.9254 35.0351 53.9254 35.2221C53.9254 35.4751 53.8608 35.698 53.7314 35.8906C53.6021 36.0818 53.4151 36.2315 53.1705 36.3398C52.9272 36.4466 52.6327 36.5001 52.2868 36.5001C51.9508 36.5001 51.6591 36.448 51.4116 36.344C51.1656 36.24 50.973 36.0881 50.8338 35.8885C50.696 35.6888 50.6215 35.4456 50.6103 35.1588H51.38C51.3913 35.3093 51.4377 35.4344 51.5192 35.5342C51.6007 35.634 51.7069 35.7085 51.8376 35.7577C51.9698 35.8069 52.1174 35.8316 52.2805 35.8316C52.4506 35.8316 52.5997 35.8062 52.7276 35.7556C52.8569 35.7036 52.9582 35.6319 53.0313 35.5405C53.1044 35.4477 53.1416 35.3395 53.143 35.2158C53.1416 35.1033 53.1086 35.0105 53.0439 34.9374C52.9793 34.8629 52.8886 34.801 52.7719 34.7518C52.6566 34.7012 52.5216 34.6562 52.367 34.6168L51.8756 34.4903C51.5199 34.3989 51.2387 34.2604 51.032 34.0748C50.8268 33.8879 50.7241 33.6397 50.7241 33.3304C50.7241 33.0759 50.793 32.8531 50.9308 32.6619C51.07 32.4707 51.2591 32.3224 51.4981 32.2169C51.7371 32.1101 52.0078 32.0566 52.31 32.0566C52.6165 32.0566 52.8851 32.1101 53.1156 32.2169C53.3476 32.3224 53.5297 32.4693 53.6618 32.6577C53.794 32.8447 53.8622 33.0598 53.8664 33.303H53.1135ZM56.1308 36.4937C55.8271 36.4937 55.5572 36.4417 55.321 36.3377C55.0862 36.2336 54.9006 36.0888 54.7642 35.9033C54.6279 35.7177 54.5555 35.5033 54.547 35.26H55.34C55.347 35.3767 55.3857 35.4787 55.456 35.5658C55.5263 35.6516 55.6198 35.7184 55.7364 35.7662C55.8531 35.814 55.9839 35.8379 56.1287 35.8379C56.2833 35.8379 56.4204 35.8112 56.5399 35.7577C56.6594 35.7029 56.7529 35.627 56.8204 35.53C56.8879 35.433 56.9209 35.3212 56.9195 35.1947C56.9209 35.0639 56.8872 34.9486 56.8183 34.8488C56.7494 34.749 56.6496 34.671 56.5188 34.6147C56.3895 34.5585 56.2334 34.5304 56.0507 34.5304H55.669V33.9272H56.0507C56.2011 33.9272 56.3326 33.9012 56.445 33.8492C56.5589 33.7972 56.6482 33.7241 56.7129 33.6299C56.7775 33.5343 56.8092 33.4239 56.8078 33.2988C56.8092 33.1765 56.7817 33.0703 56.7255 32.9803C56.6707 32.889 56.5926 32.818 56.4914 32.7673C56.3916 32.7167 56.2742 32.6914 56.1392 32.6914C56.0071 32.6914 55.8848 32.7153 55.7723 32.7631C55.6598 32.8109 55.5691 32.8791 55.5002 32.9677C55.4314 33.0549 55.3948 33.1589 55.3906 33.2798H54.6377C54.6433 33.038 54.7129 32.8257 54.8465 32.6429C54.9815 32.4587 55.1614 32.3153 55.3864 32.2127C55.6113 32.1087 55.8637 32.0566 56.1435 32.0566C56.4317 32.0566 56.6819 32.1108 56.8942 32.219C57.1079 32.3259 57.2731 32.47 57.3898 32.6514C57.5065 32.8327 57.5648 33.0331 57.5648 33.2524C57.5663 33.4956 57.4945 33.6995 57.3497 33.864C57.2063 34.0285 57.0179 34.136 56.7846 34.1866V34.2204C57.0882 34.2625 57.3209 34.375 57.4826 34.5578C57.6457 34.7391 57.7265 34.9648 57.7251 35.2347C57.7251 35.4766 57.6562 35.6931 57.5184 35.8843C57.3821 36.0741 57.1937 36.2231 56.9533 36.3314C56.7143 36.4396 56.4401 36.4937 56.1308 36.4937ZM58.8001 36.4811C58.6722 36.4811 58.5625 36.4361 58.4711 36.3461C58.3798 36.2561 58.3348 36.1465 58.3362 36.0171C58.3348 35.8906 58.3798 35.7823 58.4711 35.6924C58.5625 35.6024 58.6722 35.5574 58.8001 35.5574C58.9238 35.5574 59.0314 35.6024 59.1228 35.6924C59.2156 35.7823 59.2627 35.8906 59.2641 36.0171C59.2627 36.1029 59.2402 36.1809 59.1966 36.2512C59.1544 36.3215 59.0982 36.3778 59.0279 36.4199C58.959 36.4607 58.8831 36.4811 58.8001 36.4811ZM61.267 32.1157V36.4347H60.4846V32.877H60.4593L59.4491 33.5223V32.8053L60.5226 32.1157H61.267ZM64.1203 32.1157V36.4347H63.3379V32.877H63.3126L62.3025 33.5223V32.8053L63.3759 32.1157H64.1203ZM66.8134 36.5169C66.4661 36.5169 66.168 36.4291 65.9192 36.2533C65.6718 36.0762 65.4812 35.821 65.3477 35.4878C65.2155 35.1532 65.1495 34.7504 65.1495 34.2794C65.1509 33.8084 65.2176 33.4077 65.3498 33.0773C65.4834 32.7455 65.6739 32.4925 65.9213 32.3181C66.1702 32.1438 66.4675 32.0566 66.8134 32.0566C67.1592 32.0566 67.4566 32.1438 67.7054 32.3181C67.9543 32.4925 68.1448 32.7455 68.2769 33.0773C68.4105 33.4091 68.4773 33.8098 68.4773 34.2794C68.4773 34.7518 68.4105 35.1553 68.2769 35.4899C68.1448 35.8231 67.9543 36.0776 67.7054 36.2533C67.458 36.4291 67.1606 36.5169 66.8134 36.5169ZM66.8134 35.8569C67.0833 35.8569 67.2963 35.724 67.4524 35.4583C67.6098 35.1912 67.6885 34.7982 67.6885 34.2794C67.6885 33.9364 67.6527 33.6482 67.581 33.4148C67.5093 33.1814 67.4081 33.0056 67.2773 32.8875C67.1466 32.768 66.9919 32.7083 66.8134 32.7083C66.5448 32.7083 66.3325 32.8419 66.1765 33.109C66.0204 33.3747 65.9417 33.7648 65.9403 34.2794C65.9389 34.6239 65.9733 34.9135 66.0436 35.1483C66.1153 35.3831 66.2165 35.5602 66.3473 35.6797C66.478 35.7978 66.6334 35.8569 66.8134 35.8569ZM69.9145 35.8442L69.8871 36.0762C69.8674 36.2533 69.8322 36.4333 69.7816 36.6161C69.7324 36.8002 69.6804 36.9696 69.6256 37.1243C69.5707 37.2789 69.5264 37.4006 69.4927 37.4891H68.9781C68.9978 37.4034 69.0245 37.2867 69.0583 37.1391C69.0934 36.9914 69.1272 36.8255 69.1595 36.6414C69.1918 36.4572 69.2136 36.2702 69.2249 36.0804L69.2396 35.8442H69.9145ZM72.1662 36.4937C71.8626 36.4937 71.5926 36.4417 71.3564 36.3377C71.1216 36.2336 70.9361 36.0888 70.7997 35.9033C70.6633 35.7177 70.5909 35.5033 70.5825 35.26H71.3754C71.3824 35.3767 71.4211 35.4787 71.4914 35.5658C71.5617 35.6516 71.6552 35.7184 71.7719 35.7662C71.8886 35.814 72.0193 35.8379 72.1641 35.8379C72.3188 35.8379 72.4559 35.8112 72.5754 35.7577C72.6949 35.7029 72.7884 35.627 72.8558 35.53C72.9233 35.433 72.9564 35.3212 72.955 35.1947C72.9564 35.0639 72.9226 34.9486 72.8537 34.8488C72.7848 34.749 72.685 34.671 72.5543 34.6147C72.4249 34.5585 72.2689 34.5304 72.0861 34.5304H71.7044V33.9272H72.0861C72.2365 33.9272 72.368 33.9012 72.4805 33.8492C72.5943 33.7972 72.6836 33.7241 72.7483 33.6299C72.813 33.5343 72.8446 33.4239 72.8432 33.2988C72.8446 33.1765 72.8172 33.0703 72.7609 32.9803C72.7061 32.889 72.6281 32.818 72.5269 32.7673C72.427 32.7167 72.3096 32.6914 72.1747 32.6914C72.0425 32.6914 71.9202 32.7153 71.8077 32.7631C71.6953 32.8109 71.6046 32.8791 71.5357 32.9677C71.4668 33.0549 71.4302 33.1589 71.426 33.2798H70.6731C70.6788 33.038 70.7484 32.8257 70.8819 32.6429C71.0169 32.4587 71.1969 32.3153 71.4218 32.2127C71.6468 32.1087 71.8991 32.0566 72.1789 32.0566C72.4671 32.0566 72.7174 32.1108 72.9297 32.219C73.1434 32.3259 73.3086 32.47 73.4252 32.6514C73.5419 32.8327 73.6003 33.0331 73.6003 33.2524C73.6017 33.4956 73.53 33.6995 73.3852 33.864C73.2418 34.0285 73.0534 34.136 72.82 34.1866V34.2204C73.1237 34.2625 73.3564 34.375 73.518 34.5578C73.6811 34.7391 73.762 34.9648 73.7606 35.2347C73.7606 35.4766 73.6917 35.6931 73.5539 35.8843C73.4175 36.0741 73.2291 36.2231 72.9887 36.3314C72.7497 36.4396 72.4755 36.4937 72.1662 36.4937ZM76.2411 32.1157V36.4347H75.4587V32.877H75.4334L74.4233 33.5223V32.8053L75.4967 32.1157H76.2411Z" fill="#2C3131"/>
<rect x="6.76359" y="42.5588" width="114.153" height="15.5064" rx="1.15473" stroke="#CACACA" stroke-width="0.329923"/>
<path d="M13.4176 51.876C13.1475 51.876 12.9157 51.8076 12.7222 51.671C12.5297 51.5332 12.3815 51.3347 12.2777 51.0755C12.1749 50.8153 12.1235 50.502 12.1235 50.1357C12.1246 49.7694 12.1765 49.4577 12.2793 49.2007C12.3832 48.9427 12.5314 48.7458 12.7238 48.6103C12.9174 48.4747 13.1486 48.4069 13.4176 48.4069C13.6866 48.4069 13.9179 48.4747 14.1115 48.6103C14.305 48.7458 14.4532 48.9427 14.556 49.2007C14.6598 49.4588 14.7118 49.7705 14.7118 50.1357C14.7118 50.5031 14.6598 50.8169 14.556 51.0772C14.4532 51.3363 14.305 51.5343 14.1115 51.671C13.919 51.8076 13.6877 51.876 13.4176 51.876ZM13.4176 51.3626C13.6276 51.3626 13.7932 51.2592 13.9146 51.0526C14.0371 50.8448 14.0983 50.5392 14.0983 50.1357C14.0983 49.8689 14.0704 49.6447 14.0147 49.4632C13.9589 49.2817 13.8802 49.145 13.7785 49.0531C13.6768 48.9602 13.5565 48.9137 13.4176 48.9137C13.2088 48.9137 13.0437 49.0176 12.9223 49.2253C12.8009 49.432 12.7397 49.7355 12.7386 50.1357C12.7375 50.4036 12.7643 50.6288 12.8189 50.8115C12.8747 50.9941 12.9534 51.1319 13.0551 51.2248C13.1568 51.3167 13.2777 51.3626 13.4176 51.3626ZM15.4983 51.8481C15.3988 51.8481 15.3135 51.8131 15.2424 51.7431C15.1713 51.6731 15.1363 51.5878 15.1374 51.4872C15.1363 51.3888 15.1713 51.3046 15.2424 51.2346C15.3135 51.1647 15.3988 51.1297 15.4983 51.1297C15.5945 51.1297 15.6782 51.1647 15.7492 51.2346C15.8214 51.3046 15.858 51.3888 15.8591 51.4872C15.858 51.5539 15.8405 51.6146 15.8066 51.6693C15.7738 51.724 15.7301 51.7677 15.6754 51.8005C15.6218 51.8322 15.5628 51.8481 15.4983 51.8481ZM17.417 48.4528V51.812H16.8084V49.0449H16.7887L16.0031 49.5468V48.9892L16.8379 48.4528H17.417ZM19.464 51.8579C19.2201 51.8579 19.0036 51.8169 18.8144 51.7349C18.6264 51.6529 18.4787 51.5408 18.3716 51.3987C18.2655 51.2554 18.213 51.093 18.2141 50.9115C18.213 50.7705 18.2436 50.6409 18.306 50.5228C18.3683 50.4047 18.4525 50.3063 18.5586 50.2275C18.6657 50.1477 18.7849 50.0969 18.9161 50.075V50.052C18.7434 50.0138 18.6034 49.9257 18.4962 49.788C18.3902 49.6491 18.3377 49.4889 18.3388 49.3074C18.3377 49.1346 18.3858 48.9804 18.4831 48.8448C18.5804 48.7092 18.7138 48.6026 18.8833 48.525C19.0528 48.4462 19.2464 48.4069 19.464 48.4069C19.6794 48.4069 19.8713 48.4462 20.0397 48.525C20.2092 48.6026 20.3426 48.7092 20.4399 48.8448C20.5383 48.9804 20.5875 49.1346 20.5875 49.3074C20.5875 49.4889 20.5334 49.6491 20.4252 49.788C20.318 49.9257 20.1797 50.0138 20.0102 50.052V50.075C20.1414 50.0969 20.2595 50.1477 20.3645 50.2275C20.4705 50.3063 20.5547 50.4047 20.6171 50.5228C20.6805 50.6409 20.7122 50.7705 20.7122 50.9115C20.7122 51.093 20.6586 51.2554 20.5515 51.3987C20.4443 51.5408 20.2967 51.6529 20.1086 51.7349C19.9216 51.8169 19.7067 51.8579 19.464 51.8579ZM19.464 51.3888C19.5897 51.3888 19.6991 51.3675 19.792 51.3249C19.885 51.2811 19.9571 51.2199 20.0085 51.1412C20.0599 51.0624 20.0862 50.9717 20.0873 50.8689C20.0862 50.7617 20.0583 50.6671 20.0036 50.5851C19.95 50.502 19.8762 50.4369 19.7822 50.3899C19.6892 50.3429 19.5832 50.3194 19.464 50.3194C19.3437 50.3194 19.2365 50.3429 19.1425 50.3899C19.0485 50.4369 18.9741 50.502 18.9194 50.5851C18.8658 50.6671 18.8396 50.7617 18.8407 50.8689C18.8396 50.9717 18.8647 51.0624 18.9161 51.1412C18.9675 51.2188 19.0397 51.2795 19.1327 51.3232C19.2267 51.367 19.3371 51.3888 19.464 51.3888ZM19.464 49.8585C19.5668 49.8585 19.6575 49.8377 19.7363 49.7962C19.8161 49.7546 19.879 49.6966 19.9249 49.6223C19.9708 49.5479 19.9943 49.4621 19.9954 49.3648C19.9943 49.2685 19.9714 49.1843 19.9265 49.1122C19.8817 49.0389 19.8194 48.9826 19.7395 48.9432C19.6597 48.9028 19.5679 48.8825 19.464 48.8825C19.3579 48.8825 19.2644 48.9028 19.1835 48.9432C19.1037 48.9826 19.0413 49.0389 18.9965 49.1122C18.9528 49.1843 18.9314 49.2685 18.9325 49.3648C18.9314 49.4621 18.9533 49.5479 18.9982 49.6223C19.0441 49.6956 19.107 49.7535 19.1868 49.7962C19.2677 49.8377 19.3601 49.8585 19.464 49.8585ZM21.2514 51.812V51.3724L22.4177 50.2292C22.5292 50.1165 22.6221 50.0165 22.6965 49.929C22.7708 49.8415 22.8266 49.7568 22.8638 49.6748C22.901 49.5928 22.9196 49.5053 22.9196 49.4123C22.9196 49.3063 22.8955 49.2155 22.8474 49.1401C22.7993 49.0635 22.7331 49.0045 22.6489 48.9629C22.5647 48.9214 22.469 48.9006 22.3619 48.9006C22.2514 48.9006 22.1547 48.9235 22.0716 48.9695C21.9885 49.0143 21.9239 49.0783 21.878 49.1614C21.8332 49.2445 21.8108 49.3434 21.8108 49.4583H21.2318C21.2318 49.245 21.2804 49.0597 21.3777 48.9022C21.4751 48.7448 21.609 48.6228 21.7796 48.5364C21.9513 48.4501 22.1481 48.4069 22.3701 48.4069C22.5953 48.4069 22.7933 48.449 22.9639 48.5332C23.1344 48.6174 23.2668 48.7327 23.3608 48.8793C23.4559 49.0258 23.5035 49.1931 23.5035 49.3812C23.5035 49.5069 23.4794 49.6305 23.4313 49.7519C23.3832 49.8732 23.2985 50.0077 23.1771 50.1554C23.0568 50.303 22.8879 50.4818 22.6702 50.6917L22.0912 51.2806V51.3035H23.5543V51.812H21.2514ZM23.9874 51.1887V50.7048L25.4127 48.4528H25.8162V49.1417H25.5702L24.6107 50.6622V50.6884H26.6003V51.1887H23.9874ZM25.5899 51.812V51.0411L25.5964 50.8246V48.4528H26.1705V51.812H25.5899Z" fill="#626262"/>
<g clip-path="url(#clip0_6103_705)">
<path d="M91.2867 54.2711C93.4733 54.2711 95.2458 52.4985 95.2458 50.312C95.2458 48.1254 93.4733 46.3529 91.2867 46.3529C89.1002 46.3529 87.3276 48.1254 87.3276 50.312C87.3276 52.4985 89.1002 54.2711 91.2867 54.2711Z" fill="#F7931A"/>
<path d="M93.0655 49.822C93.1432 49.3034 92.748 49.0245 92.2081 48.8384L92.3833 48.1357L91.9557 48.0293L91.785 48.7135C91.6726 48.6853 91.5573 48.659 91.4423 48.6328L91.6143 47.9442L91.1867 47.8375L91.0115 48.54C90.9184 48.5187 90.8269 48.4979 90.7383 48.4757L90.7388 48.4735L90.1489 48.3262L90.0351 48.783C90.0351 48.783 90.3525 48.8558 90.3459 48.8602C90.5191 48.9035 90.5503 49.0181 90.5451 49.1091L90.3456 49.9096C90.3575 49.9126 90.3728 49.917 90.3902 49.9237L90.3449 49.9126L90.0653 51.034C90.044 51.0864 89.9903 51.1654 89.869 51.1354C89.8735 51.1416 89.5583 51.058 89.5583 51.058L89.3459 51.5474L89.9027 51.6862C90.0061 51.7122 90.1076 51.7394 90.2073 51.7649L90.0304 52.4756L90.4577 52.582L90.6329 51.8793C90.7497 51.9107 90.863 51.9399 90.9739 51.9676L90.7992 52.6674L91.2268 52.7738L91.4037 52.0646C92.1331 52.2027 92.6815 52.147 92.9123 51.4873C93.0984 50.9563 92.9032 50.6497 92.5194 50.45C92.799 50.3857 93.0093 50.2018 93.0655 49.822V49.822ZM92.0881 51.1924C91.9562 51.7236 91.0617 51.4363 90.7717 51.3643L91.0068 50.4228C91.2968 50.4953 92.2264 50.6386 92.0881 51.1924ZM92.2205 49.8143C92.1 50.2976 91.3557 50.0519 91.1144 49.9918L91.3272 49.1381C91.5685 49.1982 92.3462 49.3103 92.2205 49.8143Z" fill="white"/>
</g>
<path d="M98.2166 51.812V48.4528H99.5025C99.7453 48.4528 99.947 48.4911 100.108 48.5676C100.27 48.6431 100.39 48.7464 100.47 48.8776C100.551 49.0088 100.592 49.1575 100.592 49.3238C100.592 49.4604 100.565 49.5775 100.513 49.6748C100.46 49.771 100.39 49.8492 100.301 49.9093C100.213 49.9695 100.114 50.0127 100.004 50.0389V50.0717C100.124 50.0783 100.238 50.1149 100.347 50.1816C100.458 50.2472 100.548 50.3402 100.618 50.4605C100.688 50.5807 100.723 50.7262 100.723 50.8968C100.723 51.0706 100.681 51.227 100.597 51.3659C100.512 51.5036 100.386 51.6124 100.216 51.6923C100.047 51.7721 99.8333 51.812 99.5763 51.812H98.2166ZM98.8251 51.3035H99.4796C99.7005 51.3035 99.8596 51.2614 99.9569 51.1772C100.055 51.0919 100.105 50.9826 100.105 50.8492C100.105 50.7497 100.08 50.66 100.031 50.5802C99.9815 50.4993 99.9115 50.4358 99.8207 50.3899C99.73 50.3429 99.6217 50.3194 99.496 50.3194H98.8251V51.3035ZM98.8251 49.8814H99.4271C99.5321 49.8814 99.6266 49.8623 99.7108 49.824C99.795 49.7847 99.8612 49.7294 99.9093 49.6584C99.9585 49.5862 99.9831 49.5009 99.9831 49.4025C99.9831 49.2724 99.9372 49.1652 99.8453 49.081C99.7546 48.9968 99.6195 48.9547 99.4402 48.9547H98.8251V49.8814ZM101.105 48.9629V48.4528H103.785V48.9629H102.747V51.812H102.143V48.9629H101.105ZM107.028 49.5862H106.415C106.397 49.4856 106.365 49.3965 106.318 49.3188C106.271 49.2401 106.212 49.1734 106.142 49.1187C106.072 49.0641 105.992 49.023 105.903 48.9957C105.814 48.9673 105.719 48.9531 105.616 48.9531C105.433 48.9531 105.271 48.999 105.13 49.0908C104.989 49.1816 104.879 49.315 104.799 49.4911C104.719 49.666 104.679 49.8798 104.679 50.1324C104.679 50.3894 104.719 50.6059 104.799 50.7819C104.88 50.9569 104.99 51.0892 105.13 51.1789C105.271 51.2675 105.433 51.3117 105.614 51.3117C105.715 51.3117 105.809 51.2986 105.896 51.2724C105.985 51.245 106.064 51.2051 106.134 51.1526C106.205 51.1001 106.265 51.0356 106.313 50.9591C106.362 50.8825 106.396 50.7951 106.415 50.6966L107.028 50.6999C107.005 50.8596 106.955 51.0094 106.879 51.1494C106.803 51.2893 106.704 51.4129 106.582 51.52C106.459 51.6261 106.316 51.7092 106.152 51.7694C105.988 51.8284 105.806 51.8579 105.606 51.8579C105.311 51.8579 105.047 51.7896 104.815 51.6529C104.583 51.5162 104.401 51.3188 104.267 51.0608C104.134 50.8027 104.067 50.4933 104.067 50.1324C104.067 49.7705 104.135 49.461 104.269 49.204C104.404 48.946 104.587 48.7486 104.819 48.6119C105.05 48.4752 105.313 48.4069 105.606 48.4069C105.793 48.4069 105.967 48.4331 106.127 48.4856C106.288 48.5381 106.431 48.6152 106.557 48.7169C106.683 48.8175 106.786 48.941 106.867 49.0876C106.949 49.233 107.003 49.3992 107.028 49.5862Z" fill="#626262"/>
<path d="M115.144 49.6521L113.824 50.9718L112.504 49.6521" stroke="#626262" stroke-width="0.659847" stroke-linecap="round" stroke-linejoin="round"/>
<path d="M13.4176 71.6714C13.1475 71.6714 12.9157 71.603 12.7222 71.4664C12.5297 71.3286 12.3815 71.1301 12.2777 70.871C12.1749 70.6107 12.1235 70.2974 12.1235 69.9311C12.1246 69.5648 12.1765 69.2531 12.2793 68.9962C12.3832 68.7381 12.5314 68.5413 12.7238 68.4057C12.9174 68.2701 13.1486 68.2023 13.4176 68.2023C13.6866 68.2023 13.9179 68.2701 14.1115 68.4057C14.305 68.5413 14.4532 68.7381 14.556 68.9962C14.6598 69.2542 14.7118 69.5659 14.7118 69.9311C14.7118 70.2985 14.6598 70.6123 14.556 70.8726C14.4532 71.1318 14.305 71.3297 14.1115 71.4664C13.919 71.603 13.6877 71.6714 13.4176 71.6714ZM13.4176 71.158C13.6276 71.158 13.7932 71.0547 13.9146 70.848C14.0371 70.6402 14.0983 70.3346 14.0983 69.9311C14.0983 69.6643 14.0704 69.4401 14.0147 69.2586C13.9589 69.0771 13.8802 68.9404 13.7785 68.8485C13.6768 68.7556 13.5565 68.7091 13.4176 68.7091C13.2088 68.7091 13.0437 68.813 12.9223 69.0208C12.8009 69.2274 12.7397 69.5309 12.7386 69.9311C12.7375 70.199 12.7643 70.4243 12.8189 70.6069C12.8747 70.7895 12.9534 70.9273 13.0551 71.0202C13.1568 71.1121 13.2777 71.158 13.4176 71.158ZM15.4983 71.6435C15.3988 71.6435 15.3135 71.6085 15.2424 71.5385C15.1713 71.4685 15.1363 71.3833 15.1374 71.2827C15.1363 71.1842 15.1713 71.1 15.2424 71.0301C15.3135 70.9601 15.3988 70.9251 15.4983 70.9251C15.5945 70.9251 15.6782 70.9601 15.7492 71.0301C15.8214 71.1 15.858 71.1842 15.8591 71.2827C15.858 71.3494 15.8405 71.41 15.8066 71.4647C15.7738 71.5194 15.7301 71.5631 15.6754 71.5959C15.6218 71.6277 15.5628 71.6435 15.4983 71.6435ZM17.417 68.2482V71.6074H16.8084V68.8403H16.7887L16.0031 69.3422V68.7846L16.8379 68.2482H17.417ZM19.464 71.6533C19.2201 71.6533 19.0036 71.6123 18.8144 71.5303C18.6264 71.4483 18.4787 71.3362 18.3716 71.1941C18.2655 71.0508 18.213 70.8884 18.2141 70.7069C18.213 70.5659 18.2436 70.4363 18.306 70.3182C18.3683 70.2001 18.4525 70.1017 18.5586 70.0229C18.6657 69.9431 18.7849 69.8923 18.9161 69.8704V69.8474C18.7434 69.8092 18.6034 69.7211 18.4962 69.5834C18.3902 69.4445 18.3377 69.2843 18.3388 69.1028C18.3377 68.93 18.3858 68.7758 18.4831 68.6402C18.5804 68.5046 18.7138 68.398 18.8833 68.3204C19.0528 68.2416 19.2464 68.2023 19.464 68.2023C19.6794 68.2023 19.8713 68.2416 20.0397 68.3204C20.2092 68.398 20.3426 68.5046 20.4399 68.6402C20.5383 68.7758 20.5875 68.93 20.5875 69.1028C20.5875 69.2843 20.5334 69.4445 20.4252 69.5834C20.318 69.7211 20.1797 69.8092 20.0102 69.8474V69.8704C20.1414 69.8923 20.2595 69.9431 20.3645 70.0229C20.4705 70.1017 20.5547 70.2001 20.6171 70.3182C20.6805 70.4363 20.7122 70.5659 20.7122 70.7069C20.7122 70.8884 20.6586 71.0508 20.5515 71.1941C20.4443 71.3362 20.2967 71.4483 20.1086 71.5303C19.9216 71.6123 19.7067 71.6533 19.464 71.6533ZM19.464 71.1842C19.5897 71.1842 19.6991 71.1629 19.792 71.1203C19.885 71.0765 19.9571 71.0153 20.0085 70.9366C20.0599 70.8578 20.0862 70.7671 20.0873 70.6643C20.0862 70.5571 20.0583 70.4625 20.0036 70.3805C19.95 70.2974 19.8762 70.2324 19.7822 70.1853C19.6892 70.1383 19.5832 70.1148 19.464 70.1148C19.3437 70.1148 19.2365 70.1383 19.1425 70.1853C19.0485 70.2324 18.9741 70.2974 18.9194 70.3805C18.8658 70.4625 18.8396 70.5571 18.8407 70.6643C18.8396 70.7671 18.8647 70.8578 18.9161 70.9366C18.9675 71.0142 19.0397 71.0749 19.1327 71.1186C19.2267 71.1624 19.3371 71.1842 19.464 71.1842ZM19.464 69.6539C19.5668 69.6539 19.6575 69.6331 19.7363 69.5916C19.8161 69.55 19.879 69.4921 19.9249 69.4177C19.9708 69.3433 19.9943 69.2575 19.9954 69.1602C19.9943 69.0639 19.9714 68.9798 19.9265 68.9076C19.8817 68.8343 19.8194 68.778 19.7395 68.7386C19.6597 68.6982 19.5679 68.6779 19.464 68.6779C19.3579 68.6779 19.2644 68.6982 19.1835 68.7386C19.1037 68.778 19.0413 68.8343 18.9965 68.9076C18.9528 68.9798 18.9314 69.0639 18.9325 69.1602C18.9314 69.2575 18.9533 69.3433 18.9982 69.4177C19.0441 69.491 19.107 69.5489 19.1868 69.5916C19.2677 69.6331 19.3601 69.6539 19.464 69.6539ZM21.2514 71.6074V71.1678L22.4177 70.0246C22.5292 69.912 22.6221 69.8119 22.6965 69.7244C22.7708 69.6369 22.8266 69.5522 22.8638 69.4702C22.901 69.3882 22.9196 69.3007 22.9196 69.2077C22.9196 69.1017 22.8955 69.0109 22.8474 68.9355C22.7993 68.8589 22.7331 68.7999 22.6489 68.7583C22.5647 68.7168 22.469 68.696 22.3619 68.696C22.2514 68.696 22.1547 68.719 22.0716 68.7649C21.9885 68.8097 21.9239 68.8737 21.878 68.9568C21.8332 69.0399 21.8108 69.1389 21.8108 69.2537H21.2318C21.2318 69.0404 21.2804 68.8551 21.3777 68.6976C21.4751 68.5402 21.609 68.4182 21.7796 68.3319C21.9513 68.2455 22.1481 68.2023 22.3701 68.2023C22.5953 68.2023 22.7933 68.2444 22.9639 68.3286C23.1344 68.4128 23.2668 68.5281 23.3608 68.6747C23.4559 68.8212 23.5035 68.9885 23.5035 69.1766C23.5035 69.3023 23.4794 69.4259 23.4313 69.5473C23.3832 69.6687 23.2985 69.8032 23.1771 69.9508C23.0568 70.0984 22.8879 70.2772 22.6702 70.4871L22.0912 71.076V71.0989H23.5543V71.6074H21.2514ZM23.9874 70.9841V70.5003L25.4127 68.2482H25.8162V68.9371H25.5702L24.6107 70.4576V70.4839H26.6003V70.9841H23.9874ZM25.5899 71.6074V70.8365L25.5964 70.62V68.2482H26.1705V71.6074H25.5899ZM27.9281 67.1656V72.69H27.3769V67.1656H27.9281Z" fill="#2C3131"/>
<g clip-path="url(#clip1_6103_705)">
<path d="M91.2867 74.0665C93.4733 74.0665 95.2458 72.2939 95.2458 70.1074C95.2458 67.9209 93.4733 66.1483 91.2867 66.1483C89.1002 66.1483 87.3276 67.9209 87.3276 70.1074C87.3276 72.2939 89.1002 74.0665 91.2867 74.0665Z" fill="#627EEA"/>
<path d="M91.4099 67.1381V69.3329L93.265 70.1618L91.4099 67.1381Z" fill="white" fill-opacity="0.602"/>
<path d="M91.41 67.1381L89.5547 70.1618L91.41 69.3329V67.1381Z" fill="white"/>
<path d="M91.4099 71.5842V73.0755L93.2662 70.5073L91.4099 71.5842Z" fill="white" fill-opacity="0.602"/>
<path d="M91.41 73.0755V71.5839L89.5547 70.5073L91.41 73.0755Z" fill="white"/>
<path d="M91.4099 71.2389L93.265 70.1618L91.4099 69.3334V71.2389Z" fill="white" fill-opacity="0.2"/>
<path d="M89.5547 70.1618L91.41 71.2389V69.3334L89.5547 70.1618Z" fill="white" fill-opacity="0.602"/>
</g>
<path d="M98.2166 71.6074V68.2482H100.401V68.7583H98.8251V69.6703H100.288V70.1804H98.8251V71.0973H100.415V71.6074H98.2166ZM100.875 68.7583V68.2482H103.555V68.7583H102.516V71.6074H101.913V68.7583H100.875ZM104.071 71.6074V68.2482H104.68V69.6703H106.237V68.2482H106.847V71.6074H106.237V70.1804H104.68V71.6074H104.071Z" fill="#626262"/>
<path d="M115.144 69.4475L113.824 70.7672L112.504 69.4475" stroke="#626262" stroke-width="0.659847" stroke-linecap="round" stroke-linejoin="round"/>
<path d="M53.219 93.5524V89.7133H54.6887C54.9661 89.7133 55.1967 89.757 55.3804 89.8445C55.5653 89.9307 55.7034 90.0488 55.7946 90.1988C55.8871 90.3487 55.9334 90.5187 55.9334 90.7087C55.9334 90.8649 55.9034 90.9986 55.8434 91.1098C55.7834 91.2198 55.7028 91.3091 55.6016 91.3779C55.5003 91.4466 55.3872 91.496 55.2623 91.526V91.5635C55.3985 91.571 55.5291 91.6128 55.6541 91.6891C55.7803 91.764 55.8834 91.8703 55.9634 92.0077C56.0433 92.1452 56.0833 92.3114 56.0833 92.5064C56.0833 92.7051 56.0352 92.8838 55.939 93.0425C55.8428 93.2 55.6978 93.3243 55.5041 93.4155C55.3104 93.5068 55.0667 93.5524 54.773 93.5524H53.219ZM53.9145 92.9713H54.6624C54.9149 92.9713 55.0967 92.9231 55.2079 92.8269C55.3204 92.7294 55.3766 92.6045 55.3766 92.452C55.3766 92.3383 55.3485 92.2358 55.2923 92.1446C55.236 92.0521 55.156 91.9796 55.0523 91.9271C54.9486 91.8734 54.8249 91.8465 54.6812 91.8465H53.9145V92.9713ZM53.9145 91.346H54.6024C54.7224 91.346 54.8305 91.3241 54.9267 91.2804C55.023 91.2354 55.0986 91.1723 55.1535 91.0911C55.2098 91.0086 55.2379 90.9111 55.2379 90.7986C55.2379 90.6499 55.1854 90.5274 55.0804 90.4312C54.9767 90.335 54.8224 90.2869 54.6174 90.2869H53.9145V91.346ZM58.4936 92.3414V90.673H59.1721V93.5524H58.5142V93.0406H58.4842C58.4192 93.2018 58.3123 93.3337 58.1636 93.4361C58.0162 93.5386 57.8343 93.5899 57.6181 93.5899C57.4294 93.5899 57.2626 93.548 57.1176 93.4643C56.9739 93.3793 56.8614 93.2562 56.7802 93.095C56.699 92.9325 56.6584 92.7363 56.6584 92.5064V90.673H57.3369V92.4014C57.3369 92.5838 57.3869 92.7288 57.4869 92.8363C57.5869 92.9438 57.7181 92.9975 57.8806 92.9975C57.9805 92.9975 58.0774 92.9731 58.1711 92.9244C58.2649 92.8757 58.3417 92.8032 58.4017 92.7069C58.4629 92.6095 58.4936 92.4876 58.4936 92.3414ZM60.2917 94.6321C60.1992 94.6321 60.1136 94.6246 60.0349 94.6096C59.9574 94.5959 59.8956 94.5796 59.8493 94.5609L60.0068 94.0323C60.1055 94.061 60.1936 94.0747 60.2711 94.0735C60.3486 94.0722 60.4167 94.0479 60.4754 94.0004C60.5354 93.9541 60.586 93.8767 60.6273 93.7679L60.6854 93.6124L59.6413 90.673H60.3611L61.0247 92.8475H61.0547L61.7201 90.673H62.4419L61.289 93.901C61.2353 94.0535 61.164 94.1841 61.0753 94.2928C60.9866 94.4028 60.8778 94.4865 60.7491 94.544C60.6216 94.6027 60.4692 94.6321 60.2917 94.6321ZM64.2508 93.5524V89.7133H66.7477V90.2962H64.9463V91.3385H66.6184V91.9215H64.9463V92.9694H66.7627V93.5524H64.2508ZM67.2885 90.2962V89.7133H70.3516V90.2962H69.165V93.5524H68.4751V90.2962H67.2885ZM70.9421 93.5524V89.7133H71.6375V91.3385H73.4165V89.7133H74.1138V93.5524H73.4165V91.9215H71.6375V93.5524H70.9421Z" fill="white"/>
<circle cx="64.0056" cy="60.0461" r="5.11381" fill="white" stroke="#E3E3E3" stroke-width="0.329923"/>
<defs>
<clipPath id="clip0_6103_705">
<rect width="7.91816" height="7.91816" fill="white" transform="translate(87.3276 46.3529)"/>
</clipPath>
<clipPath id="clip1_6103_705">
<rect width="7.91816" height="7.91816" fill="white" transform="translate(87.3276 66.1483)"/>
</clipPath>
</defs>
</svg>
