<svg width="152" height="31" viewBox="0 0 152 31" fill="none" xmlns="http://www.w3.org/2000/svg">
<path d="M9.29076 12.7636L15.1903 6.86641L21.0923 12.7684L24.5231 9.33515L15.1903 0L5.85756 9.33276L9.29076 12.7636Z" fill="#A9A9A9"/>
<path d="M0 15.1884L3.43195 11.7565L6.8639 15.1884L3.43195 18.6204L0 15.1884Z" fill="#A9A9A9"/>
<path d="M9.29077 17.6123L15.1903 23.5119L21.0923 17.6099L24.5255 21.0383L15.1903 30.3759L5.85276 21.0407L9.29077 17.6123Z" fill="#A9A9A9"/>
<path d="M23.5109 15.1892L26.9429 11.7573L30.3749 15.1892L26.9429 18.6212L23.5109 15.1892Z" fill="#A9A9A9"/>
<path d="M18.6714 15.1867L15.1902 11.7031L12.6159 14.2774L12.3184 14.5725L11.7043 15.1867L11.7091 15.1939L15.1902 18.6727L18.6738 15.1867H18.6714Z" fill="#A9A9A9"/>
<path d="M35.7296 7.36071H43.1958C45.0479 7.36071 46.449 7.84054 47.3991 8.80021C47.7571 9.1547 48.0392 9.57823 48.2285 10.0451C48.4178 10.5119 48.5103 11.0124 48.5003 11.5161V11.5616C48.5068 11.9743 48.4493 12.3854 48.33 12.7804C48.2237 13.1205 48.0694 13.4436 47.8717 13.7401C47.6875 14.0196 47.4646 14.2717 47.2096 14.4886C46.9605 14.7031 46.6876 14.8882 46.3963 15.0404C47.2363 15.333 47.9918 15.8273 48.5963 16.4799C49.1305 17.0877 49.3976 17.9274 49.3976 18.9991V19.0446C49.4128 19.7139 49.2672 20.377 48.973 20.9784C48.6879 21.5324 48.27 22.0072 47.7566 22.3603C47.1762 22.7494 46.5299 23.0299 45.8493 23.188C45.0406 23.3798 44.2116 23.4724 43.3805 23.4639H35.7296V7.36071ZM42.4472 13.872C43.0932 13.9033 43.736 13.7643 44.3114 13.469C44.5358 13.3379 44.719 13.1467 44.8402 12.9168C44.9615 12.687 45.016 12.4278 44.9975 12.1686V12.1231C45.0094 11.8842 44.9609 11.6463 44.8565 11.4311C44.7521 11.216 44.5951 11.0307 44.4002 10.8923C44.0019 10.6092 43.4269 10.4676 42.6752 10.4676H39.182V13.872H42.4472ZM43.3901 20.3618C44.0337 20.3978 44.6743 20.2506 45.2375 19.9371C45.4569 19.7962 45.6345 19.599 45.7518 19.366C45.8691 19.1331 45.9218 18.873 45.9044 18.6128V18.5672C45.9131 18.3199 45.861 18.0742 45.7526 17.8517C45.6443 17.6292 45.4831 17.4366 45.2831 17.2909C44.8704 16.971 44.2034 16.811 43.2821 16.811H39.182V20.3618H43.3901Z" fill="#A9A9A9"/>
<path d="M53.8457 7.36071H57.3892V23.4687H53.8457V7.36071Z" fill="#A9A9A9"/>
<path d="M62.7514 7.36071H66.0191L73.5716 17.2741V7.36071H77.0696V23.4687H74.0539L66.2542 13.2291V23.4687H62.7514V7.36071Z" fill="#A9A9A9"/>
<path d="M87.7987 7.24552H91.0616L97.964 23.4687H94.2645L92.7914 19.8555H85.9801L84.507 23.4687H80.8939L87.7987 7.24552ZM91.527 16.727L89.3821 11.5016L87.2469 16.727H91.527Z" fill="#A9A9A9"/>
<path d="M101.795 7.36071H105.063L112.611 17.2741V7.36071H116.109V23.4687H113.093L105.293 13.2291V23.4687H101.795V7.36071Z" fill="#A9A9A9"/>
<path d="M128.863 23.7518C127.734 23.7614 126.614 23.5427 125.571 23.1088C124.59 22.7035 123.699 22.1058 122.952 21.3509C122.205 20.5961 121.617 19.6993 121.221 18.7135C120.805 17.6824 120.594 16.5796 120.6 15.4675V15.4219C120.582 13.2296 121.425 11.1178 122.949 9.54151C123.699 8.77156 124.596 8.16114 125.588 7.74693C126.667 7.30012 127.825 7.07728 128.992 7.09196C129.683 7.08681 130.372 7.14868 131.051 7.2767C131.631 7.3865 132.199 7.55614 132.745 7.78292C133.24 7.99132 133.71 8.25361 134.148 8.56505C134.575 8.86879 134.977 9.20744 135.348 9.5775L133.095 12.1782C132.519 11.6471 131.873 11.1975 131.176 10.8419C130.49 10.514 129.738 10.3498 128.978 10.362C128.346 10.3553 127.719 10.4831 127.14 10.7371C126.561 10.9911 126.043 11.3654 125.619 11.8351C125.199 12.3036 124.871 12.8463 124.65 13.4354C124.419 14.0578 124.303 14.7171 124.307 15.3811V15.4267C124.305 16.0897 124.421 16.7478 124.65 17.37C124.868 17.9611 125.193 18.5069 125.61 18.9798C126.03 19.4554 126.547 19.8352 127.126 20.0935C127.706 20.3517 128.334 20.4825 128.968 20.4769C129.776 20.5024 130.578 20.3285 131.303 19.9707C131.993 19.5946 132.631 19.1301 133.201 18.5888L135.456 20.868C135.058 21.3002 134.627 21.7012 134.167 22.0676C133.716 22.4244 133.226 22.7295 132.706 22.9768C132.153 23.2375 131.569 23.43 130.969 23.5502C130.276 23.6893 129.57 23.7568 128.863 23.7518Z" fill="#A9A9A9"/>
<path d="M139.637 7.36071H151.76V10.5132H143.123V13.7809H150.729V16.9334H143.135V20.3162H151.88V23.4687H139.645L139.637 7.36071Z" fill="#A9A9A9"/>
</svg>
