<svg width="126" height="26" viewBox="0 0 126 26" fill="none" xmlns="http://www.w3.org/2000/svg">
<path d="M25.796 16.1312C24.0466 23.0698 16.9649 27.3111 9.91837 25.5754C2.91945 23.8411 -1.35868 16.8205 0.392102 9.83461C2.14148 2.896 9.2231 -1.34526 16.2697 0.390432C23.2686 2.12474 27.5467 9.14534 25.796 16.1312Z" fill="#A9A9A9"/>
<path d="M18.8621 11.1215C19.1215 9.38722 17.7926 8.45337 15.9787 7.84469L16.5619 5.49893L15.1363 5.14596L14.5532 7.42501L13.3869 7.16792L13.97 4.88886L12.5445 4.53589L11.9613 6.88165L11.0544 6.65653L9.09195 6.17431L8.70367 7.68349L9.74096 7.94058C9.94224 7.96332 10.1264 8.06369 10.2536 8.21998C10.3808 8.37627 10.4409 8.57593 10.4208 8.77577L9.74096 11.4439C9.7732 11.4439 9.83908 11.4759 9.90356 11.4759C9.87132 11.4759 9.80544 11.4439 9.74096 11.4439L8.80179 15.171C8.73731 15.3322 8.54247 15.6213 8.15418 15.524C8.15418 15.556 7.11689 15.2669 7.11689 15.2669L6.41602 16.9067L8.29436 17.357L9.33165 17.6141L8.74852 19.9765L10.1741 20.3295L10.7572 17.9837L11.8786 18.2728L11.2955 20.6185L12.7211 20.9715L13.3042 18.6091C15.7671 19.0593 17.5795 18.8981 18.3589 16.6816C18.9757 14.9167 18.3267 13.9023 17.03 13.2116C18.0029 13.017 18.6841 12.4084 18.8776 11.1229L18.8621 11.1215ZM15.5891 15.7158C15.1349 17.4807 12.1548 16.519 11.182 16.2939L11.9599 13.1463C12.9327 13.3714 16.0432 13.8411 15.6045 15.7172L15.5891 15.7158ZM16.0432 11.1215C15.6549 12.728 13.1276 11.9248 12.3174 11.6996L13.0182 8.84108C13.8285 9.06621 16.4525 9.41919 16.032 11.1201L16.0432 11.1215Z" fill="#F8F8FC"/>
<path d="M38.3689 7.84186C39.4384 7.84186 40.3313 8.03642 41.1233 8.388C41.9013 8.77294 42.5489 9.25515 43.0353 9.89717C43.554 10.5392 43.91 11.2785 44.1567 12.1456C44.3947 13.0475 44.5144 13.9761 44.5128 14.9083C44.5184 16.3738 44.2321 17.826 43.6703 19.1815C43.1403 20.4859 42.3589 21.6753 41.37 22.6835C40.3876 23.6807 39.2219 24.4826 37.9358 25.0459C36.5762 25.6314 35.1076 25.9268 33.6254 25.913H32.5881C32.1017 25.913 31.5186 25.8491 30.8709 25.7518L28.83 25.3669C28.1291 25.2057 27.4367 24.95 26.7891 24.6721L32.525 0.803226L37.6442 0L35.6032 8.48111C36.0574 8.28656 36.4779 8.12814 36.9321 8.03086C37.3956 7.8992 37.8756 7.83369 38.3577 7.83631L38.3689 7.84186ZM34.0599 21.9136C34.8379 21.9136 35.55 21.719 36.2326 21.3674C36.9191 20.983 37.5241 20.4706 38.0143 19.8583C38.5007 19.2468 38.8889 18.5409 39.1805 17.7377C39.4721 16.9344 39.601 16.1312 39.601 15.2641C39.601 14.2037 39.4384 13.4019 39.0824 12.7905C38.7263 12.2124 38.0773 11.8913 37.1382 11.8913C36.8158 11.8913 36.4373 11.9553 35.9397 12.0525C35.442 12.1498 35.0005 12.4055 34.6108 12.7474L32.4381 21.7427C32.5671 21.7746 32.6974 21.7746 32.7941 21.8066C32.8909 21.8385 32.9904 21.8385 33.1165 21.8705C33.2147 21.8705 33.3759 21.9025 33.5048 21.9025H34.0557L34.0599 21.9136ZM49.8716 25.5267H44.9655L49.1007 8.23097H54.0264L49.8716 25.5267ZM52.2378 6.12424C51.57 6.13306 50.9188 5.91755 50.3903 5.51279C49.8394 5.09589 49.5492 4.48444 49.5492 3.65064C49.5492 3.20039 49.6473 2.75153 49.8408 2.3652C50.0211 1.96911 50.274 1.6096 50.5865 1.30489C50.909 1.02168 51.2688 0.783254 51.6561 0.596166C52.0766 0.434965 52.4971 0.339077 52.9527 0.339077C53.6205 0.330257 54.2716 0.545767 54.8002 0.950529C55.3511 1.36743 55.6412 1.97888 55.6412 2.81268C55.6412 3.26293 55.5431 3.71179 55.3497 4.09812C55.1693 4.49421 54.9165 4.85372 54.6039 5.15843C54.3124 5.44748 53.9241 5.6726 53.5344 5.85326C53.1447 6.03391 52.7242 6.11035 52.2378 6.11035V6.12424ZM58.3298 3.93691L63.4826 3.13369L62.2182 8.24209H67.7271L66.722 12.2721H61.2454L59.7876 18.3116C59.6693 18.775 59.5933 19.248 59.5605 19.7249C59.5297 20.1737 59.5927 20.5281 59.7231 20.8366C59.7864 21.0007 59.8822 21.1506 60.0047 21.2776C60.1272 21.4045 60.274 21.5059 60.4366 21.5759C60.7926 21.7371 61.2776 21.833 61.8944 21.833C62.4131 21.833 62.9317 21.7691 63.4363 21.6718C63.9447 21.5772 64.4435 21.4372 64.9264 21.2535L65.2824 25.0125C64.5824 25.2582 63.8681 25.4619 63.1434 25.6226C62.3654 25.8171 61.4585 25.8797 60.3889 25.8797C58.8666 25.8797 57.6976 25.6546 56.8565 25.2057C56.0155 24.7568 55.431 24.1454 55.0763 23.3741C54.7217 22.6029 54.5577 21.7037 54.6222 20.706C54.6544 19.7096 54.8184 18.6493 55.0763 17.5097L58.3298 3.93691ZM67.5 18.6187C67.5023 17.1867 67.7434 15.7649 68.2135 14.4108C68.6765 13.1444 69.3803 11.9778 70.2867 10.9742C71.1936 9.97778 72.2954 9.20929 73.592 8.62841C74.8886 8.04753 76.3142 7.76127 77.9024 7.76127C78.9074 7.76127 79.7807 7.85854 80.5601 8.05031C81.3394 8.24209 82.0501 8.46721 82.6991 8.78961L81.0142 12.6112C80.5601 12.4166 80.1073 12.2916 79.6545 12.129C79.1681 11.9678 78.585 11.9038 77.9052 11.9038C76.2511 11.9038 74.9895 12.45 74.0167 13.5742C73.0439 14.6985 72.5589 16.1757 72.5589 18.0712C72.5589 19.1829 72.8182 20.0945 73.3046 20.7699C73.791 21.4647 74.698 21.7982 75.996 21.7982C76.6171 21.801 77.2366 21.7362 77.8435 21.6051C78.3861 21.4907 78.9175 21.3294 79.4317 21.1229L79.7877 25.0417L77.7468 25.6837C77.001 25.8783 76.0927 25.9728 75.0554 25.9728C73.6957 25.9728 72.5281 25.7782 71.5889 25.3947C70.6941 25.0317 69.8876 24.4841 69.2227 23.7882C68.6012 23.1199 68.1461 22.3165 67.8939 21.4425C67.6314 20.523 67.5007 19.5715 67.5056 18.6159L67.5 18.6187ZM89.2747 25.9631C88.1085 25.9631 87.0712 25.7685 86.2287 25.4489C85.3541 25.0959 84.6406 24.6151 84.0897 23.9717C83.5252 23.3105 83.0958 22.5468 82.8253 21.7232C82.5337 20.8561 82.4048 19.8916 82.4048 18.8647C82.4048 17.5473 82.6319 16.2299 83.0524 14.9139C83.4597 13.6271 84.1084 12.4281 84.9644 11.3799C85.8054 10.3196 86.8427 9.45248 88.0426 8.80907C89.2411 8.13508 90.6358 7.81268 92.2226 7.81268C93.2604 7.80672 94.2913 7.98073 95.2686 8.32686C96.1433 8.67983 96.8568 9.16065 97.4077 9.80407C97.9721 10.4653 98.4015 11.2289 98.6721 12.0525C98.9636 12.9197 99.0926 13.8841 99.0926 14.9111C99.0926 16.2285 98.8963 17.5459 98.4758 18.8619C98.0553 20.1779 97.4385 21.3674 96.6283 22.3958C95.8181 23.4561 94.7808 24.2913 93.5501 24.9667C92.3193 25.6421 90.8924 25.9631 89.2747 25.9631ZM91.7376 11.8927C91.0516 11.8929 90.3829 12.1062 89.8256 12.5028C89.2747 12.9197 88.8206 13.4339 88.4323 14.0773C88.044 14.7207 87.7847 15.3947 87.5912 16.1659C87.3978 16.9372 87.2997 17.6432 87.2997 18.3199C87.2997 19.4122 87.4959 20.2654 87.8183 20.8908C88.1744 21.5022 88.8234 21.8219 89.7303 21.8219C90.476 21.8219 91.09 21.6273 91.6423 21.2104C92.1946 20.7935 92.6473 20.2793 93.0356 19.6359C93.4239 18.9925 93.6832 18.3185 93.8767 17.5473C94.0658 16.8445 94.1638 16.1206 94.1682 15.3933C94.1682 14.301 94.0056 13.4478 93.6496 12.8224C93.2935 12.1971 92.6445 11.8913 91.7376 11.8913V11.8927ZM104.442 25.5114H99.5355L103.685 8.22819H108.61L104.442 25.5114ZM106.808 6.10896C106.14 6.11778 105.489 5.90227 104.96 5.49751C104.409 5.08061 104.119 4.46916 104.119 3.63536C104.119 3.18511 104.217 2.73624 104.411 2.34992C104.591 1.95383 104.844 1.59432 105.157 1.28961C105.479 1.00639 105.839 0.767968 106.226 0.58088C106.647 0.41968 107.067 0.323791 107.523 0.323791C108.19 0.314971 108.842 0.530481 109.37 0.935243C109.921 1.35214 110.211 1.96359 110.211 2.79739C110.211 3.24764 110.113 3.6965 109.92 4.08283C109.739 4.47892 109.486 4.83843 109.174 5.14314C108.851 5.42635 108.492 5.66478 108.104 5.85187C107.715 6.04642 107.294 6.10896 106.808 6.10896ZM112.151 8.99945L113.382 8.61452L114.904 8.22958C115.524 8.09213 116.152 7.99557 116.784 7.94053L119.15 7.81268C121.743 7.81268 123.524 8.55198 124.496 10.0612C125.469 11.5384 125.663 13.5951 125.015 16.1646L122.747 25.4808H117.821L119.994 16.3577L120.316 14.6873C120.381 14.1412 120.381 13.691 120.284 13.2741C120.204 12.8799 119.986 12.5268 119.667 12.2777C119.342 12.0206 118.857 11.8927 118.177 11.8927C117.53 11.8927 116.881 11.9567 116.233 12.0873L113.009 25.4517H108.083L112.151 8.99945Z" fill="#A9A9A9"/>
</svg>
