<svg width="131" height="22" viewBox="0 0 131 22" fill="none" xmlns="http://www.w3.org/2000/svg">
<path d="M11.091 0.397217H23.2796C23.2722 0.558431 23.2165 0.713694 23.1197 0.842838C22.7071 1.55047 22.3358 2.28698 21.9304 2.99461C21.3568 4.01067 20.8204 5.0453 20.2376 6.05723C19.8683 6.78549 19.4516 7.49106 19.0575 8.20694C16.6891 8.20694 14.3208 8.20694 11.9524 8.20694C11.8286 8.20694 11.7058 8.21313 11.582 8.22035C11.4789 8.49267 11.3076 8.73096 11.1694 8.98678C10.9889 9.27973 10.8424 9.59229 10.664 9.88524C10.4752 10.2793 10.2142 10.6321 10.0244 11.0251C9.63244 11.6904 9.26625 12.3661 8.88252 13.0386C8.48228 13.7263 8.09099 14.4236 7.70863 15.1306C7.54682 15.3811 7.39775 15.6397 7.26198 15.9053C6.46048 17.2999 5.68477 18.7069 4.88224 20.1005C4.81417 20.2503 4.7245 20.3893 4.6161 20.5131C3.24417 20.5038 1.87223 20.5131 0.500293 20.5131C0.331318 20.5163 0.163344 20.5399 0 20.5833C0 20.2036 0.253757 19.8993 0.424991 19.5806C0.631297 19.1525 0.906716 18.7554 1.11405 18.3263C2.75831 15.3843 4.38504 12.4321 6.02414 9.4881C6.39549 8.84855 6.71424 8.19559 7.08765 7.56842C7.5539 6.7432 7.98818 5.8994 8.47403 5.08346C8.62876 4.74203 8.83713 4.42947 9.00733 4.09629C9.61181 3.0204 10.2049 1.93832 10.8074 0.862437C10.8788 0.694414 10.9744 0.537696 11.091 0.397217Z" fill="#A9A9A9"/>
<path d="M25.2148 4.72853C26.0266 3.31017 26.8106 1.87634 27.6338 0.464175H32.0363C32.1005 0.467419 32.1641 0.477447 32.2261 0.49409C32.0797 0.715869 31.9569 0.951058 31.828 1.18212C30.7662 3.0877 29.7075 4.99432 28.6519 6.90196C28.2083 7.67871 27.7957 8.47299 27.346 9.2456L27.3016 9.26108L27.2934 9.35804C25.2234 13.0716 23.1604 16.7878 21.1042 20.5068C17.0626 20.511 13.0207 20.511 8.97852 20.5068C9.20855 20.0261 9.48087 19.5671 9.73669 19.0998C10.8879 16.9831 12.069 14.885 13.2037 12.7683C15.6869 12.7642 18.1702 12.7642 20.6534 12.7683C22.1873 10.0966 23.6882 7.40432 25.2107 4.72853H25.2148Z" fill="#A9A9A9"/>
<path d="M70.6506 0.409515V20.7513H74.1754V6.44707L80.6049 15.868L86.9829 6.22323V20.7513H90.6108V0.409515H86.7085L80.6307 9.79955L74.4848 0.409515H70.6506Z" fill="#A9A9A9"/>
<path d="M54.1637 5.65588H56.4671V20.9225H54.1637V5.65588Z" fill="#A9A9A9"/>
<path d="M53.9656 0H56.6652V2.56129H53.9656V0Z" fill="#A9A9A9"/>
<path d="M60.8686 1.28115H63.2752V5.65588H68.0202V7.78806H63.2752V16.8573C63.271 17.2067 63.3521 17.5519 63.5114 17.863C63.9189 18.6367 65.0257 19.5547 68.0202 18.4819V20.4584C68.0202 20.4584 65.2867 22.0057 62.811 20.5966C62.811 20.5966 61.5814 20.0746 61.0646 18.3128C60.9304 17.8408 60.8644 17.3521 60.8686 16.8614V7.75401L58.8396 7.78806V5.65588H60.8851L60.8686 1.28115Z" fill="#A9A9A9"/>
<path d="M94.3243 0.409515V20.8885H109.625V17.5876H98.0554V12.1545H108.25V8.90521H98.0379V3.73105H109.505V0.409515H94.3243Z" fill="#A9A9A9"/>
<path d="M111.061 0.409515H115.419L120.422 7.59929L125.386 0.409515H129.744L122.626 10.3968L130.188 20.871H125.597L120.44 13.2211L115.032 20.8885H110.674L118.127 10.4876L111.061 0.409515Z" fill="#A9A9A9"/>
<path d="M47.1143 10.2637C47.1143 10.2637 50.4843 8.99181 50.278 5.32988C50.278 5.32988 50.2501 1.80823 46.2849 0.720996C45.6256 0.544347 44.9456 0.456919 44.2631 0.46105H34.7534L34.7792 20.8028H45.0172C45.0172 20.8028 51.0083 20.6739 51.4302 15.3357C51.4302 15.3357 51.8593 11.6047 47.1143 10.2637ZM37.2116 2.56125H43.2811C48.0426 2.54474 47.9054 5.89722 47.9054 5.89722C47.9766 9.72214 43.6071 9.64477 43.6071 9.64477H37.2116V2.56125ZM44.6386 18.6531H37.2116V11.5706H44.3126C49.0742 11.5531 48.937 14.9056 48.937 14.9056C49.0082 18.7305 44.6386 18.6531 44.6386 18.6531Z" fill="#A9A9A9"/>
</svg>
