<svg width="140" height="25" viewBox="0 0 140 25" fill="none" xmlns="http://www.w3.org/2000/svg">
<path d="M28.2034 6.90926C23.1263 6.90926 19.1613 10.7304 19.1613 15.8445C19.1613 20.9586 23.0273 24.7452 28.2034 24.7452C33.3795 24.7452 37.3095 20.8952 37.3095 15.8157C37.3095 10.765 33.4435 6.90926 28.2034 6.90926ZM28.2383 21.0625C25.3446 21.0625 23.2311 18.8345 23.2311 15.8445C23.2311 12.8257 25.3097 10.5977 28.2034 10.5977C31.1262 10.5977 33.2455 12.8603 33.2455 15.8503C33.2455 18.8345 31.1262 21.0625 28.2383 21.0625V21.0625ZM38.4216 10.7997H40.9427V24.4219H44.9776V7.23826H38.4216V10.7997ZM9.00716 10.5977C11.1265 10.5977 12.8091 11.8906 13.4438 13.8185H17.7174C16.943 9.70297 13.5136 6.90926 9.04209 6.90926C3.96501 6.90926 0 10.7304 0 15.8445C0 20.9644 3.86603 24.7509 9.04209 24.7509C13.4088 24.7509 16.9081 21.9572 17.6824 17.8071H13.4438C13.1692 18.7517 12.5903 19.5813 11.7955 20.1691C11.0007 20.757 10.0337 21.0707 9.04209 21.0625C6.11928 21.0625 4.06399 18.8345 4.06399 15.8445C4.06399 12.8257 6.08434 10.5977 9.01298 10.5977H9.00716ZM115.061 14.1879L112.103 13.755C110.694 13.553 109.687 13.0912 109.687 11.9945C109.687 10.7997 110.997 10.2051 112.773 10.2051C114.729 10.2051 115.975 11.0306 116.237 12.3928H120.138C119.701 8.93528 117.011 6.90926 112.878 6.90926C108.61 6.90926 105.786 9.07381 105.786 12.1273C105.786 15.048 107.632 16.745 111.364 17.276L114.322 17.7089C115.771 17.9052 116.575 18.4709 116.575 19.5329C116.575 20.8952 115.166 21.4608 113.215 21.4608C110.828 21.4608 109.483 20.4969 109.279 19.0365H105.314C105.687 22.3901 108.342 24.7509 113.175 24.7509C117.582 24.7509 120.511 22.7538 120.511 19.3367C120.511 16.2774 118.391 14.6843 115.061 14.1879V14.1879ZM42.9572 0.167394C42.618 0.155565 42.2798 0.212414 41.9635 0.334468C41.6471 0.456522 41.3592 0.641216 41.1173 0.87728C40.8754 1.11334 40.6845 1.39582 40.5564 1.70746C40.4282 2.01909 40.3655 2.35335 40.3721 2.68982C40.3721 4.15594 41.4783 5.21802 42.9572 5.21802C43.2974 5.23069 43.6367 5.17427 43.9541 5.05222C44.2715 4.93018 44.5604 4.74508 44.8031 4.50831C45.0457 4.27154 45.237 3.98809 45.3651 3.67537C45.4932 3.36266 45.5555 3.02727 45.5481 2.68982C45.5547 2.35285 45.4918 2.0181 45.3634 1.70606C45.2349 1.39402 45.0435 1.11127 44.8009 0.875122C44.5584 0.638975 44.2697 0.4544 43.9527 0.332707C43.6357 0.211013 43.2969 0.154761 42.9572 0.167394V0.167394ZM102.153 13.1259C102.153 9.40282 99.8705 6.91503 95.0264 6.91503C90.4558 6.91503 87.8998 9.20657 87.3991 12.7276H91.399C91.6028 11.3653 92.68 10.234 94.9623 10.234C97.0118 10.234 98.019 11.1287 98.019 12.2254C98.019 13.6569 96.1734 14.0205 93.8852 14.2514C90.7935 14.5862 86.9566 15.6483 86.9566 19.6368C86.9566 22.7249 89.2855 24.7163 92.9769 24.7163C95.8706 24.7163 97.6872 23.5215 98.5954 21.6282C98.7294 23.3195 100.004 24.4162 101.786 24.4162H104.138V20.8605H102.159V13.1259H102.153ZM98.1937 17.4434C98.1937 19.735 96.1734 21.4262 93.7163 21.4262C92.2025 21.4262 90.9216 20.7913 90.9216 19.4637C90.9216 17.7724 92.9769 17.3107 94.8575 17.1086C96.6741 16.947 97.6813 16.5487 98.1879 15.781L98.1937 17.4434ZM76.7733 6.90926C74.5259 6.90926 72.6395 7.84434 71.3003 9.40282V0H67.2655V24.4162H71.2246V22.1593C72.5754 23.787 74.4852 24.7509 76.7733 24.7509C81.6175 24.7509 85.2798 20.9644 85.2798 15.8445C85.2798 10.7304 81.5535 6.90926 76.7792 6.90926H76.7733ZM76.1736 21.0625C73.2799 21.0625 71.1664 18.8345 71.1664 15.8445C71.1664 12.8603 73.3149 10.5977 76.2027 10.5977C79.1314 10.5977 81.1808 12.8257 81.1808 15.8503C81.1808 18.8345 79.0615 21.0625 76.1736 21.0625V21.0625ZM57.6178 6.90926C54.9978 6.90926 53.2802 7.97133 52.2671 9.46632V7.24404H48.2672V24.4162H52.302V15.0826C52.302 12.4563 53.9847 10.5977 56.4708 10.5977C58.7881 10.5977 60.2379 12.2254 60.2379 14.5804V24.4162H64.267V14.2861C64.267 9.96849 62.0195 6.90926 57.6178 6.90926V6.90926ZM139.736 15.2789C139.736 10.3668 136.103 6.90926 131.235 6.90926C126.054 6.90926 122.257 10.765 122.257 15.8445C122.257 21.1953 126.321 24.7509 131.3 24.7509C135.503 24.7509 138.793 22.292 139.637 18.8056H135.433C134.828 20.3295 133.349 21.1953 131.364 21.1953C128.773 21.1953 126.822 19.6022 126.391 16.8085H139.736V15.2846V15.2789ZM126.624 13.9513C127.265 11.5616 129.081 10.4014 131.166 10.4014C133.448 10.4014 135.2 11.6944 135.602 13.9513H126.624Z" fill="#A9A9A9"/>
</svg>
