<svg width="44" height="42" viewBox="0 0 44 42" fill="none" xmlns="http://www.w3.org/2000/svg">
<rect width="43.99" height="41.87" rx="8" fill="#212121"/>
<path d="M31.99 15.225V26.655C31.99 26.835 31.9 26.995 31.75 27.085L28.86 28.815C28.7 28.905 28.51 28.905 28.35 28.815L18.74 23.225C18.59 23.135 18.49 22.975 18.49 22.795V21.465C18.49 21.075 18.91 20.835 19.25 21.035L27.74 26.125C28.07 26.325 28.5 26.085 28.5 25.695V17.365C28.5 17.185 28.41 17.025 28.26 16.935L24.18 14.485C23.86 14.295 23.86 13.825 24.18 13.625L26.75 12.075C26.91 11.975 27.11 11.975 27.27 12.075L31.77 14.775C31.9 14.885 31.99 15.055 31.99 15.225Z" fill="white"/>
<path d="M21.28 27.375L17.25 29.795C17.09 29.895 16.89 29.895 16.74 29.795L12.24 27.095C12.09 27.005 12 26.845 12 26.665V15.235C12 15.055 12.09 14.895 12.24 14.805L16.74 12.105C16.9 12.005 17.1 12.005 17.25 12.105L26.75 17.805C26.9 17.895 26.99 18.055 26.99 18.235V23.065C26.99 23.455 26.57 23.695 26.23 23.495L17.74 18.405C17.41 18.205 16.98 18.445 16.98 18.835V23.665C16.98 23.845 17.07 24.005 17.22 24.095L21.26 26.525C21.6 26.715 21.6 27.175 21.28 27.375Z" fill="white"/>
</svg>
