<svg width="20" height="18" viewBox="0 0 20 18" fill="none" xmlns="http://www.w3.org/2000/svg">
<path d="M19.99 3.22499V14.655C19.99 14.835 19.9 14.995 19.75 15.085L16.86 16.815C16.7 16.905 16.51 16.905 16.35 16.815L6.74001 11.225C6.59001 11.135 6.49001 10.975 6.49001 10.795V9.465C6.49001 9.075 6.91 8.83499 7.25 9.03499L15.74 14.125C16.07 14.325 16.5 14.085 16.5 13.695V5.36499C16.5 5.18499 16.41 5.025 16.26 4.935L12.18 2.48499C11.86 2.29499 11.86 1.82499 12.18 1.62499L14.75 0.075C14.91 -0.025 15.11 -0.025 15.27 0.075L19.77 2.775C19.9 2.885 19.99 3.05499 19.99 3.22499Z" fill="white"/>
<path d="M9.28 15.375L5.25 17.795C5.09 17.895 4.89001 17.895 4.74001 17.795L0.240005 15.095C0.0900055 15.005 0 14.845 0 14.665V3.23499C0 3.05499 0.0900055 2.895 0.240005 2.805L4.74001 0.104999C4.90001 0.00499879 5.1 0.00499879 5.25 0.104999L14.75 5.805C14.9 5.895 14.99 6.05499 14.99 6.23499V11.065C14.99 11.455 14.57 11.695 14.23 11.495L5.74001 6.405C5.41001 6.205 4.98001 6.44499 4.98001 6.83499V11.665C4.98001 11.845 5.07 12.005 5.22 12.095L9.26001 14.525C9.60001 14.715 9.6 15.175 9.28 15.375Z" fill="white"/>
</svg>
