<svg width="198" height="125" viewBox="0 0 198 125" fill="none" xmlns="http://www.w3.org/2000/svg">
<path d="M83.4823 17.668C85.0982 17.6667 86.692 18.0429 88.1359 18.7663C89.5799 19.4897 90.834 20.5403 91.7977 21.8339L97.7696 14.0465L79.851 0.378418L66.1465 18.2492L73.8693 24.1401C74.6422 22.2285 75.9703 20.5909 77.6832 19.4376C79.3961 18.2844 81.4156 17.6681 83.4823 17.668V17.668Z" fill="#699CFF"/>
<path d="M167.476 84.138H196.86C198.089 88.7945 198.229 93.6701 197.272 98.3894C196.315 103.109 194.285 107.546 191.338 111.36C188.391 115.175 184.607 118.264 180.275 120.39C175.944 122.517 171.181 123.624 166.353 123.627C165.491 123.627 164.638 123.592 163.794 123.523V106.246C163.795 105.417 163.592 104.602 163.201 103.87C162.811 103.139 162.247 102.515 161.557 102.052C160.868 101.59 160.075 101.304 159.249 101.22C158.423 101.136 157.588 101.255 156.82 101.569V94.7698C156.819 93.3738 157.094 91.9914 157.63 90.7015C158.165 89.4116 158.95 88.2395 159.939 87.2522C160.929 86.2649 162.104 85.4817 163.397 84.9474C164.69 84.413 166.076 84.138 167.476 84.138Z" fill="#699CFF"/>
<path d="M18.0493 94.1629L7.82202 86.3617L-0.000103793 96.5617L10.2272 104.363L18.0493 94.1629Z" fill="#699CFF"/>
<path d="M15.0307 45.7569L149.89 24.7154L159.098 93.5597L24.2384 114.601L15.0307 45.7569Z" fill="#F1F1F1" stroke="#111111" stroke-width="0.563637"/>
<path d="M147.055 30.9484L19.3833 50.8685L27.1279 108.774L154.8 88.8534L147.055 30.9484Z" fill="white"/>
<path d="M14.4367 41.7557L149.296 20.7142L150.052 26.3691L15.193 47.4106L14.4367 41.7557Z" fill="#E5E5E5" stroke="#111111" stroke-width="0.563637"/>
<path d="M18.8851 45.6701C19.4802 45.6701 19.9626 45.1491 19.9626 44.5065C19.9626 43.8638 19.4802 43.3428 18.8851 43.3428C18.29 43.3428 17.8076 43.8638 17.8076 44.5065C17.8076 45.1491 18.29 45.6701 18.8851 45.6701Z" fill="white"/>
<path d="M22.9322 45.0397C23.5273 45.0397 24.0097 44.5187 24.0097 43.876C24.0097 43.2334 23.5273 42.7124 22.9322 42.7124C22.3371 42.7124 21.8547 43.2334 21.8547 43.876C21.8547 44.5187 22.3371 45.0397 22.9322 45.0397Z" fill="white"/>
<path d="M26.9796 44.4077C27.5747 44.4077 28.0571 43.8868 28.0571 43.2441C28.0571 42.6015 27.5747 42.0805 26.9796 42.0805C26.3845 42.0805 25.9021 42.6015 25.9021 43.2441C25.9021 43.8868 26.3845 44.4077 26.9796 44.4077Z" fill="white"/>
<path d="M44.6986 54.5368H180.957V124.097H44.6986V54.5368Z" fill="#E6E6E6" stroke="#111111" stroke-width="0.563637"/>
<path d="M44.6608 50.5064H180.878V56.1796H44.6608V50.5064Z" fill="#E5E5E5" stroke="#111111" stroke-width="0.604864"/>
<path d="M48.6776 55.0594C49.2727 55.0594 49.7551 54.5384 49.7551 53.8958C49.7551 53.2531 49.2727 52.7322 48.6776 52.7322C48.0825 52.7322 47.6001 53.2531 47.6001 53.8958C47.6001 54.5384 48.0825 55.0594 48.6776 55.0594Z" fill="white"/>
<path d="M52.7669 55.0594C53.362 55.0594 53.8444 54.5384 53.8444 53.8958C53.8444 53.2531 53.362 52.7322 52.7669 52.7322C52.1719 52.7322 51.6895 53.2531 51.6895 53.8958C51.6895 54.5384 52.1719 55.0594 52.7669 55.0594Z" fill="white"/>
<path d="M56.8563 55.0594C57.4514 55.0594 57.9338 54.5384 57.9338 53.8958C57.9338 53.2531 57.4514 52.7322 56.8563 52.7322C56.2612 52.7322 55.7788 53.2531 55.7788 53.8958C55.7788 54.5384 56.2612 55.0594 56.8563 55.0594Z" fill="white"/>
<path d="M48.6107 60.5503H177.044V118.493H48.6107V60.5503Z" fill="white" stroke="#111111" stroke-width="0.563637"/>
<ellipse cx="149.545" cy="83.9862" rx="7.0611" ry="7.08383" fill="#699CFF"/>
<path d="M160.722 102.173C160.722 100.846 160.434 99.5313 159.875 98.305C159.316 97.0786 158.497 95.9643 157.465 95.0257C156.432 94.0871 155.206 93.3425 153.857 92.8345C152.508 92.3265 151.062 92.0651 149.601 92.0651C148.141 92.0651 146.695 92.3265 145.346 92.8345C143.997 93.3425 142.771 94.0871 141.738 95.0257C140.705 95.9643 139.886 97.0786 139.327 98.305C138.769 99.5313 138.481 100.846 138.481 102.173L149.601 102.173H160.722Z" fill="#699CFF"/>
<path d="M83.3556 102.576H65.188V104.051H83.3556V102.576Z" fill="#E6E6E6"/>
<path d="M85.6213 106.409H62.7573V107.884H85.6213V106.409Z" fill="#E6E6E6"/>
<path d="M82.7385 80.1739H64.7559V94.1395H82.7385V80.1739Z" fill="#699CFF"/>
<path d="M84.5368 93.0428H67.2735C67.0828 93.0425 66.8999 92.9584 66.7651 92.8088C66.6302 92.6592 66.5544 92.4563 66.5542 92.2447V79.0771C66.5544 78.8655 66.6302 78.6627 66.7651 78.5131C66.8999 78.3635 67.0828 78.2793 67.2735 78.2791H84.5368C84.7275 78.2793 84.9104 78.3635 85.0452 78.5131C85.1801 78.6627 85.2559 78.8655 85.2561 79.0771V92.2447C85.2559 92.4563 85.1801 92.6592 85.0452 92.8088C84.9104 92.9584 84.7275 93.0425 84.5368 93.0428V93.0428ZM67.2735 79.0771V92.2447H84.5374L84.5368 79.0771H67.2735Z" fill="#3F3D56"/>
<path d="M82.5586 78.5779H81.8393C81.8393 76.8318 81.2141 75.1572 80.1012 73.9225C78.9883 72.6878 77.4789 71.9941 75.905 71.9941C74.3312 71.9941 72.8218 72.6878 71.7089 73.9225C70.596 75.1572 69.9708 76.8318 69.9708 78.5779H69.2515C69.2515 76.6202 69.9525 74.7426 71.2002 73.3582C72.448 71.9738 74.1404 71.1961 75.905 71.1961C77.6697 71.1961 79.362 71.9738 80.6098 73.3582C81.8576 74.7426 82.5586 76.6202 82.5586 78.5779V78.5779Z" fill="#3F3D56"/>
<path d="M77.7038 84.064C77.7041 83.7166 77.6227 83.3751 77.4675 83.0733C77.3124 82.7715 77.0889 82.5199 76.8191 82.3433C76.5494 82.1668 76.2428 82.0715 75.9296 82.0667C75.6165 82.062 75.3076 82.1481 75.0337 82.3165C74.7597 82.4848 74.5301 82.7296 74.3677 83.0266C74.2052 83.3236 74.1154 83.6625 74.1073 84.0098C74.0992 84.3571 74.1729 84.7008 74.3213 85.0068C74.4696 85.3127 74.6874 85.5704 74.9531 85.7543V87.8957C74.9531 88.0344 74.9778 88.1718 75.0256 88.2999C75.0735 88.4281 75.1436 88.5445 75.232 88.6426C75.3204 88.7407 75.4254 88.8185 75.5409 88.8716C75.6564 88.9246 75.7802 88.952 75.9053 88.952V88.952C76.1578 88.952 76.4 88.8407 76.5785 88.6426C76.7571 88.4445 76.8574 88.1759 76.8574 87.8957V85.7543C77.1163 85.5755 77.3298 85.3265 77.4779 85.0307C77.626 84.735 77.7037 84.4023 77.7038 84.064V84.064Z" fill="#3F3D56"/>
</svg>
