<svg width="123" height="34" viewBox="0 0 123 34" fill="none" xmlns="http://www.w3.org/2000/svg">
<path d="M16.7231 33.158C25.9591 33.158 33.4463 25.7353 33.4463 16.579C33.4463 7.42266 25.9591 0 16.7231 0C7.48721 0 0 7.42266 0 16.579C0 25.7353 7.48721 33.158 16.7231 33.158Z" fill="#A9A9A9"/>
<path d="M18.5044 18.1063C18.3888 18.1143 17.7919 18.1489 16.4637 18.1489C15.4017 18.1489 14.657 18.1196 14.3935 18.1063V18.109C10.3095 17.9304 7.2633 17.2267 7.2633 16.3818C7.2633 15.5395 10.3122 14.8331 14.3935 14.6546V17.4079C14.6597 17.4266 15.4259 17.4719 16.4825 17.4719C17.7516 17.4719 18.3861 17.4186 18.5044 17.4079V14.6572C22.5803 14.8385 25.6184 15.5421 25.6184 16.3844C25.6184 17.2267 22.5776 17.9304 18.5044 18.1116V18.1063ZM18.5044 14.372V11.9092H24.1908V8.15356H8.70977V11.9092H14.3962V14.372C9.77446 14.5826 6.30078 15.4888 6.30078 16.5763C6.30078 17.6638 9.77715 18.5701 14.3962 18.7833V26.6783H18.5071V18.7833C23.1207 18.5727 26.589 17.6665 26.589 16.579C26.589 15.4942 23.1207 14.5853 18.5071 14.3747" fill="#F8F8FC"/>
<path d="M47.6498 9.17976V13.1619H51.5537V16.1499H47.6229V22.2084C47.6229 23.5465 48.3677 24.1995 49.4592 24.1995C50.005 24.1995 50.6368 24.0289 51.1531 23.7731L52.129 26.7317C51.1262 27.1288 50.2927 27.2994 49.2307 27.3288C46.1603 27.4434 44.1519 25.7082 44.1519 22.2084V16.1499H41.5117V13.1619H44.1519V9.55025L47.6498 9.17976ZM114.954 12.9753L115.212 14.5959C116.303 12.8607 117.766 12.6048 119.202 12.6048C120.664 12.6048 122.07 13.1726 122.845 13.9402L121.267 16.9549C120.549 16.3578 119.89 16.0433 118.742 16.0433C116.906 16.0433 115.212 17.0108 115.212 19.599V26.9956H111.711V12.97L114.954 12.9753ZM106.374 18.3515C106.146 16.531 104.71 15.6195 102.702 15.6195C100.809 15.6195 99.2576 16.531 98.7414 18.3515H106.374ZM98.6849 21.2249C98.9135 22.9601 100.435 24.2129 102.903 24.2129C104.194 24.2129 105.888 23.7277 106.692 22.9041L108.929 25.0951C107.436 26.6304 104.998 27.3714 102.844 27.3714C97.9671 27.3714 95.0661 24.3834 95.0661 19.8895C95.0661 15.6221 97.994 12.5489 102.586 12.5489C107.321 12.5489 110.278 15.4515 109.732 21.2249H98.6849ZM83.247 7.08472V14.8785C84.5106 13.2579 86.0592 12.7728 87.667 12.7728C91.6838 12.7728 93.4637 15.4755 93.4637 19.6016V26.9982H89.9631V19.631C89.9631 17.0695 88.6134 15.99 86.7475 15.99C84.68 15.99 83.247 17.7252 83.247 19.8309V27.0009H79.7464V7.08738L83.247 7.08472ZM73.9498 9.01983V13.002H77.8536V15.99H73.9229V22.0485C73.9229 23.3866 74.6703 24.0396 75.7592 24.0396C76.305 24.0396 76.9368 23.869 77.453 23.6131L78.429 26.5718C77.4261 26.9689 76.5927 27.1395 75.5307 27.1688C72.4603 27.2834 70.4519 25.5456 70.4519 22.0485V15.99H67.8117V13.002H70.4519V9.39033L73.9498 9.01983ZM64.2788 18.3515C64.0503 16.531 62.6146 15.6195 60.6062 15.6195C58.7134 15.6195 57.1621 16.531 56.6459 18.3515H64.2788ZM56.5894 21.2249C56.818 22.9601 58.3397 24.2129 60.8078 24.2129C62.0984 24.2129 63.7922 23.7277 64.5961 22.9041L66.833 25.0951C65.3408 26.6304 62.9023 27.3714 60.7487 27.3714C55.8689 27.3714 52.9706 24.3834 52.9706 19.8895C52.9706 15.6221 55.8985 12.5489 60.4879 12.5489C65.2225 12.5489 68.1773 15.4515 67.6342 21.2249H56.5894Z" fill="#A9A9A9"/>
</svg>
