<svg width="201" height="201" viewBox="0 0 201 201" fill="none" xmlns="http://www.w3.org/2000/svg">
<path d="M201 100.5C201 120.377 195.106 139.808 184.063 156.335C173.02 172.862 157.324 185.743 138.96 193.35C120.596 200.957 100.389 202.947 80.8935 199.069C61.3984 195.191 43.491 185.619 29.4358 171.564C15.3806 157.509 5.80894 139.602 1.93112 120.107C-1.94669 100.611 0.0435448 80.4043 7.65015 62.0403C15.2568 43.6763 28.1381 27.9804 44.6652 16.9373C61.1924 5.89422 80.623 0 100.5 0C127.154 0 152.717 10.5884 171.564 29.4358C190.412 48.2832 201 73.8457 201 100.5Z" fill="#F7931A"/>
<path fill-rule="evenodd" clip-rule="evenodd" d="M71.4281 45.8918L94.5248 52.0771L99.6869 32.8359L111.235 35.9697L106.274 54.416L115.694 56.9468L120.664 38.2994L132.413 41.4423L127.352 60.1902C127.352 60.1902 146.538 64.4386 151.052 80.0435C155.565 95.6484 141.129 103.844 136.671 104.154C136.671 104.154 153.482 113.373 147.708 131.509C141.933 149.644 124.209 152.888 105.562 148.731L100.5 168.173L88.7507 165.03L93.9127 145.889L84.5936 143.349L79.4316 162.627L67.7736 159.493L72.9447 140.307L49.2359 133.911L55.2111 120.645C55.2111 120.645 61.8989 122.473 64.4297 123.076C66.9604 123.679 68.5867 121.047 69.2993 118.416C70.012 115.785 80.7472 72.1771 81.7613 68.5865C82.7755 64.9959 82.3643 62.191 78.1068 61.0855C73.8493 59.98 68.0568 58.2533 68.0568 58.2533L71.4281 45.8918ZM94.7258 103.643L88.3304 129.069C88.3304 129.069 120.043 140.517 124.099 124.41C128.156 108.302 94.7258 103.643 94.7258 103.643ZM97.6678 91.5827L103.944 68.285C103.944 68.285 131.098 73.1455 127.754 86.11C124.41 99.0745 108.403 94.1043 97.6678 91.5827Z" fill="white"/>
</svg>
