<svg width="203" height="200" viewBox="0 0 203 200" fill="none" xmlns="http://www.w3.org/2000/svg">
<path d="M0 2.58729C0 1.15837 1.15837 0 2.58729 0H2.8754C4.30432 0 5.46269 1.15837 5.46269 2.58729V2.8754C5.46269 4.30432 4.30432 5.46269 2.87539 5.46269H2.58729C1.15837 5.46269 0 4.30432 0 2.87539V2.58729Z" fill="#7D97F1"/>
<path d="M21.8516 2.58729C21.8516 1.15837 23.0099 0 24.4389 0H24.727C26.1559 0 27.3142 1.15837 27.3142 2.58729V2.8754C27.3142 4.30432 26.1559 5.46269 24.727 5.46269H24.4389C23.0099 5.46269 21.8516 4.30432 21.8516 2.87539V2.58729Z" fill="#7D97F1"/>
<path d="M43.7021 2.58729C43.7021 1.15837 44.8605 0 46.2894 0H46.5775C48.0065 0 49.1648 1.15837 49.1648 2.58729V2.8754C49.1648 4.30432 48.0065 5.46269 46.5775 5.46269H46.2894C44.8605 5.46269 43.7021 4.30432 43.7021 2.87539V2.58729Z" fill="#7D97F1"/>
<path d="M65.5518 2.58729C65.5518 1.15837 66.7101 0 68.1391 0H68.4272C69.8561 0 71.0144 1.15837 71.0144 2.58729V2.8754C71.0144 4.30432 69.8561 5.46269 68.4272 5.46269H68.1391C66.7101 5.46269 65.5518 4.30432 65.5518 2.87539V2.58729Z" fill="#7D97F1"/>
<path d="M87.4023 2.58729C87.4023 1.15837 88.5607 0 89.9896 0H90.2777C91.7067 0 92.865 1.15837 92.865 2.58729V2.8754C92.865 4.30432 91.7067 5.46269 90.2777 5.46269H89.9896C88.5607 5.46269 87.4023 4.30432 87.4023 2.87539V2.58729Z" fill="#7D97F1"/>
<path d="M109.254 2.58729C109.254 1.15837 110.412 0 111.841 0H112.129C113.558 0 114.717 1.15837 114.717 2.58729V2.8754C114.717 4.30432 113.558 5.46269 112.129 5.46269H111.841C110.412 5.46269 109.254 4.30432 109.254 2.87539V2.58729Z" fill="#7D97F1"/>
<path d="M131.105 2.58729C131.105 1.15837 132.264 0 133.693 0H133.981C135.41 0 136.568 1.15837 136.568 2.58729V2.8754C136.568 4.30432 135.41 5.46269 133.981 5.46269H133.693C132.264 5.46269 131.105 4.30432 131.105 2.87539V2.58729Z" fill="#7D97F1"/>
<path d="M152.956 2.58729C152.956 1.15837 154.115 0 155.543 0H155.832C157.26 0 158.419 1.15837 158.419 2.58729V2.8754C158.419 4.30432 157.26 5.46269 155.832 5.46269H155.543C154.115 5.46269 152.956 4.30432 152.956 2.87539V2.58729Z" fill="#7D97F1"/>
<path d="M174.806 2.58729C174.806 1.15837 175.964 0 177.393 0H177.681C179.11 0 180.268 1.15837 180.268 2.58729V2.8754C180.268 4.30432 179.11 5.46269 177.681 5.46269H177.393C175.964 5.46269 174.806 4.30432 174.806 2.87539V2.58729Z" fill="#7D97F1"/>
<path d="M196.656 2.58729C196.656 1.15837 197.815 0 199.244 0H199.532C200.961 0 202.119 1.15837 202.119 2.58729V2.8754C202.119 4.30432 200.961 5.46269 199.532 5.46269H199.244C197.815 5.46269 196.656 4.30432 196.656 2.87539V2.58729Z" fill="#7D97F1"/>
<path d="M0 24.4384C0 23.0095 1.15837 21.8511 2.58729 21.8511H2.8754C4.30432 21.8511 5.46269 23.0095 5.46269 24.4384V24.7265C5.46269 26.1555 4.30432 27.3138 2.87539 27.3138H2.58729C1.15837 27.3138 0 26.1555 0 24.7265V24.4384Z" fill="#7D97F1"/>
<path d="M21.8516 24.4384C21.8516 23.0094 23.0099 21.8511 24.4389 21.8511H24.727C26.1559 21.8511 27.3142 23.0094 27.3142 24.4384V24.7265C27.3142 26.1554 26.1559 27.3138 24.727 27.3138H24.4389C23.0099 27.3138 21.8516 26.1554 21.8516 24.7265V24.4384Z" fill="#7D97F1"/>
<path d="M43.7021 24.4384C43.7021 23.0094 44.8605 21.8511 46.2894 21.8511H46.5775C48.0065 21.8511 49.1648 23.0094 49.1648 24.4384V24.7265C49.1648 26.1554 48.0065 27.3138 46.5775 27.3138H46.2894C44.8605 27.3138 43.7021 26.1554 43.7021 24.7265V24.4384Z" fill="#7D97F1"/>
<path d="M65.5518 24.4384C65.5518 23.0094 66.7101 21.8511 68.1391 21.8511H68.4272C69.8561 21.8511 71.0144 23.0094 71.0144 24.4384V24.7265C71.0144 26.1554 69.8561 27.3138 68.4272 27.3138H68.1391C66.7101 27.3138 65.5518 26.1554 65.5518 24.7265V24.4384Z" fill="#7D97F1"/>
<path d="M87.4023 24.4384C87.4023 23.0094 88.5607 21.8511 89.9896 21.8511H90.2777C91.7067 21.8511 92.865 23.0094 92.865 24.4384V24.7265C92.865 26.1554 91.7067 27.3138 90.2777 27.3138H89.9896C88.5607 27.3138 87.4023 26.1554 87.4023 24.7265V24.4384Z" fill="#7D97F1"/>
<path d="M109.254 24.4384C109.254 23.0095 110.412 21.8511 111.841 21.8511H112.129C113.558 21.8511 114.717 23.0095 114.717 24.4384V24.7265C114.717 26.1555 113.558 27.3138 112.129 27.3138H111.841C110.412 27.3138 109.254 26.1555 109.254 24.7265V24.4384Z" fill="#7D97F1"/>
<path d="M131.105 24.4384C131.105 23.0094 132.264 21.8511 133.693 21.8511H133.981C135.41 21.8511 136.568 23.0094 136.568 24.4384V24.7265C136.568 26.1554 135.41 27.3138 133.981 27.3138H133.693C132.264 27.3138 131.105 26.1554 131.105 24.7265V24.4384Z" fill="#7D97F1"/>
<path d="M152.956 24.4384C152.956 23.0095 154.115 21.8511 155.543 21.8511H155.832C157.26 21.8511 158.419 23.0095 158.419 24.4384V24.7265C158.419 26.1555 157.26 27.3138 155.832 27.3138H155.543C154.115 27.3138 152.956 26.1555 152.956 24.7265V24.4384Z" fill="#7D97F1"/>
<path d="M174.806 24.4384C174.806 23.0094 175.964 21.8511 177.393 21.8511H177.681C179.11 21.8511 180.268 23.0094 180.268 24.4384V24.7265C180.268 26.1554 179.11 27.3138 177.681 27.3138H177.393C175.964 27.3138 174.806 26.1554 174.806 24.7265V24.4384Z" fill="#7D97F1"/>
<path d="M196.656 24.4384C196.656 23.0094 197.815 21.8511 199.244 21.8511H199.532C200.961 21.8511 202.119 23.0094 202.119 24.4384V24.7265C202.119 26.1554 200.961 27.3138 199.532 27.3138H199.244C197.815 27.3138 196.656 26.1554 196.656 24.7265V24.4384Z" fill="#7D97F1"/>
<path d="M0 46.2885C0 44.8595 1.15837 43.7012 2.58729 43.7012H2.8754C4.30432 43.7012 5.46269 44.8595 5.46269 46.2885V46.5766C5.46269 48.0055 4.30432 49.1639 2.87539 49.1639H2.58729C1.15837 49.1639 0 48.0055 0 46.5766V46.2885Z" fill="#7D97F1"/>
<path d="M21.8516 46.2885C21.8516 44.8595 23.0099 43.7012 24.4389 43.7012H24.727C26.1559 43.7012 27.3142 44.8595 27.3142 46.2885V46.5766C27.3142 48.0055 26.1559 49.1639 24.727 49.1639H24.4389C23.0099 49.1639 21.8516 48.0055 21.8516 46.5766V46.2885Z" fill="#7D97F1"/>
<path d="M43.7021 46.2885C43.7021 44.8595 44.8605 43.7012 46.2894 43.7012H46.5775C48.0065 43.7012 49.1648 44.8595 49.1648 46.2885V46.5766C49.1648 48.0055 48.0065 49.1639 46.5775 49.1639H46.2894C44.8605 49.1639 43.7021 48.0055 43.7021 46.5766V46.2885Z" fill="#7D97F1"/>
<path d="M65.5518 46.2885C65.5518 44.8595 66.7101 43.7012 68.1391 43.7012H68.4272C69.8561 43.7012 71.0144 44.8595 71.0144 46.2885V46.5766C71.0144 48.0055 69.8561 49.1639 68.4272 49.1639H68.1391C66.7101 49.1639 65.5518 48.0055 65.5518 46.5766V46.2885Z" fill="#7D97F1"/>
<path d="M87.4023 46.2885C87.4023 44.8595 88.5607 43.7012 89.9896 43.7012H90.2777C91.7067 43.7012 92.865 44.8595 92.865 46.2885V46.5766C92.865 48.0055 91.7067 49.1639 90.2777 49.1639H89.9896C88.5607 49.1639 87.4023 48.0055 87.4023 46.5766V46.2885Z" fill="#7D97F1"/>
<path d="M109.254 46.2885C109.254 44.8595 110.412 43.7012 111.841 43.7012H112.129C113.558 43.7012 114.717 44.8595 114.717 46.2885V46.5766C114.717 48.0055 113.558 49.1639 112.129 49.1639H111.841C110.412 49.1639 109.254 48.0055 109.254 46.5766V46.2885Z" fill="#7D97F1"/>
<path d="M131.105 46.2885C131.105 44.8595 132.264 43.7012 133.693 43.7012H133.981C135.41 43.7012 136.568 44.8595 136.568 46.2885V46.5766C136.568 48.0055 135.41 49.1639 133.981 49.1639H133.693C132.264 49.1639 131.105 48.0055 131.105 46.5766V46.2885Z" fill="#7D97F1"/>
<path d="M152.956 46.2885C152.956 44.8595 154.114 43.7012 155.543 43.7012H155.831C157.26 43.7012 158.419 44.8595 158.419 46.2885V46.5766C158.419 48.0055 157.26 49.1639 155.831 49.1639H155.543C154.114 49.1639 152.956 48.0055 152.956 46.5766V46.2885Z" fill="#7D97F1"/>
<path d="M174.806 46.2885C174.806 44.8595 175.964 43.7012 177.393 43.7012H177.681C179.11 43.7012 180.268 44.8595 180.268 46.2885V46.5766C180.268 48.0055 179.11 49.1639 177.681 49.1639H177.393C175.964 49.1639 174.806 48.0055 174.806 46.5766V46.2885Z" fill="#7D97F1"/>
<path d="M196.656 46.2885C196.656 44.8595 197.815 43.7012 199.244 43.7012H199.532C200.961 43.7012 202.119 44.8595 202.119 46.2885V46.5766C202.119 48.0055 200.961 49.1639 199.532 49.1639H199.244C197.815 49.1639 196.656 48.0055 196.656 46.5766V46.2885Z" fill="#7D97F1"/>
<path d="M0 68.14C0 66.7111 1.15837 65.5527 2.58729 65.5527H2.8754C4.30432 65.5527 5.46269 66.7111 5.46269 68.14V68.4281C5.46269 69.8571 4.30432 71.0154 2.87539 71.0154H2.58729C1.15837 71.0154 0 69.8571 0 68.4281V68.14Z" fill="#7D97F1"/>
<path d="M21.8516 68.14C21.8516 66.7111 23.0099 65.5527 24.4389 65.5527H24.727C26.1559 65.5527 27.3142 66.7111 27.3142 68.14V68.4281C27.3142 69.8571 26.1559 71.0154 24.727 71.0154H24.4389C23.0099 71.0154 21.8516 69.8571 21.8516 68.4281V68.14Z" fill="#7D97F1"/>
<path d="M43.7021 68.14C43.7021 66.7111 44.8605 65.5527 46.2894 65.5527H46.5775C48.0065 65.5527 49.1648 66.7111 49.1648 68.14V68.4281C49.1648 69.8571 48.0065 71.0154 46.5775 71.0154H46.2894C44.8605 71.0154 43.7021 69.8571 43.7021 68.4281V68.14Z" fill="#7D97F1"/>
<path d="M65.5518 68.14C65.5518 66.7111 66.7101 65.5527 68.1391 65.5527H68.4272C69.8561 65.5527 71.0144 66.7111 71.0144 68.14V68.4281C71.0144 69.8571 69.8561 71.0154 68.4272 71.0154H68.1391C66.7101 71.0154 65.5518 69.8571 65.5518 68.4281V68.14Z" fill="#7D97F1"/>
<path d="M87.4023 68.14C87.4023 66.7111 88.5607 65.5527 89.9896 65.5527H90.2777C91.7067 65.5527 92.865 66.7111 92.865 68.14V68.4281C92.865 69.8571 91.7067 71.0154 90.2777 71.0154H89.9896C88.5607 71.0154 87.4023 69.8571 87.4023 68.4281V68.14Z" fill="#7D97F1"/>
<path d="M109.254 68.14C109.254 66.7111 110.412 65.5527 111.841 65.5527H112.129C113.558 65.5527 114.717 66.7111 114.717 68.14V68.4281C114.717 69.8571 113.558 71.0154 112.129 71.0154H111.841C110.412 71.0154 109.254 69.8571 109.254 68.4281V68.14Z" fill="#7D97F1"/>
<path d="M131.105 68.14C131.105 66.7111 132.264 65.5527 133.693 65.5527H133.981C135.41 65.5527 136.568 66.7111 136.568 68.14V68.4281C136.568 69.8571 135.41 71.0154 133.981 71.0154H133.693C132.264 71.0154 131.105 69.8571 131.105 68.4281V68.14Z" fill="#7D97F1"/>
<path d="M152.956 68.14C152.956 66.7111 154.114 65.5527 155.543 65.5527H155.831C157.26 65.5527 158.419 66.7111 158.419 68.14V68.4281C158.419 69.8571 157.26 71.0154 155.831 71.0154H155.543C154.114 71.0154 152.956 69.8571 152.956 68.4281V68.14Z" fill="#7D97F1"/>
<path d="M174.806 68.14C174.806 66.7111 175.964 65.5527 177.393 65.5527H177.681C179.11 65.5527 180.268 66.7111 180.268 68.14V68.4281C180.268 69.8571 179.11 71.0154 177.681 71.0154H177.393C175.964 71.0154 174.806 69.8571 174.806 68.4281V68.14Z" fill="#7D97F1"/>
<path d="M196.656 68.14C196.656 66.7111 197.815 65.5527 199.244 65.5527H199.532C200.961 65.5527 202.119 66.7111 202.119 68.14V68.4281C202.119 69.8571 200.961 71.0154 199.532 71.0154H199.244C197.815 71.0154 196.656 69.8571 196.656 68.4281V68.14Z" fill="#7D97F1"/>
<path d="M0 89.9901C0 88.5612 1.15837 87.4028 2.58729 87.4028H2.8754C4.30432 87.4028 5.46269 88.5612 5.46269 89.9901V90.2782C5.46269 91.7072 4.30432 92.8655 2.87539 92.8655H2.58729C1.15837 92.8655 0 91.7072 0 90.2782V89.9901Z" fill="#7D97F1"/>
<path d="M21.8516 89.9901C21.8516 88.5612 23.0099 87.4028 24.4389 87.4028H24.727C26.1559 87.4028 27.3142 88.5612 27.3142 89.9901V90.2782C27.3142 91.7072 26.1559 92.8655 24.727 92.8655H24.4389C23.0099 92.8655 21.8516 91.7072 21.8516 90.2782V89.9901Z" fill="#7D97F1"/>
<path d="M43.7021 89.9901C43.7021 88.5612 44.8605 87.4028 46.2894 87.4028H46.5775C48.0065 87.4028 49.1648 88.5612 49.1648 89.9901V90.2782C49.1648 91.7072 48.0065 92.8655 46.5775 92.8655H46.2894C44.8605 92.8655 43.7021 91.7072 43.7021 90.2782V89.9901Z" fill="#7D97F1"/>
<path d="M65.5518 89.9901C65.5518 88.5612 66.7101 87.4028 68.1391 87.4028H68.4272C69.8561 87.4028 71.0144 88.5612 71.0144 89.9901V90.2782C71.0144 91.7072 69.8561 92.8655 68.4272 92.8655H68.1391C66.7101 92.8655 65.5518 91.7072 65.5518 90.2782V89.9901Z" fill="#7D97F1"/>
<path d="M87.4023 89.9901C87.4023 88.5612 88.5607 87.4028 89.9896 87.4028H90.2777C91.7067 87.4028 92.865 88.5612 92.865 89.9901V90.2782C92.865 91.7072 91.7067 92.8655 90.2777 92.8655H89.9896C88.5607 92.8655 87.4023 91.7072 87.4023 90.2782V89.9901Z" fill="#7D97F1"/>
<path d="M109.254 89.9901C109.254 88.5612 110.412 87.4028 111.841 87.4028H112.129C113.558 87.4028 114.717 88.5612 114.717 89.9901V90.2782C114.717 91.7072 113.558 92.8655 112.129 92.8655H111.841C110.412 92.8655 109.254 91.7072 109.254 90.2782V89.9901Z" fill="#7D97F1"/>
<path d="M131.105 89.9901C131.105 88.5612 132.264 87.4028 133.693 87.4028H133.981C135.41 87.4028 136.568 88.5612 136.568 89.9901V90.2782C136.568 91.7072 135.41 92.8655 133.981 92.8655H133.693C132.264 92.8655 131.105 91.7072 131.105 90.2782V89.9901Z" fill="#7D97F1"/>
<path d="M152.956 89.9901C152.956 88.5612 154.114 87.4028 155.543 87.4028H155.831C157.26 87.4028 158.419 88.5612 158.419 89.9901V90.2782C158.419 91.7072 157.26 92.8655 155.831 92.8655H155.543C154.114 92.8655 152.956 91.7072 152.956 90.2782V89.9901Z" fill="#7D97F1"/>
<path d="M174.806 89.9901C174.806 88.5612 175.964 87.4028 177.393 87.4028H177.681C179.11 87.4028 180.268 88.5612 180.268 89.9901V90.2782C180.268 91.7072 179.11 92.8655 177.681 92.8655H177.393C175.964 92.8655 174.806 91.7072 174.806 90.2782V89.9901Z" fill="#7D97F1"/>
<path d="M196.656 89.9901C196.656 88.5612 197.815 87.4028 199.244 87.4028H199.532C200.961 87.4028 202.119 88.5612 202.119 89.9901V90.2782C202.119 91.7072 200.961 92.8655 199.532 92.8655H199.244C197.815 92.8655 196.656 91.7072 196.656 90.2782V89.9901Z" fill="#7D97F1"/>
<path d="M0 111.841C0 110.412 1.15837 109.254 2.58729 109.254H2.8754C4.30432 109.254 5.46269 110.412 5.46269 111.841V112.129C5.46269 113.558 4.30432 114.717 2.87539 114.717H2.58729C1.15837 114.717 0 113.558 0 112.129V111.841Z" fill="#7D97F1"/>
<path d="M21.8516 111.841C21.8516 110.412 23.0099 109.254 24.4389 109.254H24.727C26.1559 109.254 27.3142 110.412 27.3142 111.841V112.129C27.3142 113.558 26.1559 114.717 24.727 114.717H24.4389C23.0099 114.717 21.8516 113.558 21.8516 112.129V111.841Z" fill="#7D97F1"/>
<path d="M43.7021 111.841C43.7021 110.412 44.8605 109.254 46.2894 109.254H46.5775C48.0065 109.254 49.1648 110.412 49.1648 111.841V112.129C49.1648 113.558 48.0065 114.717 46.5775 114.717H46.2894C44.8605 114.717 43.7021 113.558 43.7021 112.129V111.841Z" fill="#7D97F1"/>
<path d="M65.5518 111.841C65.5518 110.412 66.7101 109.254 68.1391 109.254H68.4272C69.8561 109.254 71.0144 110.412 71.0144 111.841V112.129C71.0144 113.558 69.8561 114.717 68.4272 114.717H68.1391C66.7101 114.717 65.5518 113.558 65.5518 112.129V111.841Z" fill="#7D97F1"/>
<path d="M87.4023 111.841C87.4023 110.412 88.5607 109.254 89.9896 109.254H90.2777C91.7067 109.254 92.865 110.412 92.865 111.841V112.129C92.865 113.558 91.7067 114.717 90.2777 114.717H89.9896C88.5607 114.717 87.4023 113.558 87.4023 112.129V111.841Z" fill="#7D97F1"/>
<path d="M109.254 111.841C109.254 110.412 110.412 109.254 111.841 109.254H112.129C113.558 109.254 114.717 110.412 114.717 111.841V112.129C114.717 113.558 113.558 114.717 112.129 114.717H111.841C110.412 114.717 109.254 113.558 109.254 112.129V111.841Z" fill="#7D97F1"/>
<path d="M131.105 111.841C131.105 110.412 132.264 109.254 133.693 109.254H133.981C135.41 109.254 136.568 110.412 136.568 111.841V112.129C136.568 113.558 135.41 114.717 133.981 114.717H133.693C132.264 114.717 131.105 113.558 131.105 112.129V111.841Z" fill="#7D97F1"/>
<path d="M152.956 111.841C152.956 110.412 154.115 109.254 155.543 109.254H155.832C157.26 109.254 158.419 110.412 158.419 111.841V112.129C158.419 113.558 157.26 114.717 155.832 114.717H155.543C154.115 114.717 152.956 113.558 152.956 112.129V111.841Z" fill="#7D97F1"/>
<path d="M174.806 111.841C174.806 110.412 175.964 109.254 177.393 109.254H177.681C179.11 109.254 180.268 110.412 180.268 111.841V112.129C180.268 113.558 179.11 114.717 177.681 114.717H177.393C175.964 114.717 174.806 113.558 174.806 112.129V111.841Z" fill="#7D97F1"/>
<path d="M196.656 111.841C196.656 110.412 197.815 109.254 199.244 109.254H199.532C200.961 109.254 202.119 110.412 202.119 111.841V112.129C202.119 113.558 200.961 114.717 199.532 114.717H199.244C197.815 114.717 196.656 113.558 196.656 112.129V111.841Z" fill="#7D97F1"/>
<path d="M0 133.691C0 132.262 1.15837 131.104 2.58729 131.104H2.8754C4.30432 131.104 5.46269 132.262 5.46269 133.691V133.979C5.46269 135.408 4.30432 136.567 2.87539 136.567H2.58729C1.15837 136.567 0 135.408 0 133.979V133.691Z" fill="#7D97F1"/>
<path d="M0 154.766C0 153.337 1.15837 152.179 2.58729 152.179H2.8754C4.30432 152.179 5.46269 153.337 5.46269 154.766V155.054C5.46269 156.483 4.30432 157.641 2.87539 157.641H2.58729C1.15837 157.641 0 156.483 0 155.054V154.766Z" fill="#7D97F1"/>
<path d="M0 175.84C0 174.411 1.15837 173.252 2.58729 173.252H2.8754C4.30432 173.252 5.46269 174.411 5.46269 175.84V176.128C5.46269 177.557 4.30432 178.715 2.87539 178.715H2.58729C1.15837 178.715 0 177.557 0 176.128V175.84Z" fill="#7D97F1"/>
<path d="M0 196.915C0 195.486 1.15837 194.328 2.58729 194.328H2.8754C4.30432 194.328 5.46269 195.486 5.46269 196.915V197.203C5.46269 198.632 4.30432 199.79 2.87539 199.79H2.58729C1.15837 199.79 0 198.632 0 197.203V196.915Z" fill="#7D97F1"/>
<path d="M21.8516 133.691C21.8516 132.262 23.0099 131.104 24.4389 131.104H24.727C26.1559 131.104 27.3142 132.262 27.3142 133.691V133.979C27.3142 135.408 26.1559 136.567 24.727 136.567H24.4389C23.0099 136.567 21.8516 135.408 21.8516 133.979V133.691Z" fill="#7D97F1"/>
<path d="M21.8516 154.766C21.8516 153.337 23.0099 152.179 24.4389 152.179H24.727C26.1559 152.179 27.3142 153.337 27.3142 154.766V155.054C27.3142 156.483 26.1559 157.641 24.727 157.641H24.4389C23.0099 157.641 21.8516 156.483 21.8516 155.054V154.766Z" fill="#7D97F1"/>
<path d="M21.8516 175.84C21.8516 174.411 23.0099 173.252 24.4389 173.252H24.727C26.1559 173.252 27.3142 174.411 27.3142 175.84V176.128C27.3142 177.557 26.1559 178.715 24.727 178.715H24.4389C23.0099 178.715 21.8516 177.557 21.8516 176.128V175.84Z" fill="#7D97F1"/>
<path d="M21.8516 196.915C21.8516 195.486 23.0099 194.328 24.4389 194.328H24.727C26.1559 194.328 27.3142 195.486 27.3142 196.915V197.203C27.3142 198.632 26.1559 199.79 24.727 199.79H24.4389C23.0099 199.79 21.8516 198.632 21.8516 197.203V196.915Z" fill="#7D97F1"/>
<path d="M43.7021 133.691C43.7021 132.262 44.8605 131.104 46.2894 131.104H46.5775C48.0065 131.104 49.1648 132.262 49.1648 133.691V133.979C49.1648 135.408 48.0065 136.567 46.5775 136.567H46.2894C44.8605 136.567 43.7021 135.408 43.7021 133.979V133.691Z" fill="#7D97F1"/>
<path d="M43.7021 154.766C43.7021 153.337 44.8605 152.179 46.2894 152.179H46.5775C48.0065 152.179 49.1648 153.337 49.1648 154.766V155.054C49.1648 156.483 48.0065 157.641 46.5775 157.641H46.2894C44.8605 157.641 43.7021 156.483 43.7021 155.054V154.766Z" fill="#7D97F1"/>
<path d="M43.7021 175.84C43.7021 174.411 44.8605 173.252 46.2894 173.252H46.5775C48.0065 173.252 49.1648 174.411 49.1648 175.84V176.128C49.1648 177.557 48.0065 178.715 46.5775 178.715H46.2894C44.8605 178.715 43.7021 177.557 43.7021 176.128V175.84Z" fill="#7D97F1"/>
<path d="M43.7021 196.915C43.7021 195.486 44.8605 194.328 46.2894 194.328H46.5775C48.0065 194.328 49.1648 195.486 49.1648 196.915V197.203C49.1648 198.632 48.0065 199.79 46.5775 199.79H46.2894C44.8605 199.79 43.7021 198.632 43.7021 197.203V196.915Z" fill="#7D97F1"/>
<path d="M65.5518 133.691C65.5518 132.262 66.7101 131.104 68.1391 131.104H68.4272C69.8561 131.104 71.0144 132.262 71.0144 133.691V133.979C71.0144 135.408 69.8561 136.567 68.4272 136.567H68.1391C66.7101 136.567 65.5518 135.408 65.5518 133.979V133.691Z" fill="#7D97F1"/>
<path d="M65.5518 154.766C65.5518 153.337 66.7101 152.179 68.1391 152.179H68.4272C69.8561 152.179 71.0144 153.337 71.0144 154.766V155.054C71.0144 156.483 69.8561 157.641 68.4272 157.641H68.1391C66.7101 157.641 65.5518 156.483 65.5518 155.054V154.766Z" fill="#7D97F1"/>
<path d="M65.5518 175.84C65.5518 174.411 66.7101 173.252 68.1391 173.252H68.4272C69.8561 173.252 71.0144 174.411 71.0144 175.84V176.128C71.0144 177.557 69.8561 178.715 68.4272 178.715H68.1391C66.7101 178.715 65.5518 177.557 65.5518 176.128V175.84Z" fill="#7D97F1"/>
<path d="M65.5518 196.915C65.5518 195.486 66.7101 194.328 68.1391 194.328H68.4272C69.8561 194.328 71.0144 195.486 71.0144 196.915V197.203C71.0144 198.632 69.8561 199.79 68.4272 199.79H68.1391C66.7101 199.79 65.5518 198.632 65.5518 197.203V196.915Z" fill="#7D97F1"/>
<path d="M87.4023 133.691C87.4023 132.262 88.5607 131.104 89.9896 131.104H90.2777C91.7067 131.104 92.865 132.262 92.865 133.691V133.979C92.865 135.408 91.7067 136.567 90.2777 136.567H89.9896C88.5607 136.567 87.4023 135.408 87.4023 133.979V133.691Z" fill="#7D97F1"/>
<path d="M87.4023 154.766C87.4023 153.337 88.5607 152.179 89.9896 152.179H90.2777C91.7067 152.179 92.865 153.337 92.865 154.766V155.054C92.865 156.483 91.7067 157.641 90.2777 157.641H89.9896C88.5607 157.641 87.4023 156.483 87.4023 155.054V154.766Z" fill="#7D97F1"/>
<path d="M87.4023 175.84C87.4023 174.411 88.5607 173.252 89.9896 173.252H90.2777C91.7067 173.252 92.865 174.411 92.865 175.84V176.128C92.865 177.557 91.7067 178.715 90.2777 178.715H89.9896C88.5607 178.715 87.4023 177.557 87.4023 176.128V175.84Z" fill="#7D97F1"/>
<path d="M87.4023 196.915C87.4023 195.486 88.5607 194.328 89.9896 194.328H90.2777C91.7067 194.328 92.865 195.486 92.865 196.915V197.203C92.865 198.632 91.7067 199.79 90.2777 199.79H89.9896C88.5607 199.79 87.4023 198.632 87.4023 197.203V196.915Z" fill="#7D97F1"/>
<path d="M109.254 133.691C109.254 132.262 110.412 131.104 111.841 131.104H112.129C113.558 131.104 114.717 132.262 114.717 133.691V133.979C114.717 135.408 113.558 136.567 112.129 136.567H111.841C110.412 136.567 109.254 135.408 109.254 133.979V133.691Z" fill="#7D97F1"/>
<path d="M109.254 154.766C109.254 153.337 110.412 152.179 111.841 152.179H112.129C113.558 152.179 114.717 153.337 114.717 154.766V155.054C114.717 156.483 113.558 157.641 112.129 157.641H111.841C110.412 157.641 109.254 156.483 109.254 155.054V154.766Z" fill="#7D97F1"/>
<path d="M109.254 175.84C109.254 174.411 110.412 173.252 111.841 173.252H112.129C113.558 173.252 114.717 174.411 114.717 175.84V176.128C114.717 177.557 113.558 178.715 112.129 178.715H111.841C110.412 178.715 109.254 177.557 109.254 176.128V175.84Z" fill="#7D97F1"/>
<path d="M109.254 196.915C109.254 195.486 110.412 194.328 111.841 194.328H112.129C113.558 194.328 114.717 195.486 114.717 196.915V197.203C114.717 198.632 113.558 199.79 112.129 199.79H111.841C110.412 199.79 109.254 198.632 109.254 197.203V196.915Z" fill="#7D97F1"/>
<path d="M131.105 133.691C131.105 132.262 132.264 131.104 133.693 131.104H133.981C135.41 131.104 136.568 132.262 136.568 133.691V133.979C136.568 135.408 135.41 136.567 133.981 136.567H133.693C132.264 136.567 131.105 135.408 131.105 133.979V133.691Z" fill="#7D97F1"/>
<path d="M131.105 154.766C131.105 153.337 132.264 152.179 133.693 152.179H133.981C135.41 152.179 136.568 153.337 136.568 154.766V155.054C136.568 156.483 135.41 157.641 133.981 157.641H133.693C132.264 157.641 131.105 156.483 131.105 155.054V154.766Z" fill="#7D97F1"/>
<path d="M131.105 175.84C131.105 174.411 132.264 173.252 133.693 173.252H133.981C135.41 173.252 136.568 174.411 136.568 175.84V176.128C136.568 177.557 135.41 178.715 133.981 178.715H133.693C132.264 178.715 131.105 177.557 131.105 176.128V175.84Z" fill="#7D97F1"/>
<path d="M131.105 196.915C131.105 195.486 132.264 194.328 133.693 194.328H133.981C135.41 194.328 136.568 195.486 136.568 196.915V197.203C136.568 198.632 135.41 199.79 133.981 199.79H133.693C132.264 199.79 131.105 198.632 131.105 197.203V196.915Z" fill="#7D97F1"/>
<path d="M152.956 133.691C152.956 132.262 154.115 131.104 155.543 131.104H155.832C157.26 131.104 158.419 132.262 158.419 133.691V133.979C158.419 135.408 157.26 136.567 155.832 136.567H155.543C154.115 136.567 152.956 135.408 152.956 133.979V133.691Z" fill="#7D97F1"/>
<path d="M152.956 154.766C152.956 153.337 154.114 152.179 155.543 152.179H155.831C157.26 152.179 158.419 153.337 158.419 154.766V155.054C158.419 156.483 157.26 157.641 155.831 157.641H155.543C154.114 157.641 152.956 156.483 152.956 155.054V154.766Z" fill="#7D97F1"/>
<path d="M152.956 175.84C152.956 174.411 154.114 173.252 155.543 173.252H155.831C157.26 173.252 158.419 174.411 158.419 175.84V176.128C158.419 177.557 157.26 178.715 155.831 178.715H155.543C154.114 178.715 152.956 177.557 152.956 176.128V175.84Z" fill="#7D97F1"/>
<path d="M152.956 196.915C152.956 195.486 154.114 194.328 155.543 194.328H155.831C157.26 194.328 158.419 195.486 158.419 196.915V197.203C158.419 198.632 157.26 199.79 155.831 199.79H155.543C154.114 199.79 152.956 198.632 152.956 197.203V196.915Z" fill="#7D97F1"/>
<path d="M174.806 133.691C174.806 132.262 175.964 131.104 177.393 131.104H177.681C179.11 131.104 180.268 132.262 180.268 133.691V133.979C180.268 135.408 179.11 136.567 177.681 136.567H177.393C175.964 136.567 174.806 135.408 174.806 133.979V133.691Z" fill="#7D97F1"/>
<path d="M174.806 154.766C174.806 153.337 175.964 152.179 177.393 152.179H177.681C179.11 152.179 180.268 153.337 180.268 154.766V155.054C180.268 156.483 179.11 157.641 177.681 157.641H177.393C175.964 157.641 174.806 156.483 174.806 155.054V154.766Z" fill="#7D97F1"/>
<path d="M174.806 175.84C174.806 174.411 175.964 173.252 177.393 173.252H177.681C179.11 173.252 180.268 174.411 180.268 175.84V176.128C180.268 177.557 179.11 178.715 177.681 178.715H177.393C175.964 178.715 174.806 177.557 174.806 176.128V175.84Z" fill="#7D97F1"/>
<path d="M174.806 196.915C174.806 195.486 175.964 194.328 177.393 194.328H177.681C179.11 194.328 180.268 195.486 180.268 196.915V197.203C180.268 198.632 179.11 199.79 177.681 199.79H177.393C175.964 199.79 174.806 198.632 174.806 197.203V196.915Z" fill="#7D97F1"/>
<path d="M196.656 133.691C196.656 132.262 197.815 131.104 199.244 131.104H199.532C200.961 131.104 202.119 132.262 202.119 133.691V133.979C202.119 135.408 200.961 136.567 199.532 136.567H199.244C197.815 136.567 196.656 135.408 196.656 133.979V133.691Z" fill="#7D97F1"/>
<path d="M196.656 154.766C196.656 153.337 197.815 152.179 199.244 152.179H199.532C200.961 152.179 202.119 153.337 202.119 154.766V155.054C202.119 156.483 200.961 157.641 199.532 157.641H199.244C197.815 157.641 196.656 156.483 196.656 155.054V154.766Z" fill="#7D97F1"/>
<path d="M196.656 175.84C196.656 174.411 197.815 173.252 199.244 173.252H199.532C200.961 173.252 202.119 174.411 202.119 175.84V176.128C202.119 177.557 200.961 178.715 199.532 178.715H199.244C197.815 178.715 196.656 177.557 196.656 176.128V175.84Z" fill="#7D97F1"/>
<path d="M196.656 196.915C196.656 195.486 197.815 194.328 199.244 194.328H199.532C200.961 194.328 202.119 195.486 202.119 196.915V197.203C202.119 198.632 200.961 199.79 199.532 199.79H199.244C197.815 199.79 196.656 198.632 196.656 197.203V196.915Z" fill="#7D97F1"/>
</svg>
