<svg width="150" height="150" viewBox="0 0 150 150" fill="none" xmlns="http://www.w3.org/2000/svg">
<g clip-path="url(#clip0_6064_412)">
<path fill-rule="evenodd" clip-rule="evenodd" d="M74.7066 0C89.5402 0 104.041 4.39867 116.374 12.6398C128.708 20.8809 138.321 32.5943 143.998 46.2987C149.674 60.0032 151.159 75.0832 148.265 89.6318C145.372 104.18 138.229 117.544 127.74 128.033C117.251 138.522 103.887 145.665 89.3383 148.559C74.7898 151.453 59.7098 149.968 46.0053 144.291C32.3008 138.614 20.5874 129.001 12.3463 116.668C4.10522 104.334 -0.293457 89.8336 -0.293457 75C-0.293457 55.1088 7.60831 36.0322 21.6735 21.967C35.7388 7.90176 54.8153 0 74.7066 0V0Z" fill="white"/>
<path fill-rule="evenodd" clip-rule="evenodd" d="M74.7069 16.1047L94.4387 45.5866L114.171 75.0752L74.7069 94.957L35.2433 75.0002L54.9751 45.5116L74.7069 16.1047ZM74.7069 102.9L37.4319 83.0116L74.7069 133.896L111.982 83.0116L74.7069 102.9Z" fill="#343434"/>
<path fill-rule="evenodd" clip-rule="evenodd" d="M74.7067 16.1047L94.4385 45.5116L114.17 75.0002L74.7067 60.1025V16.1047Z" fill="#343434"/>
<path fill-rule="evenodd" clip-rule="evenodd" d="M74.7067 102.9L112.057 83.0115L74.7067 133.971V102.9Z" fill="#313131"/>
<path fill-rule="evenodd" clip-rule="evenodd" d="M74.7067 60.1022L114.17 74.9999L74.7067 94.8817V60.1022Z" fill="#151515"/>
<path fill-rule="evenodd" clip-rule="evenodd" d="M74.7069 16.1047L54.9751 45.5116L35.2433 75.0002L74.7069 60.1025V16.1047Z" fill="#8C8C8C"/>
<path fill-rule="evenodd" clip-rule="evenodd" d="M74.7066 102.9L37.4316 83.0115L74.7066 133.971V102.9Z" fill="#8A8A8A"/>
<path fill-rule="evenodd" clip-rule="evenodd" d="M74.7069 60.1022L35.2433 74.9999L74.7069 94.8817V60.1022Z" fill="#353535"/>
</g>
<defs>
<clipPath id="clip0_6064_412">
<rect width="150" height="150" fill="white"/>
</clipPath>
</defs>
</svg>
