<svg width="134" height="134" viewBox="0 0 134 134" fill="none" xmlns="http://www.w3.org/2000/svg">
<path d="M67 134C104.003 134 134 104.003 134 67C134 29.9969 104.003 0 67 0C29.9969 0 0 29.9969 0 67C0 104.003 29.9969 134 67 134Z" fill="#172852"/>
<path d="M53.9689 29.9426C61.8146 27.008 70.6452 27.0013 78.6383 29.4133C89.0434 32.6427 97.8271 40.4951 102.417 50.3508C103.683 53.1581 104.896 56.086 105.016 59.2082C99.1671 55.818 92.7552 53.6204 86.3299 51.6171C76.0521 47.912 65.2919 45.3392 55.5635 40.2472C53.2989 38.8938 50.4112 37.5069 49.7948 34.6862C49.5469 32.2474 52.1264 30.8873 53.9689 29.9426Z" fill="#FFD83D"/>
<path d="M30.2842 53.6609C32.5555 47.4969 36.2807 41.7751 41.3392 37.534C42.6256 48.1133 47.128 58.3375 54.565 66.0291C63.4827 75.2952 76.1859 80.9835 89.1102 80.7691C94.2424 80.9299 99.2607 79.744 104.266 78.7859C99.3411 96.5811 79.8374 108.393 61.7675 105.552C50.8599 104.159 40.7898 97.7 34.7129 88.5813C27.8588 78.5045 26.1302 65.1246 30.2842 53.6609Z" fill="#FFD83D"/>
<path d="M86.3299 51.6171C92.7552 53.6204 99.1671 55.818 105.016 59.2082L105.411 59.4156C105.954 63.4959 106.349 67.6566 105.625 71.7436C102.684 70.4974 100.299 68.3064 97.8065 66.3701C93.0093 62.3769 88.1121 57.8079 86.3299 51.6171Z" fill="#FF6F03"/>
</svg>
